<svg xmlns="http://www.w3.org/2000/svg" version="1.1" xmlns:xlink="http://www.w3.org/1999/xlink" xmlns:svgjs="http://svgjs.com/svgjs" width="1440" height="560" preserveAspectRatio="none" viewBox="0 0 1440 560"><g mask="url(&quot;#SvgjsMask1123&quot;)" fill="none"><path d="M1009.186,153.164C1039.312,153.295,1073.575,150.817,1088.553,124.678C1103.482,98.625,1089.393,67.156,1072.816,42.119C1058.268,20.146,1035.512,6.005,1009.186,4.805C980.373,3.492,950.471,11.705,934.651,35.823C917.359,62.185,914.101,97.382,931.005,123.994C946.989,149.158,979.374,153.034,1009.186,153.164" fill="rgba(9, 64, 103, 0.31)" class="triangle-float3"></path><path d="M479.206,345.5C506.874,346.397,530.768,326.443,543.093,301.655C554.196,279.324,548.857,253.329,535.51,232.262C523.179,212.799,502.245,201.042,479.206,200.815C455.743,200.584,432.855,210.916,420.946,231.133C408.868,251.637,411.313,276.527,422.115,297.731C434.187,321.428,452.625,344.638,479.206,345.5" fill="rgba(9, 64, 103, 0.31)" class="triangle-float1"></path><path d="M1359.0871949743346 569.4631753803269L1413.7620735095875 462.15768437982143 1306.456582509082 407.4828058445686 1251.781703973829 514.788296845074z" fill="rgba(9, 64, 103, 0.31)" class="triangle-float1"></path><path d="M470.7674923478644 348.9703001650596L379.5914643980759 403.75438475944367 507.3556052645463 513.1263843869343z" fill="rgba(9, 64, 103, 0.31)" class="triangle-float3"></path><path d="M356.451,301.274C375.475,301.425,396.841,298.711,406.137,282.112C415.306,265.739,406.233,246.326,396.048,230.565C386.932,216.459,373.246,205.354,356.451,205.225C339.449,205.094,324.901,215.594,315.785,229.947C305.834,245.616,298.922,265.208,308.116,281.333C317.368,297.561,337.772,301.125,356.451,301.274" fill="rgba(9, 64, 103, 0.31)" class="triangle-float1"></path><path d="M581.3719945785764 133.52047175547835L514.528984761008 144.1073644550414 563.8308287191368 239.07843283161242z" fill="rgba(9, 64, 103, 0.31)" class="triangle-float2"></path><path d="M839.9686486506346 454.5534733722735L892.5544397876649 301.83324674092114 687.2484220192822 401.96768223524316z" fill="rgba(9, 64, 103, 0.31)" class="triangle-float1"></path><path d="M620.419,546.846C637.244,547.729,653.35,539.071,662.011,524.62C670.917,509.761,671.625,491.045,662.798,476.14C654.126,461.497,637.437,454.486,620.419,454.388C603.207,454.289,585.168,460.397,577.187,475.647C569.602,490.139,577.266,506.639,585.756,520.62C593.816,533.894,604.911,546.033,620.419,546.846" fill="rgba(9, 64, 103, 0.31)" class="triangle-float1"></path><path d="M1253.786,406.586C1312.705,408.735,1371.399,379.906,1398.71,327.655C1424.476,278.361,1403.326,221.872,1375.514,173.703C1347.703,125.536,1309.386,78.125,1253.786,76.653C1196.247,75.13,1147.305,116.086,1120.36,166.949C1095.128,214.579,1099.862,270.619,1126.083,317.712C1153.123,366.277,1198.238,404.56,1253.786,406.586" fill="rgba(9, 64, 103, 0.31)" class="triangle-float3"></path><path d="M78.47579796062311 527.3025828692639L213.04425264750802 555.9059909067562 241.64766068500032 421.3375362198713 107.07920599811543 392.734128182379z" fill="rgba(9, 64, 103, 0.31)" class="triangle-float2"></path><path d="M922.5157960271024 62.69941146477794L920.7657618028951-37.55998209257589 820.5063682455412-35.80994786836857 822.2564024697485 64.44944568898526z" fill="rgba(9, 64, 103, 0.31)" class="triangle-float2"></path><path d="M136.7756054799656 258.76967720307334L180.55829835049306 164.87738934368267 86.66601049110238 121.09469647315521 42.88331762057493 214.9869843325459z" fill="rgba(9, 64, 103, 0.31)" class="triangle-float3"></path><path d="M-47.56861072820982 100.58517898533438L-10.04386485513006 203.68357094239408 93.05452710192964 166.15882506931433 55.529781228849885 63.06043311225462z" fill="rgba(9, 64, 103, 0.31)" class="triangle-float1"></path><path d="M189.081,208.065C230.788,205.401,258.953,170.352,279.67,134.056C300.15,98.176,315.089,56.623,296.617,19.669C276.392,-20.793,234.312,-46.574,189.081,-47.171C142.835,-47.781,99.793,-23.201,76.516,16.765C53.086,56.993,52.343,106.947,75.952,147.07C99.239,186.645,143.256,210.992,189.081,208.065" fill="rgba(9, 64, 103, 0.31)" class="triangle-float1"></path><path d="M604.9532074337084 547.394172198133L633.4531123325291 480.2526038164939 518.4908073106602 471.07353065908217z" fill="rgba(9, 64, 103, 0.31)" class="triangle-float2"></path><path d="M73.557,511.752C98.797,512.367,121.249,497.554,134.583,476.114C148.797,453.258,154.399,425.232,142.325,401.177C129.007,374.646,103.242,354.291,73.557,354.539C44.216,354.784,19.284,375.779,6.752,402.31C-4.197,425.489,4.122,451.377,17.478,473.258C30.139,494,49.263,511.16,73.557,511.752" fill="rgba(9, 64, 103, 0.31)" class="triangle-float2"></path><path d="M1238.606,457.205C1282.338,460.173,1328.397,446.842,1351.748,409.747C1376.438,370.525,1375.112,319.073,1350.136,280.033C1326.824,243.593,1281.839,231.394,1238.606,232.894C1198.301,234.292,1159.093,251.962,1139.72,287.333C1120.998,321.516,1129.661,362.322,1149.268,396.005C1168.732,429.44,1200.007,454.585,1238.606,457.205" fill="rgba(9, 64, 103, 0.31)" class="triangle-float1"></path></g><defs><mask id="SvgjsMask1123"><rect width="1440" height="560" fill="#ffffff"></rect></mask><style>
            @keyframes float1 {
                0%{transform: translate(0, 0)}
                50%{transform: translate(-10px, 0)}
                100%{transform: translate(0, 0)}
            }

            .triangle-float1 {
                animation: float1 5s infinite;
            }

            @keyframes float2 {
                0%{transform: translate(0, 0)}
                50%{transform: translate(-5px, -5px)}
                100%{transform: translate(0, 0)}
            }

            .triangle-float2 {
                animation: float2 4s infinite;
            }

            @keyframes float3 {
                0%{transform: translate(0, 0)}
                50%{transform: translate(0, -10px)}
                100%{transform: translate(0, 0)}
            }

            .triangle-float3 {
                animation: float3 6s infinite;
            }
        </style></defs></svg>