<svg xmlns="http://www.w3.org/2000/svg" version="1.1" xmlns:xlink="http://www.w3.org/1999/xlink" xmlns:svgjs="http://svgjs.com/svgjs" width="1440" height="560" preserveAspectRatio="none" viewBox="0 0 1440 560"><g mask="url(&quot;#SvgjsMask1000&quot;)" fill="none"><path d="M92.737,312.503C107.863,313.385,122.863,306.761,130.84,293.879C139.231,280.327,140.571,262.642,131.885,249.278C123.789,236.821,107.582,234.654,92.737,235.253C79.159,235.8,65.427,240.423,58.699,252.229C52.026,263.939,55,278.106,61.627,289.842C68.389,301.816,79.009,311.702,92.737,312.503" fill="rgba(204, 213, 174, 0.41)" class="triangle-float1"></path><path d="M1337.175,142.058C1372.003,141.817,1395.919,110.52,1412.084,79.669C1426.87,51.449,1431.839,18.545,1416.531,-9.396C1400.641,-38.4,1370.225,-55.845,1337.175,-57.06C1301.752,-58.363,1264.269,-46.598,1247.023,-15.629C1230.115,14.735,1243.203,50.545,1260.452,80.716C1277.87,111.182,1302.082,142.3,1337.175,142.058" fill="rgba(204, 213, 174, 0.41)" class="triangle-float2"></path><path d="M607.2566787066131 387.8005991060356L497.1195494855777 476.98788781116536 586.3068381907075 587.1250170322007 696.4439674117428 497.937728327071z" fill="rgba(204, 213, 174, 0.41)" class="triangle-float2"></path><path d="M756.1870707884112 270.3510008711863L819.3274954147292 419.1005196062136 968.0770141497567 355.96009497989553 904.9365895234386 207.2105762448682z" fill="rgba(204, 213, 174, 0.41)" class="triangle-float1"></path><path d="M658.166,491.916C703.064,492.957,737.539,454.797,757.106,414.374C774.178,379.104,767.12,339.57,748.633,305.02C728.766,267.891,700.276,229.392,658.166,229.463C616.13,229.534,587.203,267.816,568.23,305.326C551.355,338.687,550.634,376.285,566.867,409.963C585.899,449.448,614.346,490.9,658.166,491.916" fill="rgba(204, 213, 174, 0.41)" class="triangle-float1"></path><path d="M456.9260445983428 564.4602070432394L523.0597630508619 454.39521633116595 412.9947723387885 388.2614978786468 346.86105388626936 498.32648859072026z" fill="rgba(204, 213, 174, 0.41)" class="triangle-float3"></path><path d="M401.64121026853627 414.88382143473893L416.2268287962686 276.1109309716318 262.8683198054291 400.2982029070066z" fill="rgba(204, 213, 174, 0.41)" class="triangle-float3"></path><path d="M210.02611416676564 212.69300802288564L65.9331963510144 184.68418211330405 37.92437044143281 328.7770999290553 182.01728825718405 356.7859258386369z" fill="rgba(204, 213, 174, 0.41)" class="triangle-float2"></path><path d="M706.6751272414067 191.65570225085145L689.3012253387975 290.18799624694054 805.2074212374959 209.02960415346064z" fill="rgba(204, 213, 174, 0.41)" class="triangle-float1"></path><path d="M1410.807,343.24C1462.616,346.214,1517.91,330.001,1543.916,285.094C1569.967,240.11,1555.209,184.884,1528.252,140.437C1502.453,97.899,1460.555,65.188,1410.807,65.617C1361.701,66.041,1319.831,99.05,1296.821,142.434C1275.251,183.104,1279.048,231.158,1301.774,271.194C1324.823,311.798,1364.194,340.564,1410.807,343.24" fill="rgba(204, 213, 174, 0.41)" class="triangle-float2"></path><path d="M1410.2467652555658 185.93990002142638L1309.2900603722383 286.896604904754 1410.2467652555658 387.85330978808156 1511.2034701388934 286.896604904754z" fill="rgba(204, 213, 174, 0.41)" class="triangle-float1"></path><path d="M1249.938454946954 412.2327049759501L1334.8133281604044 533.446585978229 1456.0272091626834 448.57171276477857 1371.1523359492328 327.3578317624996z" fill="rgba(204, 213, 174, 0.41)" class="triangle-float3"></path><path d="M1192.88037813113 138.16598182948192L1301.8625109003258 126.7114981071532 1290.4080271779972 17.729365337957518 1181.4258944088015 29.183849060286235z" fill="rgba(204, 213, 174, 0.41)" class="triangle-float3"></path><path d="M144.8894361605011 176.04641210892572L200.243414637879 138.7096821848219 116.56133051303433 74.34707943080696z" fill="rgba(204, 213, 174, 0.41)" class="triangle-float3"></path><path d="M543.4504096442728 262.186115386688L410.2514944559965 321.4900932804875 469.555472349796 454.6890084687637 602.7543875380723 395.3850305749643z" fill="rgba(204, 213, 174, 0.41)" class="triangle-float2"></path><path d="M346.641,397.485C370.336,398.64,393.618,388.253,406.212,368.149C419.596,346.784,422.485,319.063,409.185,297.646C396.46,277.155,370.761,272.404,346.641,272.22C322.09,272.033,294.339,275.213,282.42,296.678C270.701,317.782,283.375,342.435,296.345,362.794C308.074,381.204,324.838,396.422,346.641,397.485" fill="rgba(204, 213, 174, 0.41)" class="triangle-float3"></path><path d="M1026.5008205133101 325.64567137101625L1038.7751475954915 403.1427225777553 1148.8835608645095 345.9827063511138z" fill="rgba(204, 213, 174, 0.41)" class="triangle-float2"></path></g><defs><mask id="SvgjsMask1000"><rect width="1440" height="560" fill="#ffffff"></rect></mask><style>
            @keyframes float1 {
                0%{transform: translate(0, 0)}
                50%{transform: translate(-10px, 0)}
                100%{transform: translate(0, 0)}
            }

            .triangle-float1 {
                animation: float1 5s infinite;
            }

            @keyframes float2 {
                0%{transform: translate(0, 0)}
                50%{transform: translate(-5px, -5px)}
                100%{transform: translate(0, 0)}
            }

            .triangle-float2 {
                animation: float2 4s infinite;
            }

            @keyframes float3 {
                0%{transform: translate(0, 0)}
                50%{transform: translate(0, -10px)}
                100%{transform: translate(0, 0)}
            }

            .triangle-float3 {
                animation: float3 6s infinite;
            }
        </style></defs></svg>