<svg xmlns="http://www.w3.org/2000/svg" version="1.1" xmlns:xlink="http://www.w3.org/1999/xlink" xmlns:svgjs="http://svgjs.com/svgjs" width="1440" height="560" preserveAspectRatio="none" viewBox="0 0 1440 560"><g mask="url(&quot;#SvgjsMask1056&quot;)" fill="none"><path d="M982.9 364.72a43.23 43.23 0 1 0-40.3 76.49z" stroke="rgba(255, 255, 254, 1)"></path><path d="M362.92 282.49L418.53 282.49L418.53 338.1L362.92 338.1z" stroke="rgba(255, 255, 254, 1)"></path><path d="M671.1 215.86 a6 6 0 1 0 12 0 a6 6 0 1 0 -12 0z" fill="rgba(239, 69, 101, 1)"></path><path d="M634.7 209.91a16.63 16.63 0 1 0-7.8-32.33z" fill="rgba(255, 255, 254, 1)"></path><path d="M1286.96 37.27L1297.57 37.27L1297.57 63.83L1286.96 63.83z" fill="rgba(239, 69, 101, 1)"></path><path d="M1324.86 338.32L1372.48 338.32L1372.48 371.68L1324.86 371.68z" stroke="rgba(61, 169, 252, 1)"></path><path d="M109.26 128.18 a24.94 24.94 0 1 0 49.88 0 a24.94 24.94 0 1 0 -49.88 0z" fill="rgba(255, 255, 254, 1)"></path><path d="M330.51 253.15L333.12 253.15L333.12 255.76L330.51 255.76z" stroke="rgba(239, 69, 101, 1)"></path><path d="M1126.16 530.22a6.01 6.01 0 1 0-11.99-0.83z" fill="rgba(61, 169, 252, 1)"></path><path d="M1295.66 273.17L1303.5 273.17L1303.5 290.68L1295.66 290.68z" stroke="rgba(255, 255, 254, 1)"></path><path d="M354.54 212.52 a29.43 29.43 0 1 0 58.86 0 a29.43 29.43 0 1 0 -58.86 0z" fill="rgba(239, 69, 101, 1)"></path><path d="M64.15 115.12 a48.79 48.79 0 1 0 97.58 0 a48.79 48.79 0 1 0 -97.58 0z" stroke="rgba(239, 69, 101, 1)"></path><path d="M448.77 200.66L487.81 200.66L487.81 239.7L448.77 239.7z" stroke="rgba(61, 169, 252, 1)"></path><path d="M1196.84 64.96a32.89 32.89 0 1 0-5.21 65.58z" stroke="rgba(255, 255, 254, 1)"></path><path d="M1287.72 206.57 a34.73 34.73 0 1 0 69.46 0 a34.73 34.73 0 1 0 -69.46 0z" stroke="rgba(255, 255, 254, 1)"></path><path d="M309.83 318.85L331.03 318.85L331.03 357.32L309.83 357.32z" fill="rgba(61, 169, 252, 1)"></path><path d="M401.31 324.12L430.76 324.12L430.76 325.69L401.31 325.69z" stroke="rgba(255, 255, 254, 1)"></path><path d="M881.31 248L905.7 248L905.7 272.39L881.31 272.39z" fill="rgba(255, 255, 254, 1)"></path><path d="M987.56 195.08L997.8 195.08L997.8 215.64L987.56 215.64z" stroke="rgba(61, 169, 252, 1)"></path><path d="M340.73 205.49L354.58 205.49L354.58 219.34L340.73 219.34z" stroke="rgba(239, 69, 101, 1)"></path><path d="M1006.43 291.43a55.55 55.55 0 1 0-100.53 47.3z" fill="rgba(61, 169, 252, 1)"></path><path d="M1013.37 202L1023.06 202L1023.06 215.05L1013.37 215.05z" fill="rgba(255, 255, 254, 1)"></path><path d="M1107.97 228.58L1124.28 228.58L1124.28 254.22L1107.97 254.22z" fill="rgba(61, 169, 252, 1)"></path><path d="M173.18 271.06L223.48 271.06L223.48 282.16L173.18 282.16z" stroke="rgba(239, 69, 101, 1)"></path><path d="M994.81 379.28 a39.79 39.79 0 1 0 79.58 0 a39.79 39.79 0 1 0 -79.58 0z" stroke="rgba(239, 69, 101, 1)"></path><path d="M105.31 459.1 a29.91 29.91 0 1 0 59.82 0 a29.91 29.91 0 1 0 -59.82 0z" fill="rgba(61, 169, 252, 1)"></path><path d="M1080.21 363.98L1122.75 363.98L1122.75 406.52L1080.21 406.52z" stroke="rgba(239, 69, 101, 1)"></path><path d="M-28.84 206.49 a49.71 49.71 0 1 0 99.42 0 a49.71 49.71 0 1 0 -99.42 0z" fill="rgba(239, 69, 101, 1)"></path><path d="M1109.21 408.43L1159.98 408.43L1159.98 422.16L1109.21 422.16z" fill="rgba(255, 255, 254, 1)"></path><path d="M810.33 523.87L858.2 523.87L858.2 571.74L810.33 571.74z" stroke="rgba(61, 169, 252, 1)"></path><path d="M358.36 271.45L386.88 271.45L386.88 308.23L358.36 308.23z" fill="rgba(61, 169, 252, 1)"></path><path d="M1085.41 100.28 a43.13 43.13 0 1 0 86.26 0 a43.13 43.13 0 1 0 -86.26 0z" stroke="rgba(255, 255, 254, 1)"></path><path d="M631.9 17.81a25.81 25.81 0 1 0 42.65 29.08z" fill="rgba(61, 169, 252, 1)"></path></g><defs><mask id="SvgjsMask1056"><rect width="1440" height="560" fill="#ffffff"></rect></mask></defs></svg>