<svg xmlns="http://www.w3.org/2000/svg" style="shape-rendering:geometricPrecision;text-rendering:geometricPrecision;image-rendering:optimizeQuality;fill-rule:evenodd;clip-rule:evenodd" viewBox="0 0 2429 1630">
  <path style="opacity:.996" fill="#3c3b41" d="m1323 59-2 2c-2 0-3 1-3 3l-4 36c-2 6-4 12-4 19 4 15 6 30 7 46a13613 13613 0 0 1-4 251l-12 2-42-2h-104c-46-3-91-1-136 4l-12-1-11-4c-12 0-24-1-35-3-3-1-5-2-6-4l-2-109 4-46-3-40 2-47c2-5 5-9 8-12 1-3 4-5 8-5l9-9c4-12 11-21 22-28 7-4 15-7 24-9l21-12c5-5 7-10 7-17l2-2 170-17 5 2 5-4h-3l54-5 19 4 16 7Z"/>
  <path style="opacity:.086" fill="#2e205d" d="M1234 53h3l-5 4-5-2 7-2Z"/>
  <path style="opacity:.994" fill="#5f6268" d="m1323 59 105 35 58 16 2 2c11 2 22 4 33 8 15 4 31 7 48 9l6 3 67 4c15 1 29 6 42 13l19 13v1c-7 6-10 13-10 23 1 10 3 20 7 29l-10 23-5 42c-1 31 0 62 1 94l-2 33c-2 4-6 8-10 10-28 0-55 1-81 3l-43-3c-15 0-29 1-44 3a510 510 0 0 0-95-1l-35 12c-18 2-35 2-51 0l-6-5-3-5-195-4c-34 0-68 2-102 5-9-1-17-2-24-5l-28-1-15-6v-92l3 90c1 2 3 3 6 4 11 2 23 3 35 3l11 4 12 1a898 898 0 0 1 143-3 4074 4074 0 0 0 153 0l2-7v-74l2-41c-2-43-2-86 0-129l-1-21-2-1c-3-11-4-22-4-33l5-13c0-13 1-25 4-37l2-2Z"/>
  <path style="opacity:.998" fill="#c5b7a8" d="m1057 72-2 2c-2 6-6 12-10 17l-19 10-15 3-18 12c-6 7-11 14-13 23-3 4-8 7-13 9-6 4-11 9-15 15l-3 55c5 23 5 47 0 72-1 8-1 16 1 25v93l-34 3c-4 0-6 2-8 4h-48c-6-1-10-4-14-7l-21-20c-16-6-33-8-49-7l-39 11c-8 5-15 11-20 18l-17 8a54 54 0 0 1-55 13c-17-3-32 1-45 10l-22 6-6-1c-5-4-6-10-5-15 9-11 11-22 5-34l-7-12 2-3a3814 3814 0 0 1 79-27c-4-3-9-4-13-5-13-2-25-2-36 2a322 322 0 0 0-30 10l2-2c-2-10-2-19 1-28l15-33c-1-27 0-53 3-78 2-6 6-10 13-12 13-1 25-6 34-16l1-5 6-15v-19l-2-12 1-1c14-4 28-7 43-9l5-3 29-6 40-9 19-2 2-2 57-11a134 134 0 0 0 47-26l19-9 3 1 1 6c-2 6-2 13-2 20l7-7 46-3a1127 1127 0 0 1 100-9Z"/>
  <path style="opacity:.997" fill="#e8e7ad" d="M639 142c-2 1-2 2 0 4 6 20 1 37-14 51l-6 3-25 5c-5 4-9 9-12 15-3 22-4 45-1 68-1 11-5 21-13 31 0 3-2 7-4 11l-1 24-7 2c2 2 4 3 7 3l-6 5c-5 0-8-2-9-6-1-15 0-30 4-44l11-40c0-10 2-19 4-27l2-49c3-10 7-18 12-26a480 480 0 0 1 23-23l35-7Z"/>
  <path style="opacity:.944" fill="#e6eae1" d="M1703 162c90 68 178 139 265 212a5452 5452 0 0 1 67 51l-8 9h-8c-3-2-5-3-8-3-8-9-16-15-25-19-7-8-15-14-23-19l-8-9c-9-5-17-12-23-19l-5-1c-8-8-16-15-24-20-5-5-10-8-15-10l-39-15-6-5a389 389 0 0 0-36-10l-15-15-10-7c-3-2-6-2-8-2l-8-6-16-16-8-13c-1-2-2-2-3-2l-1-4c-7-8-14-15-22-21-6-1-11-3-15-6-3-8-6-17-6-25l1-11 7-13v-1Z"/>
  <path style="opacity:.974" fill="#e1ddac" d="m641 141-1 1 2 12v19l-6 15-16 14-22 5c-8 3-12 9-13 17-2 24-3 48-2 73-1 7-5 14-10 20-6 14-8 29-6 45l1 1c-4 1-8 2-11 1l6-5c-3 0-5-1-7-3l7-2 1-24c2-4 4-8 4-11 8-10 12-20 13-31-3-23-2-46 1-68 3-6 7-11 12-15l25-5 6-3c15-14 20-31 14-51-2-2-2-3 0-4 0-1 1-2 2-1Z"/>
  <path style="opacity:.989" fill="#716e78" d="m1703 163-7 13-1 11c0 8 3 17 6 25 4 3 9 5 15 6 8 6 15 13 22 21l1 4 2 7a370 370 0 0 0 25 24l8 6 8 10 13 8 1 5 12 3 4 3 19 7c12 2 24 6 35 13l10 2 8 5c5 0 10 3 15 7l4 1c11 9 21 19 32 31 8 4 15 10 22 18l5 2c2 4 4 7 8 9a3630 3630 0 0 1 53 35c5 13 13 25 23 37 1 5 3 9 7 14 3 9 6 18 11 27 2 8 2 16-2 25-7 7-10 16-10 27-2 3-3 6-3 10-1 15-1 30 1 46l1 151 1 8 3 2c-4 5-6 11-5 18v30a512 512 0 0 1-4 172l-11 20c-4 21 0 40 14 57l11 19 24 29c2 5 6 10 10 15l37 4 39-3a9377 9377 0 0 1 75 3v4c-5-2-10-2-14-2-34-2-68-2-101 1l-31-4h-4c-4 3-6 7-8 12-41-43-80-86-118-131l-12-19v-8c27-29 52-59 73-91l10-21a22260 22260 0 0 0-256-280c-2-2-3-5-3-7a47620 47620 0 0 0-232-94c-12-4-24-8-36-10l-2-2a8930 8930 0 0 1-192-32l5-31c-1-4-3-6-5-7v-2l6 5c16 2 33 2 51 0l35-12 18-2c25-1 51 0 77 3a381 381 0 0 1 87 0c26-2 53-3 81-3 4-2 8-6 10-10l2-33c-1-32-2-63-1-94l5-42 10-23c-4-9-6-19-7-29 0-10 3-17 10-23Z"/>
  <path style="opacity:1" fill="#cdc2a9" d="m636 188-1 5c-9 10-21 15-34 16-7 2-11 6-13 12-3 25-4 51-3 78l-15 33c-3 9-3 18-1 28l-2 2c-2-16 0-31 6-45 5-6 9-13 10-20-1-25 0-49 2-73 1-8 5-14 13-17l22-5 16-14Z"/>
  <path style="opacity:1" fill="#48484e" d="M1321 61c-3 12-4 24-4 37l-5 13c0 11 1 22 4 33l2 1 1 21c-2 43-2 86 0 129l-2 41a1068 1068 0 0 1-2 81l-55 2a4074 4074 0 0 1-105-3h104l42 2 12-2 2-8 2-243c-1-16-3-31-7-46 0-7 2-13 4-19l4-36c0-2 1-3 3-3Z"/>
  <path style="opacity:1" fill="#a6a7a7" d="M1739 243c1 0 2 0 3 2l8 13a347 347 0 0 1-9-8l-2-7Z"/>
  <path style="opacity:1" fill="#bfc1be" d="M1774 280c2 0 5 0 8 2l10 7 15 15 6 3 30 7 6 5 39 15c5 2 10 5 15 10l-4-1c-5-4-10-7-15-7l-8-5-10-2c-11-7-23-11-35-13l-19-7-4-3-12-3-1-5-13-8-8-10Z"/>
  <path style="opacity:1" fill="#534f50" d="M964 154c-3 3-6 7-8 12l-2 47 3 40-4 46a47334 47334 0 0 1-2 2l4-49-4-36c2-17 3-33 3-50 1-6 4-10 10-12Z"/>
  <path style="opacity:1" fill="#c0c2be" d="M1903 344c8 5 16 12 24 20l5 1c6 7 14 14 23 19l8 9c8 5 16 11 23 19 9 4 17 10 25 19l-41-27c-4-2-6-5-8-9l-5-2c-7-8-14-14-22-18-11-12-21-22-32-31Z"/>
  <path style="opacity:.997" fill="#a69d99" d="M950 315v95l13 8 38 2c5 3 10 5 17 5 33-4 66-6 100-6 58 2 116 3 175 3l22 1c0 2 2 3 4 5 2 1 4 3 5 7a674 674 0 0 0-3 33l-93-16a2046 2046 0 0 1-74-9l-4-2-49-3a6741 6741 0 0 0-309 118c-4 4-9 6-14 6l-5 4c-20 8-39 18-57 29a135912 135912 0 0 0-108 186c-16 0-31 1-46 3l-8-3c-8-8-16-11-26-6-3 1-5 4-5 7l-8 7c-10 1-18-1-25-6h-6c-22 6-45 7-67 3l-35-13a533 533 0 0 1-32 13c-16 0-31-1-45-4a418 418 0 0 1 16-46c38-97 74-195 108-294 5-10 13-15 24-16l23-11c4 0 7-2 11-4l14-4 4-3 32-10 10-5 18-4 7 12c6 12 4 23-5 34-1 5 0 11 5 15l6 1 22-6c13-9 28-13 45-10 20 6 39 2 55-13l17-8c5-7 12-13 20-18l39-11c16-1 33 1 49 7l21 20c4 3 8 6 14 7h48c2-2 4-4 8-4l34-3v-93Z"/>
  <path style="opacity:1" fill="#938a86" d="M1055 74c0 7-2 12-7 17l-21 12c-9 2-17 5-24 9-11 7-18 16-22 28l-9 9c-4 0-7 2-8 5-6 2-9 6-10 12 0 17-1 33-3 50l4 36a1193 1193 0 0 0-3 66v92l15 6 28 1c7 3 15 4 24 5 34-3 68-5 102-5l195 4 3 5v2c-2-2-4-3-4-5l-22-1c-59 0-117-1-175-3-34 0-67 2-100 6-7 0-12-2-17-5l-38-2-13-8a1132 1132 0 0 0-1-120c5-25 5-49 0-72l3-55c4-6 9-11 15-15 5-2 10-5 13-9 2-9 7-16 13-23l18-12 15-3 19-10c4-5 8-11 10-17Z"/>
  <path style="opacity:.973" fill="#c9cbd0" d="M2038 425c4 1 7 4 10 8 24 45 49 89 76 133l9 8 11 16 58 112 5 14a1034 1034 0 0 0 10 106l-10-5c-4-6-9-11-14-15-3-11-9-18-18-22h-35c-14 2-28 4-41 4l-42-1-2-1-2-50V581c-1-11 1-21 7-30l1-6c5-7 7-14 6-21a241 241 0 0 1-14-34c-4-5-6-9-7-14-3-4-4-8-5-12l-5-3c-1-4-3-7-6-10-2-4-4-8-4-12l-7-5h8l8-9-1-2 4 2Z"/>
  <path style="opacity:1" fill="#a4a4a9" d="M2011 431c3 0 5 1 8 3l7 5c0 4 2 8 4 12 3 3 5 6 6 10l5 3c1 4 2 8 5 12-10-12-18-24-23-37-5-2-9-5-12-8Z"/>
  <path style="opacity:1" fill="#a1a1a8" d="M2064 517c2 1 3 4 3 7 1 7-1 14-6 21l-1 6c-6 9-8 19-7 30v151l2 50 2 1a882 882 0 0 0-1 1c-2-4-4-7-4-11-1-27 0-54 1-81l-3-91c0-11 0-22 2-32 0-11 3-20 10-27 4-9 4-17 2-25Z"/>
  <path style="opacity:.997" fill="#c8bebc" d="M608 781c-31 52-63 102-98 152-23 34-48 66-76 96l-19 24c-12 22-23 45-33 69a1194 1194 0 0 1-25 28l-9-1-103 2v-3a555 555 0 0 0 10-57 1928 1928 0 0 0 15-104l9-84 1-60 25-61c14 3 29 4 45 3a533 533 0 0 0 32-12l35 13c22 4 45 3 67-3h6c7 5 15 7 25 6l8-7c0-3 2-6 5-7 10-5 18-2 26 6l8 3c15-2 30-3 46-3Z"/>
  <path style="opacity:.998" fill="#6c6d76" d="M2193 802c5 4 10 9 14 15l10 5a6460 6460 0 0 0 3 40 13417 13417 0 0 1 14 171l6 51a2901 2901 0 0 0 3 64l-12 1-61-2-39 3-37-4c-4-5-8-10-10-15a483 483 0 0 1-35-48 66 66 0 0 1-14-57l10-20 3-38 4-17a512 512 0 0 0-2-117v-30c-1-7 1-13 5-18 36 0 73-1 110-4 9-1 16 2 22 10 1 3 3 7 6 10Z"/>
  <path style="opacity:1" fill="#808088" d="M2052 569c-2 10-2 21-2 32a1817 1817 0 0 1 2 172c0 4 2 7 4 11h43c13 0 27-2 41-4h35c9 4 15 11 18 22-3-3-5-7-6-10-6-8-13-11-22-10a962 962 0 0 1-113 2l-1-8-1-151c-2-16-2-31-1-46 0-4 1-7 3-10Z"/>
  <path style="opacity:1" fill="#161921" d="M884 1111a873 873 0 0 1 220 21c34 9 68 16 104 22 24 2 48 2 73-1l126-26a909 909 0 0 1 251-10 7183 7183 0 0 1 177 24l3 12v68l-5 4c-5 0-9 1-13 3-6 4-11 9-14 16l-5 12c-8 46-17 92-29 138-22 74-72 116-149 125l-21 2c-29 1-57 1-85-1-36-3-69-13-99-31a230 230 0 0 1-73-76c-25-45-44-91-59-138-11-27-30-38-59-32-11 4-20 10-27 20-12 19-21 40-27 62-12 28-25 56-40 84-36 56-86 91-150 105-45 8-90 9-135 1-35-8-67-22-94-44-7-6-13-12-18-19-10-11-17-23-22-36l-10-31c-12-46-21-91-29-137-6-15-16-25-31-28l-4-5c-1-25 0-50 2-74 2-5 5-8 10-9l50-4a1978 1978 0 0 1 182-17Zm-9 26c34-1 68 0 103 1 40 4 78 14 116 30l33 21c22 21 31 46 26 77-6 47-21 91-45 133-42 61-100 94-174 99-36 3-71 0-105-10-46-17-77-48-93-94-14-41-18-83-14-126 1-27 7-51 19-74 11-20 28-33 49-42 11-4 22-7 34-9l51-6Zm631 3h89c33 1 66 7 99 18 27 11 45 31 55 60 3 8 4 16 5 25 2 44 0 87-7 131l-10 35c-15 39-43 65-83 79-56 14-111 14-166 1-57-18-99-53-126-105-18-38-29-78-34-119-6-42 9-73 45-93 14-8 29-14 46-19 28-7 57-11 87-13Z"/>
  <path style="opacity:.97" fill="#a5a1a4" d="m2245 1154 13 136c1 13 4 26 9 39l7 11v7c-8 3-15 6-23 7l-26 4a566 566 0 0 1-85 16l-3-4a5078 5078 0 0 0-31-143c-3-20-7-39-12-58-3-3-6-5-7-8 2-5 4-9 8-12h4l31 4a886 886 0 0 1 115 1Z"/>
  <path style="opacity:1" fill="#fefaed" d="M245 1148v3a31445 31445 0 0 1 115-2c-34 51-64 105-92 161l-13 18-9 4-9-4c-5-8-10-16-13-24-2 4-3 8-3 13l-3 4c-1-5-2-9-1-14l3-33 2-2a1993 1993 0 0 1 23-124Z"/>
</svg>
