<?xml version="1.0" encoding="UTF-8"?>
<!DOCTYPE svg PUBLIC "-//W3C//DTD SVG 1.1//EN" "http://www.w3.org/Graphics/SVG/1.1/DTD/svg11.dtd">
<svg xmlns="http://www.w3.org/2000/svg" version="1.1" width="2319px" height="1728px" style="shape-rendering:geometricPrecision; text-rendering:geometricPrecision; image-rendering:optimizeQuality; fill-rule:evenodd; clip-rule:evenodd" xmlns:xlink="http://www.w3.org/1999/xlink">
<g><path style="opacity:1" fill="#808571" d="M 1214.5,7.5 C 1219.84,7.33398 1225.18,7.50065 1230.5,8C 1232.31,8.75684 1233.98,9.59018 1235.5,10.5C 1233.44,10.4828 1231.44,10.1495 1229.5,9.5C 1229.17,9.5 1228.83,9.5 1228.5,9.5C 1225.02,8.35673 1221.36,8.19007 1217.5,9C 1212.18,9.35935 1207.18,10.526 1202.5,12.5C 1202.17,12.5 1201.83,12.5 1201.5,12.5C 1196.5,12.5 1191.5,12.5 1186.5,12.5C 1195.89,11.1597 1205.22,9.493 1214.5,7.5 Z"/></g>
<g><path style="opacity:1" fill="#a3aa8d" d="M 1214.5,7.5 C 1205.22,9.493 1195.89,11.1597 1186.5,12.5C 1186.17,12.5 1185.83,12.5 1185.5,12.5C 1161.9,14.4905 1138.56,17.4905 1115.5,21.5C 1112.5,21.5 1109.5,21.5 1106.5,21.5C 1098.51,22.0231 1090.51,22.3564 1082.5,22.5C 1126.38,17.7499 1170.38,12.7499 1214.5,7.5 Z"/></g>
<g><path style="opacity:1" fill="#585a54" d="M 1228.5,9.5 C 1219.96,10.7331 1211.3,11.7331 1202.5,12.5C 1207.18,10.526 1212.18,9.35935 1217.5,9C 1221.36,8.19007 1225.02,8.35673 1228.5,9.5 Z"/></g>
<g><path style="opacity:1" fill="#3c3c42" d="M 1228.5,9.5 C 1228.83,9.5 1229.17,9.5 1229.5,9.5C 1236.17,14.6502 1243.83,17.3169 1252.5,17.5C 1254.15,17.6596 1255.49,18.3263 1256.5,19.5C 1257.1,21.578 1257.43,23.7446 1257.5,26C 1256.12,36.8042 1254.95,47.6375 1254,58.5C 1251.07,62.9741 1249.9,67.9741 1250.5,73.5C 1250.46,82.5246 1251.79,91.1913 1254.5,99.5C 1255.3,102.43 1255.63,105.43 1255.5,108.5C 1255.69,126.217 1255.03,143.884 1253.5,161.5C 1254.81,178 1254.81,194.5 1253.5,211C 1253.71,223.527 1254.38,236.027 1255.5,248.5C 1253.94,261.782 1252.94,275.115 1252.5,288.5C 1252.8,314.398 1252.96,340.398 1253,366.5C 1252.75,368.433 1252.25,370.266 1251.5,372C 1247.36,372.687 1243.19,373.187 1239,373.5C 1231.85,372.73 1224.69,372.397 1217.5,372.5C 1215.5,372.5 1213.5,372.5 1211.5,372.5C 1159.68,371.473 1107.68,370.473 1055.5,369.5C 1043,369.5 1030.66,369.833 1018.5,370.5C 1006.41,372.285 994.078,373.118 981.5,373C 977.867,373.149 974.534,373.982 971.5,375.5C 958.765,376.41 946.432,374.91 934.5,371C 926.167,370.667 917.833,370.333 909.5,370C 908.263,369.768 907.263,369.268 906.5,368.5C 902.451,367.532 898.618,365.865 895,363.5C 894.123,324.466 892.956,285.466 891.5,246.5C 891.5,245.833 891.5,245.167 891.5,244.5C 892.469,242.337 893.302,240.004 894,237.5C 894.776,215.805 894.276,194.139 892.5,172.5C 893.203,156.174 893.703,139.841 894,123.5C 896.501,114.332 902.335,108.499 911.5,106C 914.219,103.341 916.552,100.508 918.5,97.5C 920.432,94.6339 922.099,91.6339 923.5,88.5C 924.167,86.8333 924.833,85.1667 925.5,83.5C 929.609,80.2216 933.276,76.3882 936.5,72C 938.527,70.1207 940.86,68.954 943.5,68.5C 955.561,64.521 967.394,59.8544 979,54.5C 981.701,53.2462 983.534,51.2462 984.5,48.5C 986.419,45.6806 988.585,43.014 991,40.5C 991.49,39.2068 991.657,37.8734 991.5,36.5C 993.262,34.2995 995.596,33.1328 998.5,33C 1003.49,32.5007 1008.49,32.3341 1013.5,32.5C 1022.03,31.9886 1030.36,30.9886 1038.5,29.5C 1040.17,29.5 1041.83,29.5 1043.5,29.5C 1047.5,29.5 1051.5,29.5 1055.5,29.5C 1084.83,26.7146 1114.16,23.8812 1143.5,21C 1145.93,20.0977 1148.26,19.2644 1150.5,18.5C 1157.33,17.2687 1164.33,16.2687 1171.5,15.5C 1181.8,15.9038 1191.8,14.9038 1201.5,12.5C 1201.83,12.5 1202.17,12.5 1202.5,12.5C 1211.3,11.7331 1219.96,10.7331 1228.5,9.5 Z"/></g>
<g><path style="opacity:1" fill="#535551" d="M 1229.5,9.5 C 1231.44,10.1495 1233.44,10.4828 1235.5,10.5C 1239.97,12.4589 1244.63,14.1256 1249.5,15.5C 1250.5,16.1667 1251.5,16.8333 1252.5,17.5C 1243.83,17.3169 1236.17,14.6502 1229.5,9.5 Z"/></g>
<g><path style="opacity:1" fill="#545752" d="M 1185.5,12.5 C 1185.83,12.5 1186.17,12.5 1186.5,12.5C 1191.5,12.5 1196.5,12.5 1201.5,12.5C 1191.8,14.9038 1181.8,15.9038 1171.5,15.5C 1176.27,14.9756 1180.93,13.9756 1185.5,12.5 Z"/></g>
<g><path style="opacity:1" fill="#747969" d="M 1185.5,12.5 C 1180.93,13.9756 1176.27,14.9756 1171.5,15.5C 1164.33,16.2687 1157.33,17.2687 1150.5,18.5C 1138.69,19.1313 1127.02,20.1313 1115.5,21.5C 1138.56,17.4905 1161.9,14.4905 1185.5,12.5 Z"/></g>
<g><path style="opacity:1" fill="#92987f" d="M 1106.5,21.5 C 1102.98,22.3069 1099.31,22.9736 1095.5,23.5C 1085.81,23.8907 1076.15,24.5574 1066.5,25.5C 1065.17,25.5 1063.83,25.5 1062.5,25.5C 1062.5,25.1667 1062.5,24.8333 1062.5,24.5C 1068.98,23.4021 1075.65,22.7354 1082.5,22.5C 1090.51,22.3564 1098.51,22.0231 1106.5,21.5 Z"/></g>
<g><path style="opacity:1" fill="#606369" d="M 1259.5,20.5 C 1263.86,23.784 1268.86,25.4507 1274.5,25.5C 1277.49,25.9978 1280.49,26.4978 1283.5,27C 1293.61,32.0664 1304.28,35.733 1315.5,38C 1325.15,41.6623 1334.82,45.329 1344.5,49C 1346.13,49.4935 1347.8,49.6602 1349.5,49.5C 1350.06,50.7899 1351.06,51.6232 1352.5,52C 1357.31,52.4059 1361.31,54.4059 1364.5,58C 1371.69,58.4612 1378.36,60.4612 1384.5,64C 1392.87,65.2769 1400.87,67.6103 1408.5,71C 1414.21,72.012 1419.88,73.1786 1425.5,74.5C 1436.83,76.8333 1448.17,79.1667 1459.5,81.5C 1462.9,81.8511 1466.24,82.5178 1469.5,83.5C 1470.35,84.9663 1471.68,85.7996 1473.5,86C 1491.28,90.3977 1509.28,93.2311 1527.5,94.5C 1527.83,94.5 1528.17,94.5 1528.5,94.5C 1529.26,95.2679 1530.26,95.7679 1531.5,96C 1540.54,96.1923 1549.54,96.859 1558.5,98C 1568.16,98.4998 1577.83,98.6665 1587.5,98.5C 1593.97,99.4266 1600.3,100.927 1606.5,103C 1610.61,105.721 1614.94,107.887 1619.5,109.5C 1620.18,112.675 1622.18,114.175 1625.5,114C 1627.91,115.772 1629.91,117.939 1631.5,120.5C 1632.32,121.386 1633.32,121.719 1634.5,121.5C 1633.53,128.132 1632.53,134.798 1631.5,141.5C 1632.31,149.062 1633.98,156.395 1636.5,163.5C 1636.46,166.181 1637.13,168.681 1638.5,171C 1637.59,172.406 1636.92,173.906 1636.5,175.5C 1632.11,180.278 1629.28,185.945 1628,192.5C 1622.04,234.835 1620.87,277.335 1624.5,320C 1622.99,333.783 1622.16,347.616 1622,361.5C 1619.75,366.712 1615.92,370.212 1610.5,372C 1597,372.5 1583.5,372.333 1570,371.5C 1557.66,372.106 1545.33,372.773 1533,373.5C 1518.16,372.533 1503.33,371.533 1488.5,370.5C 1473.67,371.537 1458.83,372.537 1444,373.5C 1431.61,373.161 1419.28,372.161 1407,370.5C 1388.49,371.122 1369.99,371.956 1351.5,373C 1339.42,377.77 1327.09,381.77 1314.5,385C 1304.66,385.437 1294.83,385.937 1285,386.5C 1278.47,385.652 1271.97,385.486 1265.5,386C 1262.31,384.305 1259.97,381.805 1258.5,378.5C 1257.38,377.37 1256.04,376.703 1254.5,376.5C 1230.83,376.221 1207.17,375.887 1183.5,375.5C 1194.65,374.505 1205.99,374.172 1217.5,374.5C 1217.83,374.5 1218.17,374.5 1218.5,374.5C 1230.33,375.66 1242.33,375.826 1254.5,375C 1256.61,373.016 1257.78,370.516 1258,367.5C 1258.68,341.162 1258.51,314.828 1257.5,288.5C 1259.5,254.369 1259.83,220.202 1258.5,186C 1258.36,164.303 1259.02,142.636 1260.5,121C 1260.33,116.833 1260.17,112.667 1260,108.5C 1259.14,102.249 1257.47,96.2491 1255,90.5C 1254.09,85.8792 1253.59,81.2125 1253.5,76.5C 1256.12,62.8853 1258.29,49.2187 1260,35.5C 1260.73,30.4477 1260.56,25.4477 1259.5,20.5 Z"/></g>
<g><path style="opacity:1" fill="#767a74" d="M 1249.5,15.5 C 1251.93,15.523 1254.26,16.023 1256.5,17C 1262.56,19.9513 1268.56,22.7846 1274.5,25.5C 1268.86,25.4507 1263.86,23.784 1259.5,20.5C 1258.61,19.8902 1257.61,19.5569 1256.5,19.5C 1255.49,18.3263 1254.15,17.6596 1252.5,17.5C 1251.5,16.8333 1250.5,16.1667 1249.5,15.5 Z"/></g>
<g><path style="opacity:1" fill="#474849" d="M 1150.5,18.5 C 1148.26,19.2644 1145.93,20.0977 1143.5,21C 1114.16,23.8812 1084.83,26.7146 1055.5,29.5C 1068.76,27.1067 1082.09,25.1067 1095.5,23.5C 1099.31,22.9736 1102.98,22.3069 1106.5,21.5C 1109.5,21.5 1112.5,21.5 1115.5,21.5C 1127.02,20.1313 1138.69,19.1313 1150.5,18.5 Z"/></g>
<g><path style="opacity:1" fill="#c5b7a8" d="M 992.5,31.5 C 991.167,32.9335 989.667,34.2668 988,35.5C 986.943,39.9419 985.11,43.9419 982.5,47.5C 977.575,50.7948 972.242,53.2948 966.5,55C 965.619,55.7083 964.953,56.5416 964.5,57.5C 950.354,59.3228 938.187,65.3228 928,75.5C 924.754,80.2123 922.254,85.2123 920.5,90.5C 918.734,92.7706 916.734,94.9373 914.5,97C 911.899,97.9203 909.232,98.587 906.5,99C 901.544,101.79 897.044,105.29 893,109.5C 891.249,112.252 890.416,115.252 890.5,118.5C 889.95,136.846 888.95,155.179 887.5,173.5C 888.037,179.389 889.037,185.056 890.5,190.5C 890.517,192.565 890.85,194.565 891.5,196.5C 891.953,212.932 890.953,229.265 888.5,245.5C 887.167,253.833 887.167,262.167 888.5,270.5C 888.5,301.5 888.5,332.5 888.5,363.5C 886.265,363.205 884.265,363.539 882.5,364.5C 873.157,365.155 863.824,365.988 854.5,367C 851.312,367.449 848.645,368.782 846.5,371C 830.5,371.667 814.5,371.667 798.5,371C 793.275,369.721 788.609,367.388 784.5,364C 778.41,356.24 771.41,349.574 763.5,344C 747.665,338.293 731.332,335.96 714.5,337C 706.657,339.585 698.657,341.585 690.5,343C 689.944,343.383 689.611,343.883 689.5,344.5C 687.302,344.12 685.635,344.787 684.5,346.5C 681.478,346.804 678.478,347.304 675.5,348C 664.042,357.897 651.709,366.564 638.5,374C 636.093,376.183 633.76,378.35 631.5,380.5C 622.25,385.916 612.25,388.916 601.5,389.5C 597.833,389.333 594.167,389.167 590.5,389C 571.919,383.542 554.586,386.208 538.5,397C 533.167,398.667 527.833,400.333 522.5,402C 518.5,402.667 514.5,402.667 510.5,402C 509.837,400.482 508.837,399.315 507.5,398.5C 505.69,394.69 505.19,390.69 506,386.5C 515.258,376.386 516.924,365.053 511,352.5C 509.281,349.712 507.115,347.379 504.5,345.5C 504.158,344.662 503.492,344.328 502.5,344.5C 526.168,337.334 549.835,329.834 573.5,322C 578.62,319.94 583.62,317.607 588.5,315C 592.5,312 592.5,309 588.5,306C 571.7,297.752 554.367,296.419 536.5,302C 526.56,305.81 516.56,309.31 506.5,312.5C 505.929,302.296 507.096,292.296 510,282.5C 513.193,274.961 516.86,267.628 521,260.5C 522.408,256.943 523.408,253.276 524,249.5C 524.165,240.147 523.665,230.814 522.5,221.5C 523.482,206.147 524.649,190.813 526,175.5C 529.274,170.226 533.774,166.392 539.5,164C 560.13,162.947 573.963,152.781 581,133.5C 582.156,122.967 582.656,112.467 582.5,102C 649.171,85.9425 716.171,71.2758 783.5,58C 801.26,49.228 818.26,39.228 834.5,28C 836.025,26.9914 837.692,26.4914 839.5,26.5C 838.756,33.3577 837.756,40.191 836.5,47C 836.534,50.4926 838.034,52.9926 841,54.5C 844.453,52.0505 847.62,49.2171 850.5,46C 895.179,42.1016 939.846,38.1016 984.5,34C 987.279,33.439 989.946,32.6056 992.5,31.5 Z"/></g>
<g><path style="opacity:1" fill="#a4ab8d" d="M 1062.5,24.5 C 1062.5,24.8333 1062.5,25.1667 1062.5,25.5C 1051.62,26.2088 1040.95,27.5421 1030.5,29.5C 1029.5,29.5 1028.5,29.5 1027.5,29.5C 1017.44,29.3467 1007.44,30.0134 997.5,31.5C 995.833,31.5 994.167,31.5 992.5,31.5C 1015.62,28.4512 1038.95,26.1179 1062.5,24.5 Z"/></g>
<g><path style="opacity:1" fill="#5a5d56" d="M 1095.5,23.5 C 1082.09,25.1067 1068.76,27.1067 1055.5,29.5C 1051.5,29.5 1047.5,29.5 1043.5,29.5C 1051.17,28.1667 1058.83,26.8333 1066.5,25.5C 1076.15,24.5574 1085.81,23.8907 1095.5,23.5 Z"/></g>
<g><path style="opacity:1" fill="#7a7e6d" d="M 1062.5,25.5 C 1063.83,25.5 1065.17,25.5 1066.5,25.5C 1058.83,26.8333 1051.17,28.1667 1043.5,29.5C 1041.83,29.5 1040.17,29.5 1038.5,29.5C 1035.83,29.5 1033.17,29.5 1030.5,29.5C 1040.95,27.5421 1051.62,26.2088 1062.5,25.5 Z"/></g>
<g><path style="opacity:1" fill="#575a54" d="M 1027.5,29.5 C 1028.5,29.5 1029.5,29.5 1030.5,29.5C 1033.17,29.5 1035.83,29.5 1038.5,29.5C 1030.36,30.9886 1022.03,31.9886 1013.5,32.5C 1017.91,30.8616 1022.58,29.8616 1027.5,29.5 Z"/></g>
<g><path style="opacity:1" fill="#777b6b" d="M 1027.5,29.5 C 1022.58,29.8616 1017.91,30.8616 1013.5,32.5C 1008.49,32.3341 1003.49,32.5007 998.5,33C 995.596,33.1328 993.262,34.2995 991.5,36.5C 992.394,33.455 994.394,31.7884 997.5,31.5C 1007.44,30.0134 1017.44,29.3467 1027.5,29.5 Z"/></g>
<g><path style="opacity:1" fill="#9f978a" d="M 992.5,31.5 C 994.167,31.5 995.833,31.5 997.5,31.5C 994.394,31.7884 992.394,33.455 991.5,36.5C 988.906,40.4347 985.906,44.1014 982.5,47.5C 985.11,43.9419 986.943,39.9419 988,35.5C 989.667,34.2668 991.167,32.9335 992.5,31.5 Z"/></g>
<g><path style="opacity:1" fill="#a2a990" d="M 1214.5,7.5 C 1219.98,6.3483 1225.65,6.18163 1231.5,7C 1292.96,29.4329 1354.96,49.9329 1417.5,68.5C 1413.37,68.428 1409.37,67.7613 1405.5,66.5C 1386.57,61.4781 1367.91,55.8114 1349.5,49.5C 1347.8,49.6602 1346.13,49.4935 1344.5,49C 1334.82,45.329 1325.15,41.6623 1315.5,38C 1304.28,35.733 1293.61,32.0664 1283.5,27C 1280.49,26.4978 1277.49,25.9978 1274.5,25.5C 1268.56,22.7846 1262.56,19.9513 1256.5,17C 1254.26,16.023 1251.93,15.523 1249.5,15.5C 1244.63,14.1256 1239.97,12.4589 1235.5,10.5C 1233.98,9.59018 1232.31,8.75684 1230.5,8C 1225.18,7.50065 1219.84,7.33398 1214.5,7.5 Z"/></g>
<g><path style="opacity:1" fill="#7a736d" d="M 991.5,36.5 C 991.657,37.8734 991.49,39.2068 991,40.5C 988.585,43.014 986.419,45.6806 984.5,48.5C 979.799,51.2701 974.966,53.9368 970,56.5C 968.234,57.2335 966.401,57.5668 964.5,57.5C 964.953,56.5416 965.619,55.7083 966.5,55C 972.242,53.2948 977.575,50.7948 982.5,47.5C 985.906,44.1014 988.906,40.4347 991.5,36.5 Z"/></g>
<g><path style="opacity:1" fill="#4c4a4c" d="M 984.5,48.5 C 983.534,51.2462 981.701,53.2462 979,54.5C 967.394,59.8544 955.561,64.521 943.5,68.5C 943.833,67.8333 944.167,67.1667 944.5,66.5C 944.47,65.5028 944.97,64.8361 946,64.5C 952.188,61.924 958.355,59.5907 964.5,57.5C 966.401,57.5668 968.234,57.2335 970,56.5C 974.966,53.9368 979.799,51.2701 984.5,48.5 Z"/></g>
<g><path style="opacity:1" fill="#6b6e6f" d="M 1349.5,49.5 C 1367.91,55.8114 1386.57,61.4781 1405.5,66.5C 1412.35,68.6821 1419.02,71.3488 1425.5,74.5C 1419.88,73.1786 1414.21,72.012 1408.5,71C 1400.87,67.6103 1392.87,65.2769 1384.5,64C 1378.36,60.4612 1371.69,58.4612 1364.5,58C 1361.31,54.4059 1357.31,52.4059 1352.5,52C 1351.06,51.6232 1350.06,50.7899 1349.5,49.5 Z"/></g>
<g><path style="opacity:1" fill="#67615f" d="M 944.5,66.5 C 944.167,67.1667 943.833,67.8333 943.5,68.5C 940.86,68.954 938.527,70.1207 936.5,72C 933.276,76.3882 929.609,80.2216 925.5,83.5C 926.944,79.4556 929.278,75.9556 932.5,73C 935.524,71.4866 938.191,69.4866 940.5,67C 941.793,66.51 943.127,66.3433 944.5,66.5 Z"/></g>
<g><path style="opacity:1" fill="#a5ac93" d="M 1417.5,68.5 C 1422.44,69.2313 1427.11,70.5646 1431.5,72.5C 1427.84,72.0482 1424.17,71.5482 1420.5,71C 1419.43,70.1482 1418.43,69.3149 1417.5,68.5 Z"/></g>
<g><path style="opacity:1" fill="#82887d" d="M 1405.5,66.5 C 1409.37,67.7613 1413.37,68.428 1417.5,68.5C 1418.43,69.3149 1419.43,70.1482 1420.5,71C 1424.17,71.5482 1427.84,72.0482 1431.5,72.5C 1440.98,75.1063 1450.32,78.1063 1459.5,81.5C 1448.17,79.1667 1436.83,76.8333 1425.5,74.5C 1419.02,71.3488 1412.35,68.6821 1405.5,66.5 Z"/></g>
<g><path style="opacity:1" fill="#998f85" d="M 964.5,57.5 C 958.355,59.5907 952.188,61.924 946,64.5C 944.97,64.8361 944.47,65.5028 944.5,66.5C 943.127,66.3433 941.793,66.51 940.5,67C 938.191,69.4866 935.524,71.4866 932.5,73C 929.278,75.9556 926.944,79.4556 925.5,83.5C 924.833,85.1667 924.167,86.8333 923.5,88.5C 922.5,89.1667 921.5,89.8333 920.5,90.5C 922.254,85.2123 924.754,80.2123 928,75.5C 938.187,65.3228 950.354,59.3228 964.5,57.5 Z"/></g>
<g><path style="opacity:1" fill="#797e77" d="M 1469.5,83.5 C 1488.08,86.9856 1506.75,90.1522 1525.5,93C 1526.42,93.2784 1527.08,93.7784 1527.5,94.5C 1509.28,93.2311 1491.28,90.3977 1473.5,86C 1471.68,85.7996 1470.35,84.9663 1469.5,83.5 Z"/></g>
<g><path style="opacity:1" fill="#a3aa91" d="M 1431.5,72.5 C 1458.63,79.2815 1485.96,85.1149 1513.5,90C 1539.73,93.4508 1566.06,95.7842 1592.5,97C 1607.13,100.028 1620.13,106.195 1631.5,115.5C 1627.54,113.521 1623.54,111.521 1619.5,109.5C 1614.94,107.887 1610.61,105.721 1606.5,103C 1600.3,100.927 1593.97,99.4266 1587.5,98.5C 1568.01,96.6353 1548.34,95.302 1528.5,94.5C 1528.17,94.5 1527.83,94.5 1527.5,94.5C 1527.08,93.7784 1526.42,93.2784 1525.5,93C 1506.75,90.1522 1488.08,86.9856 1469.5,83.5C 1466.24,82.5178 1462.9,81.8511 1459.5,81.5C 1450.32,78.1063 1440.98,75.1063 1431.5,72.5 Z"/></g>
<g><path style="opacity:1" fill="#80857b" d="M 1528.5,94.5 C 1548.34,95.302 1568.01,96.6353 1587.5,98.5C 1577.83,98.6665 1568.16,98.4998 1558.5,98C 1549.54,96.859 1540.54,96.1923 1531.5,96C 1530.26,95.7679 1529.26,95.2679 1528.5,94.5 Z"/></g>
<g><path style="opacity:1" fill="#b1a598" d="M 920.5,90.5 C 918.471,95.0361 915.471,98.8695 911.5,102C 909.5,102.667 907.5,103.333 905.5,104C 900.237,107.76 895.904,112.26 892.5,117.5C 891.833,117.833 891.167,118.167 890.5,118.5C 890.416,115.252 891.249,112.252 893,109.5C 897.044,105.29 901.544,101.79 906.5,99C 909.232,98.587 911.899,97.9203 914.5,97C 916.734,94.9373 918.734,92.7706 920.5,90.5 Z"/></g>
<g><path style="opacity:1" fill="#e7e6ac" d="M 573.5,103.5 C 575.144,103.286 576.644,103.62 578,104.5C 584.095,138.164 570.262,157.331 536.5,162C 530,164.5 525.5,169 523,175.5C 521.42,190.629 520.253,205.795 519.5,221C 520.1,230.187 520.6,239.354 521,248.5C 520.461,251.529 519.794,254.529 519,257.5C 514.931,265.539 510.931,273.539 507,281.5C 504.226,291.634 502.893,301.967 503,312.5C 501.334,315.379 498.834,316.212 495.5,315C 493.667,314.5 492.5,313.333 492,311.5C 491.333,306.167 491.333,300.833 492,295.5C 498.383,267.254 504.383,238.921 510,210.5C 511.506,189.808 513.173,169.141 515,148.5C 520.744,134.42 529.244,122.253 540.5,112C 551.584,108.98 562.584,106.147 573.5,103.5 Z"/></g>
<g><path style="opacity:1" fill="#716a66" d="M 923.5,88.5 C 922.099,91.6339 920.432,94.6339 918.5,97.5C 915.52,99.5833 912.853,102.083 910.5,105C 902.948,107.022 897.448,111.522 894,118.5C 892.75,133.614 891.583,148.614 890.5,163.5C 890.333,149.829 890.5,136.163 891,122.5C 891.608,120.846 892.108,119.179 892.5,117.5C 895.904,112.26 900.237,107.76 905.5,104C 907.5,103.333 909.5,102.667 911.5,102C 915.471,98.8695 918.471,95.0361 920.5,90.5C 921.5,89.8333 922.5,89.1667 923.5,88.5 Z"/></g>
<g><path style="opacity:1" fill="#9b9187" d="M 892.5,117.5 C 892.108,119.179 891.608,120.846 891,122.5C 890.5,136.163 890.333,149.829 890.5,163.5C 889.602,172.431 889.602,181.431 890.5,190.5C 889.037,185.056 888.037,179.389 887.5,173.5C 888.95,155.179 889.95,136.846 890.5,118.5C 891.167,118.167 891.833,117.833 892.5,117.5 Z"/></g>
<g><path style="opacity:1" fill="#e5e9e0" d="M 1646.5,126.5 C 1647.91,128.417 1649.58,130.25 1651.5,132C 1660.78,138.281 1669.78,144.948 1678.5,152C 1677.94,153.566 1678.61,154.899 1680.5,156C 1755.74,214.583 1829.74,274.583 1902.5,336C 1924.79,352.056 1946.96,368.223 1969,384.5C 1969.67,383.748 1970.5,383.414 1971.5,383.5C 1969.34,387.001 1966.34,389.334 1962.5,390.5C 1955.5,386.113 1948.83,381.28 1942.5,376C 1941.21,375.51 1939.87,375.343 1938.5,375.5C 1933.74,372.065 1928.74,369.065 1923.5,366.5C 1918.55,361.883 1913.55,357.216 1908.5,352.5C 1906.42,350.918 1904.09,349.918 1901.5,349.5C 1893.88,345.396 1887.21,339.896 1881.5,333C 1879.85,332.392 1878.18,331.892 1876.5,331.5C 1866.08,319.415 1854.42,308.748 1841.5,299.5C 1839.91,298.017 1838.24,296.517 1836.5,295C 1819.38,286.685 1801.72,279.851 1783.5,274.5C 1782.83,274.5 1782.17,274.5 1781.5,274.5C 1779.44,273.628 1777.44,272.462 1775.5,271C 1770.4,270.129 1765.4,268.962 1760.5,267.5C 1757.12,264.898 1753.45,262.731 1749.5,261C 1748.21,260.51 1746.87,260.343 1745.5,260.5C 1742.11,256.925 1738.11,254.258 1733.5,252.5C 1729.47,246.826 1724.13,243.16 1717.5,241.5C 1715.83,239.5 1714.17,237.5 1712.5,235.5C 1705.54,228.538 1698.88,221.204 1692.5,213.5C 1691.31,212.571 1689.98,212.238 1688.5,212.5C 1686.88,209.21 1684.54,206.543 1681.5,204.5C 1680.7,202.034 1679.37,200.034 1677.5,198.5C 1677.66,197.127 1677.49,195.793 1677,194.5C 1671.91,188.902 1666.41,183.902 1660.5,179.5C 1659.5,178.167 1658.5,176.833 1657.5,175.5C 1657.05,174.542 1656.38,173.708 1655.5,173C 1650.29,171.88 1645.62,169.713 1641.5,166.5C 1640.84,160.872 1639.34,155.539 1637,150.5C 1636.5,144.843 1636.33,139.176 1636.5,133.5C 1637.51,130.156 1638.51,126.823 1639.5,123.5C 1642.31,122.894 1644.65,123.894 1646.5,126.5 Z"/></g>
<g><path style="opacity:0.933" fill="#b5bab0" d="M 1631.5,115.5 C 1635.87,116.536 1638.54,119.203 1639.5,123.5C 1638.51,126.823 1637.51,130.156 1636.5,133.5C 1635.51,139.31 1635.18,145.31 1635.5,151.5C 1632.59,141.763 1633.59,132.263 1638.5,123C 1636.07,120.483 1633.74,117.983 1631.5,115.5 Z"/></g>
<g><path style="opacity:1" fill="#818484" d="M 1619.5,109.5 C 1623.54,111.521 1627.54,113.521 1631.5,115.5C 1633.74,117.983 1636.07,120.483 1638.5,123C 1633.59,132.263 1632.59,141.763 1635.5,151.5C 1636.26,157.002 1637.59,162.335 1639.5,167.5C 1638.5,166.167 1637.5,164.833 1636.5,163.5C 1633.98,156.395 1632.31,149.062 1631.5,141.5C 1632.53,134.798 1633.53,128.132 1634.5,121.5C 1633.32,121.719 1632.32,121.386 1631.5,120.5C 1629.91,117.939 1627.91,115.772 1625.5,114C 1622.18,114.175 1620.18,112.675 1619.5,109.5 Z"/></g>
<g><path style="opacity:1" fill="#4e4b4e" d="M 918.5,97.5 C 916.552,100.508 914.219,103.341 911.5,106C 902.335,108.499 896.501,114.332 894,123.5C 893.703,139.841 893.203,156.174 892.5,172.5C 894.276,194.139 894.776,215.805 894,237.5C 893.302,240.004 892.469,242.337 891.5,244.5C 891.5,241.167 891.5,237.833 891.5,234.5C 892.222,234.082 892.722,233.416 893,232.5C 893.826,220.659 893.659,208.993 892.5,197.5C 892.5,196.833 892.167,196.5 891.5,196.5C 890.85,194.565 890.517,192.565 890.5,190.5C 889.602,181.431 889.602,172.431 890.5,163.5C 891.583,148.614 892.75,133.614 894,118.5C 897.448,111.522 902.948,107.022 910.5,105C 912.853,102.083 915.52,99.5833 918.5,97.5 Z"/></g>
<g><path style="opacity:1" fill="#cacdc7" d="M 1636.5,133.5 C 1636.33,139.176 1636.5,144.843 1637,150.5C 1639.34,155.539 1640.84,160.872 1641.5,166.5C 1645.62,169.713 1650.29,171.88 1655.5,173C 1656.38,173.708 1657.05,174.542 1657.5,175.5C 1651.21,173.407 1645.21,170.74 1639.5,167.5C 1637.59,162.335 1636.26,157.002 1635.5,151.5C 1635.18,145.31 1635.51,139.31 1636.5,133.5 Z"/></g>
<g><path style="opacity:1" fill="#4f5156" d="M 1254.5,99.5 C 1255.65,99.7911 1256.32,100.624 1256.5,102C 1258,109.582 1258.67,117.249 1258.5,125C 1257.75,172.829 1257.25,220.663 1257,268.5C 1255.88,274.228 1255.38,280.061 1255.5,286C 1256.51,312.495 1256.67,338.995 1256,365.5C 1255.61,368.104 1254.78,370.438 1253.5,372.5C 1253.55,369.432 1254.05,366.432 1255,363.5C 1255.63,337.829 1255.46,312.163 1254.5,286.5C 1255.27,273.345 1255.94,260.178 1256.5,247C 1255.63,200.666 1255.3,154.5 1255.5,108.5C 1255.63,105.43 1255.3,102.43 1254.5,99.5 Z"/></g>
<g><path style="opacity:1" fill="#9c9d9e" d="M 1639.5,167.5 C 1645.21,170.74 1651.21,173.407 1657.5,175.5C 1658.5,176.833 1659.5,178.167 1660.5,179.5C 1653.08,176.956 1646.08,173.622 1639.5,169.5C 1639.5,168.833 1639.5,168.167 1639.5,167.5 Z"/></g>
<g><path style="opacity:1" fill="#726f79" d="M 1639.5,169.5 C 1646.08,173.622 1653.08,176.956 1660.5,179.5C 1666.59,185.584 1672.26,191.918 1677.5,198.5C 1679.37,200.034 1680.7,202.034 1681.5,204.5C 1681.34,205.873 1681.51,207.207 1682,208.5C 1689.04,216.038 1696.54,223.038 1704.5,229.5C 1706.44,232.471 1709.11,234.471 1712.5,235.5C 1714.17,237.5 1715.83,239.5 1717.5,241.5C 1718.61,242.885 1719.61,244.385 1720.5,246C 1723.87,247.455 1726.87,249.455 1729.5,252C 1730.79,252.49 1732.13,252.657 1733.5,252.5C 1736.56,256.688 1740.56,259.354 1745.5,260.5C 1749.48,264.765 1754.48,267.098 1760.5,267.5C 1766.87,271.515 1773.87,273.848 1781.5,274.5C 1782.17,274.5 1782.83,274.5 1783.5,274.5C 1790.43,277.967 1797.43,281.467 1804.5,285C 1807.83,285.667 1811.17,286.333 1814.5,287C 1816.83,289.167 1819.5,290.834 1822.5,292C 1828.39,292.447 1833.39,294.78 1837.5,299C 1838.79,299.49 1840.13,299.657 1841.5,299.5C 1852.64,308.97 1863.31,319.304 1873.5,330.5C 1874.42,331.127 1875.42,331.461 1876.5,331.5C 1883.21,336.705 1889.55,342.539 1895.5,349C 1898.46,349.687 1900.79,351.187 1902.5,353.5C 1906.13,358.122 1910.46,362.122 1915.5,365.5C 1916.74,366.246 1918.07,366.579 1919.5,366.5C 1920.17,366.5 1920.83,366.5 1921.5,366.5C 1923.3,369.098 1925.64,371.265 1928.5,373C 1935.67,377.355 1942.67,381.855 1949.5,386.5C 1952.82,390.069 1956.82,392.736 1961.5,394.5C 1967.19,408.162 1974.86,420.495 1984.5,431.5C 1985.93,433.558 1986.6,435.892 1986.5,438.5C 1989.39,443.686 1991.22,449.353 1992,455.5C 1994.79,459.429 1997.29,463.429 1999.5,467.5C 2000.89,468.899 2001.89,470.566 2002.5,472.5C 2006.3,484.934 2003.8,495.934 1995,505.5C 1993.21,509.716 1991.71,514.049 1990.5,518.5C 1988.98,523.586 1988.15,528.919 1988,534.5C 1987.14,549.866 1987.47,565.199 1989,580.5C 1989.33,630.833 1989.67,681.167 1990,731.5C 1990.33,734.167 1990.67,736.833 1991,739.5C 1991.71,740.381 1992.54,741.047 1993.5,741.5C 1989.76,746.97 1988.1,753.137 1988.5,760C 1989.65,770.12 1989.65,780.12 1988.5,790C 1990.61,800.041 1991.78,810.208 1992,820.5C 1994.08,849.216 1993.74,877.883 1991,906.5C 1989.05,912.011 1987.72,917.677 1987,923.5C 1986.11,936.175 1985.11,948.842 1984,961.5C 1981.04,968.377 1977.71,975.044 1974,981.5C 1969.73,1002.77 1974.4,1021.77 1988,1038.5C 1991.41,1045 1995.08,1051.33 1999,1057.5C 2006.56,1067.4 2014.56,1077.07 2023,1086.5C 2025.4,1092.22 2028.57,1097.38 2032.5,1102C 2044.78,1103.74 2057.11,1104.91 2069.5,1105.5C 2082.66,1104.33 2095.83,1103.33 2109,1102.5C 2131.17,1103.21 2153.33,1103.88 2175.5,1104.5C 2175.5,1098.5 2175.5,1092.5 2175.5,1086.5C 2176.49,1092.64 2176.82,1098.98 2176.5,1105.5C 2156.83,1105.5 2137.17,1105.5 2117.5,1105.5C 2113.85,1104.83 2110.02,1104.5 2106,1104.5C 2093.33,1105.13 2080.66,1105.79 2068,1106.5C 2057.71,1106.34 2047.54,1105.34 2037.5,1103.5C 2035.83,1103.67 2034.17,1103.83 2032.5,1104C 2029.8,1109.04 2026.63,1109.54 2023,1105.5C 2021.5,1102.98 2020,1100.48 2018.5,1098C 2017.21,1097.51 2015.87,1097.34 2014.5,1097.5C 2003.53,1085.53 1992.53,1073.53 1981.5,1061.5C 1978.09,1055.03 1973.92,1049.03 1969,1043.5C 1967.16,1041.83 1964.99,1040.83 1962.5,1040.5C 1958.79,1037.42 1955.79,1033.76 1953.5,1029.5C 1950.29,1025.44 1947.29,1021.1 1944.5,1016.5C 1943.68,1015.61 1942.68,1015.28 1941.5,1015.5C 1937.98,1009.13 1933.81,1003.13 1929,997.5C 1926.63,996.871 1924.46,995.871 1922.5,994.5C 1916.86,987.345 1911.36,980.012 1906,972.5C 1905.24,969.059 1903.74,966.059 1901.5,963.5C 1901.35,962.448 1901.52,961.448 1902,960.5C 1919.17,943.743 1934.67,925.743 1948.5,906.5C 1949.08,904.251 1950.41,902.585 1952.5,901.5C 1956.66,897.999 1959.66,893.665 1961.5,888.5C 1966.51,883.311 1971.01,877.644 1975,871.5C 1977.16,866.509 1979.33,861.509 1981.5,856.5C 1983.08,852.289 1983.58,847.956 1983,843.5C 1975.63,835.629 1968.46,827.629 1961.5,819.5C 1958.77,814.972 1955.77,810.638 1952.5,806.5C 1951.38,805.37 1950.04,804.703 1948.5,804.5C 1940.18,795.675 1931.68,787.008 1923,778.5C 1920.72,773.884 1917.38,770.217 1913,767.5C 1906.62,759.629 1900.12,751.963 1893.5,744.5C 1889.9,739.225 1885.9,734.225 1881.5,729.5C 1879.08,727.066 1876.41,725.066 1873.5,723.5C 1858.87,707.198 1844.2,690.865 1829.5,674.5C 1822.89,662.56 1813.89,652.893 1802.5,645.5C 1796.87,634.538 1788.87,625.872 1778.5,619.5C 1768.09,609.425 1758.42,598.758 1749.5,587.5C 1745.57,578.237 1739.23,571.237 1730.5,566.5C 1726.92,563.09 1723.92,559.256 1721.5,555C 1707.4,549.471 1693.4,543.638 1679.5,537.5C 1676.67,535.25 1673.67,533.25 1670.5,531.5C 1667.91,530.52 1665.25,530.187 1662.5,530.5C 1657.68,527.508 1652.84,524.508 1648,521.5C 1641.04,519.105 1634.2,516.271 1627.5,513C 1623.51,512.055 1619.51,511.222 1615.5,510.5C 1614.13,510.657 1612.79,510.49 1611.5,510C 1604.56,506.74 1597.56,503.573 1590.5,500.5C 1587.95,499.001 1585.29,497.501 1582.5,496C 1579.55,494.869 1576.55,494.036 1573.5,493.5C 1546.96,482.428 1519.96,472.095 1492.5,462.5C 1484.05,458.445 1475.38,454.612 1466.5,451C 1460.55,449.765 1454.55,448.932 1448.5,448.5C 1442.13,448.512 1435.8,448.012 1429.5,447C 1427.38,446.74 1425.72,445.74 1424.5,444C 1413.61,443.097 1402.95,441.597 1392.5,439.5C 1390.59,438.518 1388.59,437.518 1386.5,436.5C 1365.19,433.424 1343.85,430.257 1322.5,427C 1320.19,425.133 1317.53,424.133 1314.5,424C 1305.87,422.799 1297.21,422.299 1288.5,422.5C 1288.08,421.778 1287.42,421.278 1286.5,421C 1278.11,419.579 1269.78,418.079 1261.5,416.5C 1261.75,408.328 1263.08,400.328 1265.5,392.5C 1265.31,391.416 1264.98,390.416 1264.5,389.5C 1281.47,389.628 1298.47,389.128 1315.5,388C 1321.09,386.346 1326.76,385.013 1332.5,384C 1338.7,380.238 1345.36,377.572 1352.5,376C 1383.01,373.899 1413.51,374.065 1444,376.5C 1458.55,376.185 1473.05,375.185 1487.5,373.5C 1501.96,375.025 1516.46,376.025 1531,376.5C 1558.16,375.811 1585.33,375.311 1612.5,375C 1624.47,369.323 1628.81,359.99 1625.5,347C 1628.24,327.811 1628.07,308.644 1625,289.5C 1624.33,273.167 1624.33,256.833 1625,240.5C 1627.07,223.462 1629.41,206.462 1632,189.5C 1634.22,184.276 1636.89,179.276 1640,174.5C 1640.38,172.803 1640.22,171.137 1639.5,169.5 Z"/></g>
<g><path style="opacity:1" fill="#66676e" d="M 1636.5,175.5 C 1633.53,181.238 1631.03,187.238 1629,193.5C 1627.66,207.53 1626,221.53 1624,235.5C 1623.31,266.866 1623.65,298.199 1625,329.5C 1623.82,340.458 1623.15,351.458 1623,362.5C 1620.83,367.333 1617.33,370.833 1612.5,373C 1585.47,373.098 1558.47,373.931 1531.5,375.5C 1517.36,373.95 1503.19,372.95 1489,372.5C 1474.27,372.651 1459.61,373.651 1445,375.5C 1419.24,372.701 1393.41,371.868 1367.5,373C 1361.47,373.427 1355.47,374.093 1349.5,375C 1338.13,379.854 1326.46,383.854 1314.5,387C 1305.32,387.334 1296.16,387.834 1287,388.5C 1279.19,387.705 1271.35,387.371 1263.5,387.5C 1261.79,385.118 1259.79,383.118 1257.5,381.5C 1256.92,379.589 1255.92,377.922 1254.5,376.5C 1256.04,376.703 1257.38,377.37 1258.5,378.5C 1259.97,381.805 1262.31,384.305 1265.5,386C 1271.97,385.486 1278.47,385.652 1285,386.5C 1294.83,385.937 1304.66,385.437 1314.5,385C 1327.09,381.77 1339.42,377.77 1351.5,373C 1369.99,371.956 1388.49,371.122 1407,370.5C 1419.28,372.161 1431.61,373.161 1444,373.5C 1458.83,372.537 1473.67,371.537 1488.5,370.5C 1503.33,371.533 1518.16,372.533 1533,373.5C 1545.33,372.773 1557.66,372.106 1570,371.5C 1583.5,372.333 1597,372.5 1610.5,372C 1615.92,370.212 1619.75,366.712 1622,361.5C 1622.16,347.616 1622.99,333.783 1624.5,320C 1620.87,277.335 1622.04,234.835 1628,192.5C 1629.28,185.945 1632.11,180.278 1636.5,175.5 Z"/></g>
<g><path style="opacity:1" fill="#a6a7a7" d="M 1660.5,179.5 C 1666.41,183.902 1671.91,188.902 1677,194.5C 1677.49,195.793 1677.66,197.127 1677.5,198.5C 1672.26,191.918 1666.59,185.584 1660.5,179.5 Z"/></g>
<g><path style="opacity:1" fill="#a5a6a6" d="M 1681.5,204.5 C 1684.54,206.543 1686.88,209.21 1688.5,212.5C 1693.83,218.167 1699.17,223.833 1704.5,229.5C 1696.54,223.038 1689.04,216.038 1682,208.5C 1681.51,207.207 1681.34,205.873 1681.5,204.5 Z"/></g>
<g><path style="opacity:1" fill="#cdd0ca" d="M 1688.5,212.5 C 1689.98,212.238 1691.31,212.571 1692.5,213.5C 1698.88,221.204 1705.54,228.538 1712.5,235.5C 1709.11,234.471 1706.44,232.471 1704.5,229.5C 1699.17,223.833 1693.83,218.167 1688.5,212.5 Z"/></g>
<g><path style="opacity:1" fill="#79716c" d="M 892.5,197.5 C 893.659,208.993 893.826,220.659 893,232.5C 892.722,233.416 892.222,234.082 891.5,234.5C 892.285,222.183 892.618,209.85 892.5,197.5 Z"/></g>
<g><path style="opacity:1" fill="#9a9086" d="M 891.5,196.5 C 892.167,196.5 892.5,196.833 892.5,197.5C 892.618,209.85 892.285,222.183 891.5,234.5C 890.903,238.267 889.903,241.934 888.5,245.5C 890.953,229.265 891.953,212.932 891.5,196.5 Z"/></g>
<g><path style="opacity:1" fill="#aaabaa" d="M 1717.5,241.5 C 1724.13,243.16 1729.47,246.826 1733.5,252.5C 1732.13,252.657 1730.79,252.49 1729.5,252C 1726.87,249.455 1723.87,247.455 1720.5,246C 1719.61,244.385 1718.61,242.885 1717.5,241.5 Z"/></g>
<g><path style="opacity:1" fill="#746d69" d="M 891.5,234.5 C 891.5,237.833 891.5,241.167 891.5,244.5C 891.5,245.167 891.5,245.833 891.5,246.5C 890.509,252.979 890.176,259.646 890.5,266.5C 888.779,259.747 888.112,252.747 888.5,245.5C 889.903,241.934 890.903,238.267 891.5,234.5 Z"/></g>
<g><path style="opacity:1" fill="#a9aaa9" d="M 1733.5,252.5 C 1738.11,254.258 1742.11,256.925 1745.5,260.5C 1740.56,259.354 1736.56,256.688 1733.5,252.5 Z"/></g>
<g><path style="opacity:1" fill="#424248" d="M 1255.5,108.5 C 1255.3,154.5 1255.63,200.666 1256.5,247C 1255.94,260.178 1255.27,273.345 1254.5,286.5C 1255.46,312.163 1255.63,337.829 1255,363.5C 1254.05,366.432 1253.55,369.432 1253.5,372.5C 1242.21,374.478 1230.55,375.145 1218.5,374.5C 1218.17,374.5 1217.83,374.5 1217.5,374.5C 1217.5,373.833 1217.5,373.167 1217.5,372.5C 1224.69,372.397 1231.85,372.73 1239,373.5C 1243.19,373.187 1247.36,372.687 1251.5,372C 1252.25,370.266 1252.75,368.433 1253,366.5C 1252.96,340.398 1252.8,314.398 1252.5,288.5C 1252.94,275.115 1253.94,261.782 1255.5,248.5C 1254.38,236.027 1253.71,223.527 1253.5,211C 1254.81,194.5 1254.81,178 1253.5,161.5C 1255.03,143.884 1255.69,126.217 1255.5,108.5 Z"/></g>
<g><path style="opacity:1" fill="#abacac" d="M 1745.5,260.5 C 1746.87,260.343 1748.21,260.51 1749.5,261C 1753.45,262.731 1757.12,264.898 1760.5,267.5C 1754.48,267.098 1749.48,264.765 1745.5,260.5 Z"/></g>
<g><path style="opacity:1" fill="#a7a8a8" d="M 1760.5,267.5 C 1765.4,268.962 1770.4,270.129 1775.5,271C 1777.44,272.462 1779.44,273.628 1781.5,274.5C 1773.87,273.848 1766.87,271.515 1760.5,267.5 Z"/></g>
<g><path style="opacity:1" fill="#48464a" d="M 891.5,246.5 C 892.956,285.466 894.123,324.466 895,363.5C 898.618,365.865 902.451,367.532 906.5,368.5C 901.132,368.799 896.465,367.132 892.5,363.5C 892.167,362.167 891.833,360.833 891.5,359.5C 891.999,355.515 892.332,351.515 892.5,347.5C 891.914,322.67 891.247,298.004 890.5,273.5C 890.5,271.167 890.5,268.833 890.5,266.5C 890.176,259.646 890.509,252.979 891.5,246.5 Z"/></g>
<g><path style="opacity:1" fill="#91887f" d="M 888.5,245.5 C 888.112,252.747 888.779,259.747 890.5,266.5C 890.5,268.833 890.5,271.167 890.5,273.5C 890.5,295.5 890.5,317.5 890.5,339.5C 889.833,316.5 889.167,293.5 888.5,270.5C 887.167,262.167 887.167,253.833 888.5,245.5 Z"/></g>
<g><path style="opacity:0.8" fill="#afb1af" d="M 1783.5,274.5 C 1801.72,279.851 1819.38,286.685 1836.5,295C 1838.24,296.517 1839.91,298.017 1841.5,299.5C 1840.13,299.657 1838.79,299.49 1837.5,299C 1833.39,294.78 1828.39,292.447 1822.5,292C 1819.5,290.834 1816.83,289.167 1814.5,287C 1811.17,286.333 1807.83,285.667 1804.5,285C 1797.43,281.467 1790.43,277.967 1783.5,274.5 Z"/></g>
<g><path style="opacity:1" fill="#e1e6d7" d="M 1646.5,126.5 C 1662.62,138.116 1678.62,149.949 1694.5,162C 1765.37,217.864 1835.37,274.864 1904.5,333C 1927.57,349.855 1950.57,366.688 1973.5,383.5C 1972.83,383.5 1972.17,383.5 1971.5,383.5C 1970.5,383.414 1969.67,383.748 1969,384.5C 1946.96,368.223 1924.79,352.056 1902.5,336C 1829.74,274.583 1755.74,214.583 1680.5,156C 1678.61,154.899 1677.94,153.566 1678.5,152C 1669.78,144.948 1660.78,138.281 1651.5,132C 1649.58,130.25 1647.91,128.417 1646.5,126.5 Z"/></g>
<g><path style="opacity:1" fill="#575a5f" d="M 1256.5,19.5 C 1257.61,19.5569 1258.61,19.8902 1259.5,20.5C 1260.56,25.4477 1260.73,30.4477 1260,35.5C 1258.29,49.2187 1256.12,62.8853 1253.5,76.5C 1253.59,81.2125 1254.09,85.8792 1255,90.5C 1257.47,96.2491 1259.14,102.249 1260,108.5C 1260.17,112.667 1260.33,116.833 1260.5,121C 1259.02,142.636 1258.36,164.303 1258.5,186C 1259.83,220.202 1259.5,254.369 1257.5,288.5C 1258.51,314.828 1258.68,341.162 1258,367.5C 1257.78,370.516 1256.61,373.016 1254.5,375C 1242.33,375.826 1230.33,375.66 1218.5,374.5C 1230.55,375.145 1242.21,374.478 1253.5,372.5C 1254.78,370.438 1255.61,368.104 1256,365.5C 1256.67,338.995 1256.51,312.495 1255.5,286C 1255.38,280.061 1255.88,274.228 1257,268.5C 1257.25,220.663 1257.75,172.829 1258.5,125C 1258.67,117.249 1258,109.582 1256.5,102C 1256.32,100.624 1255.65,99.7911 1254.5,99.5C 1251.79,91.1913 1250.46,82.5246 1250.5,73.5C 1249.9,67.9741 1251.07,62.9741 1254,58.5C 1254.95,47.6375 1256.12,36.8042 1257.5,26C 1257.43,23.7446 1257.1,21.578 1256.5,19.5 Z"/></g>
<g><path style="opacity:0.4" fill="#b1b2b0" d="M 1841.5,299.5 C 1854.42,308.748 1866.08,319.415 1876.5,331.5C 1875.42,331.461 1874.42,331.127 1873.5,330.5C 1863.31,319.304 1852.64,308.97 1841.5,299.5 Z"/></g>
<g><path style="opacity:1" fill="#a69d99" d="M 888.5,270.5 C 889.167,293.5 889.833,316.5 890.5,339.5C 890.183,348.418 890.516,357.251 891.5,366C 896.167,368 900.833,370 905.5,372C 914.833,372.333 924.167,372.667 933.5,373C 944.144,376.927 955.144,378.427 966.5,377.5C 996.827,376.129 1027.16,374.795 1057.5,373.5C 1086.51,374.467 1115.51,375.634 1144.5,377C 1180.84,377.169 1217.18,377.835 1253.5,379C 1254.33,380.992 1255.66,382.492 1257.5,383.5C 1260.32,384.989 1261.99,387.323 1262.5,390.5C 1259.92,399.005 1259.08,407.672 1260,416.5C 1261.88,417.053 1263.38,418.053 1264.5,419.5C 1245.07,415.095 1225.4,412.095 1205.5,410.5C 1205.17,410.5 1204.83,410.5 1204.5,410.5C 1196.27,408.411 1187.93,406.245 1179.5,404C 1154.45,400.475 1129.45,396.808 1104.5,393C 1080.89,390.488 1057.23,389.154 1033.5,389C 1003.59,399.476 973.925,410.142 944.5,421C 943.269,422.405 941.936,423.571 940.5,424.5C 935.244,424.421 930.577,425.921 926.5,429C 918.98,430.912 911.98,433.745 905.5,437.5C 893.4,439.947 881.734,443.447 870.5,448C 865.301,452.346 859.301,454.846 852.5,455.5C 850.581,456.612 848.914,457.946 847.5,459.5C 842.244,460.957 836.911,462.124 831.5,463C 806.24,473.531 780.906,483.864 755.5,494C 744.477,499.908 733.144,504.908 721.5,509C 714.677,514.505 707.01,518.172 698.5,520C 696.386,522.28 694.053,524.113 691.5,525.5C 688.834,525.933 686.168,526.433 683.5,527C 671.724,533.132 660.224,539.632 649,546.5C 645.192,552.449 642.192,558.783 640,565.5C 637.908,568.681 635.575,571.681 633,574.5C 622.433,592.3 612.933,610.634 604.5,629.5C 602.771,630.117 601.271,631.117 600,632.5C 597.418,636.99 595.418,641.656 594,646.5C 592.69,649.473 590.69,651.807 588,653.5C 586.418,658.32 584.585,662.986 582.5,667.5C 582.25,669.674 581.25,671.341 579.5,672.5C 577.213,673.619 575.379,675.285 574,677.5C 569.274,684.286 565.607,691.619 563,699.5C 554.146,711.215 546.312,723.548 539.5,736.5C 529.578,735.753 519.911,736.92 510.5,740C 500.744,740.902 492.411,737.902 485.5,731C 479.152,727.994 472.819,727.827 466.5,730.5C 463.379,735.733 459.712,740.566 455.5,745C 445.796,745.99 436.796,743.99 428.5,739C 426.667,738.833 424.833,738.667 423,738.5C 402.25,744.202 381.083,745.702 359.5,743C 348.38,739.906 337.714,735.74 327.5,730.5C 327.047,729.542 326.381,728.708 325.5,728C 317.527,727.432 309.861,728.765 302.5,732C 299.294,735.067 295.627,737.401 291.5,739C 277.49,739.596 263.49,739.43 249.5,738.5C 249.167,738.5 248.833,738.5 248.5,738.5C 257.904,712.136 268.404,686.136 280,660.5C 282.534,650.4 285.367,640.4 288.5,630.5C 295.64,614.612 302.14,598.279 308,581.5C 309.726,579.772 311.059,577.772 312,575.5C 317.251,562.509 321.584,549.175 325,535.5C 334.132,517.119 341.132,497.786 346,477.5C 357.4,450.361 367.4,422.694 376,394.5C 417.719,375.57 460.553,359.237 504.5,345.5C 507.115,347.379 509.281,349.712 511,352.5C 516.924,365.053 515.258,376.386 506,386.5C 505.19,390.69 505.69,394.69 507.5,398.5C 507.297,400.39 507.963,401.89 509.5,403C 511.725,404.131 514.058,404.964 516.5,405.5C 523.533,403.766 530.533,401.933 537.5,400C 544.796,395.853 552.463,392.52 560.5,390C 574.934,389.084 589.268,389.917 603.5,392.5C 607.155,391.918 610.822,391.418 614.5,391C 618.989,387.586 623.989,384.919 629.5,383C 630.381,382.292 631.047,381.458 631.5,380.5C 638.825,375.835 646.491,371.669 654.5,368C 655.453,366.045 656.787,364.378 658.5,363C 662.783,360.385 666.783,357.385 670.5,354C 675.314,351.76 679.98,349.26 684.5,346.5C 685.635,344.787 687.302,344.12 689.5,344.5C 701.36,342.329 713.193,340.329 725,338.5C 728.5,338.667 732,338.833 735.5,339C 742.411,341.86 749.577,343.693 757,344.5C 761.301,346.212 765.468,348.212 769.5,350.5C 773.946,356.449 778.946,361.949 784.5,367C 787.329,369.827 790.663,371.827 794.5,373C 812.5,373.667 830.5,373.667 848.5,373C 852.175,372.443 855.508,371.11 858.5,369C 866.679,367.676 874.679,366.176 882.5,364.5C 884.265,363.539 886.265,363.205 888.5,363.5C 888.5,332.5 888.5,301.5 888.5,270.5 Z"/></g>
<g><path style="opacity:1" fill="#adafad" d="M 1876.5,331.5 C 1878.18,331.892 1879.85,332.392 1881.5,333C 1887.21,339.896 1893.88,345.396 1901.5,349.5C 1902.5,350.833 1903.5,352.167 1904.5,353.5C 1903.83,353.5 1903.17,353.5 1902.5,353.5C 1900.79,351.187 1898.46,349.687 1895.5,349C 1889.55,342.539 1883.21,336.705 1876.5,331.5 Z"/></g>
<g><path style="opacity:1" fill="#d1d4ce" d="M 1901.5,349.5 C 1904.09,349.918 1906.42,350.918 1908.5,352.5C 1913.55,357.216 1918.55,361.883 1923.5,366.5C 1922.83,366.5 1922.17,366.5 1921.5,366.5C 1920.83,366.5 1920.17,366.5 1919.5,366.5C 1914.82,361.822 1909.82,357.489 1904.5,353.5C 1903.5,352.167 1902.5,350.833 1901.5,349.5 Z"/></g>
<g><path style="opacity:1" fill="#b9aca2" d="M 684.5,346.5 C 679.98,349.26 675.314,351.76 670.5,354C 666.783,357.385 662.783,360.385 658.5,363C 656.787,364.378 655.453,366.045 654.5,368C 646.491,371.669 638.825,375.835 631.5,380.5C 633.76,378.35 636.093,376.183 638.5,374C 651.709,366.564 664.042,357.897 675.5,348C 678.478,347.304 681.478,346.804 684.5,346.5 Z"/></g>
<g><path style="opacity:1" fill="#b1a69e" d="M 882.5,364.5 C 874.679,366.176 866.679,367.676 858.5,369C 855.508,371.11 852.175,372.443 848.5,373C 830.5,373.667 812.5,373.667 794.5,373C 790.663,371.827 787.329,369.827 784.5,367C 778.946,361.949 773.946,356.449 769.5,350.5C 765.468,348.212 761.301,346.212 757,344.5C 749.577,343.693 742.411,341.86 735.5,339C 732,338.833 728.5,338.667 725,338.5C 713.193,340.329 701.36,342.329 689.5,344.5C 689.611,343.883 689.944,343.383 690.5,343C 698.657,341.585 706.657,339.585 714.5,337C 731.332,335.96 747.665,338.293 763.5,344C 771.41,349.574 778.41,356.24 784.5,364C 788.609,367.388 793.275,369.721 798.5,371C 814.5,371.667 830.5,371.667 846.5,371C 848.645,368.782 851.312,367.449 854.5,367C 863.824,365.988 873.157,365.155 882.5,364.5 Z"/></g>
<g><path style="opacity:1" fill="#959598" d="M 1902.5,353.5 C 1903.17,353.5 1903.83,353.5 1904.5,353.5C 1909.82,357.489 1914.82,361.822 1919.5,366.5C 1918.07,366.579 1916.74,366.246 1915.5,365.5C 1910.46,362.122 1906.13,358.122 1902.5,353.5 Z"/></g>
<g><path style="opacity:1" fill="#5f5b5c" d="M 1018.5,370.5 C 1039.34,370.169 1060.01,370.503 1080.5,371.5C 1044.1,371.518 1007.76,372.851 971.5,375.5C 974.534,373.982 977.867,373.149 981.5,373C 994.078,373.118 1006.41,372.285 1018.5,370.5 Z"/></g>
<g><path style="opacity:1" fill="#444348" d="M 1018.5,370.5 C 1030.66,369.833 1043,369.5 1055.5,369.5C 1107.68,370.473 1159.68,371.473 1211.5,372.5C 1174.5,373.56 1137.5,373.56 1100.5,372.5C 1093.85,371.861 1087.19,371.527 1080.5,371.5C 1060.01,370.503 1039.34,370.169 1018.5,370.5 Z"/></g>
<g><path style="opacity:1" fill="#716b6b" d="M 890.5,273.5 C 891.247,298.004 891.914,322.67 892.5,347.5C 892.332,351.515 891.999,355.515 891.5,359.5C 891.833,360.833 892.167,362.167 892.5,363.5C 896.465,367.132 901.132,368.799 906.5,368.5C 907.263,369.268 908.263,369.768 909.5,370C 917.833,370.333 926.167,370.667 934.5,371C 946.432,374.91 958.765,376.41 971.5,375.5C 1007.76,372.851 1044.1,371.518 1080.5,371.5C 1087.19,371.527 1093.85,371.861 1100.5,372.5C 1110.5,373.167 1120.5,373.833 1130.5,374.5C 1096.86,372.771 1063.2,372.271 1029.5,373C 1008.3,373.787 987.299,375.287 966.5,377.5C 955.144,378.427 944.144,376.927 933.5,373C 924.167,372.667 914.833,372.333 905.5,372C 900.833,370 896.167,368 891.5,366C 890.516,357.251 890.183,348.418 890.5,339.5C 890.5,317.5 890.5,295.5 890.5,273.5 Z"/></g>
<g><path style="opacity:1" fill="#6c6b74" d="M 1636.5,163.5 C 1637.5,164.833 1638.5,166.167 1639.5,167.5C 1639.5,168.167 1639.5,168.833 1639.5,169.5C 1640.22,171.137 1640.38,172.803 1640,174.5C 1636.89,179.276 1634.22,184.276 1632,189.5C 1629.41,206.462 1627.07,223.462 1625,240.5C 1624.33,256.833 1624.33,273.167 1625,289.5C 1628.07,308.644 1628.24,327.811 1625.5,347C 1628.81,359.99 1624.47,369.323 1612.5,375C 1585.33,375.311 1558.16,375.811 1531,376.5C 1516.46,376.025 1501.96,375.025 1487.5,373.5C 1473.05,375.185 1458.55,376.185 1444,376.5C 1413.51,374.065 1383.01,373.899 1352.5,376C 1345.36,377.572 1338.7,380.238 1332.5,384C 1326.76,385.013 1321.09,386.346 1315.5,388C 1298.47,389.128 1281.47,389.628 1264.5,389.5C 1264.17,388.833 1263.83,388.167 1263.5,387.5C 1271.35,387.371 1279.19,387.705 1287,388.5C 1296.16,387.834 1305.32,387.334 1314.5,387C 1326.46,383.854 1338.13,379.854 1349.5,375C 1355.47,374.093 1361.47,373.427 1367.5,373C 1393.41,371.868 1419.24,372.701 1445,375.5C 1459.61,373.651 1474.27,372.651 1489,372.5C 1503.19,372.95 1517.36,373.95 1531.5,375.5C 1558.47,373.931 1585.47,373.098 1612.5,373C 1617.33,370.833 1620.83,367.333 1623,362.5C 1623.15,351.458 1623.82,340.458 1625,329.5C 1623.65,298.199 1623.31,266.866 1624,235.5C 1626,221.53 1627.66,207.53 1629,193.5C 1631.03,187.238 1633.53,181.238 1636.5,175.5C 1636.92,173.906 1637.59,172.406 1638.5,171C 1637.13,168.681 1636.46,166.181 1636.5,163.5 Z"/></g>
<g><path style="opacity:1" fill="#555254" d="M 1100.5,372.5 C 1137.5,373.56 1174.5,373.56 1211.5,372.5C 1213.5,372.5 1215.5,372.5 1217.5,372.5C 1217.5,373.167 1217.5,373.833 1217.5,374.5C 1205.99,374.172 1194.65,374.505 1183.5,375.5C 1165.82,375.545 1148.16,375.211 1130.5,374.5C 1120.5,373.833 1110.5,373.167 1100.5,372.5 Z"/></g>
<g><path style="opacity:1" fill="#8e8684" d="M 1130.5,374.5 C 1148.16,375.211 1165.82,375.545 1183.5,375.5C 1207.17,375.887 1230.83,376.221 1254.5,376.5C 1255.92,377.922 1256.92,379.589 1257.5,381.5C 1257.5,382.167 1257.5,382.833 1257.5,383.5C 1255.66,382.492 1254.33,380.992 1253.5,379C 1217.18,377.835 1180.84,377.169 1144.5,377C 1115.51,375.634 1086.51,374.467 1057.5,373.5C 1027.16,374.795 996.827,376.129 966.5,377.5C 987.299,375.287 1008.3,373.787 1029.5,373C 1063.2,372.271 1096.86,372.771 1130.5,374.5 Z"/></g>
<g><path style="opacity:1" fill="#a6a7a6" d="M 1921.5,366.5 C 1922.17,366.5 1922.83,366.5 1923.5,366.5C 1928.74,369.065 1933.74,372.065 1938.5,375.5C 1942.47,378.806 1946.14,382.473 1949.5,386.5C 1942.67,381.855 1935.67,377.355 1928.5,373C 1925.64,371.265 1923.3,369.098 1921.5,366.5 Z"/></g>
<g><path style="opacity:1" fill="#c9cbd0" d="M 2148.5,772.5 C 2148.5,772.833 2148.5,773.167 2148.5,773.5C 2148.17,773.5 2147.83,773.5 2147.5,773.5C 2143.68,769.86 2140.84,765.527 2139,760.5C 2134.39,757.309 2131.23,752.975 2129.5,747.5C 2129.04,746.702 2128.38,746.369 2127.5,746.5C 2124.94,743.892 2122.28,741.392 2119.5,739C 2116.47,736.985 2113.14,735.819 2109.5,735.5C 2099.01,734.506 2088.35,734.172 2077.5,734.5C 2050.2,736.154 2022.86,736.82 1995.5,736.5C 1994.36,706.842 1994.36,677.175 1995.5,647.5C 1995.18,617.141 1994.18,586.808 1992.5,556.5C 1992.8,541.717 1994.14,527.05 1996.5,512.5C 1997.56,509.136 1998.56,505.803 1999.5,502.5C 2007.67,496.221 2010.5,487.888 2008,477.5C 2004.15,468.771 2000.48,459.771 1997,450.5C 1995.89,449.695 1994.72,449.028 1993.5,448.5C 1991.67,444.851 1989.34,441.518 1986.5,438.5C 1986.6,435.892 1985.93,433.558 1984.5,431.5C 1982.44,427.762 1980.94,423.762 1980,419.5C 1978.33,418.5 1976.67,417.5 1975,416.5C 1972,411.167 1969,405.833 1966,400.5C 1966.35,396.412 1964.85,393.412 1961.5,391.5C 1963.2,391.66 1964.87,391.494 1966.5,391C 1968.37,388.791 1970.54,386.958 1973,385.5C 1976.98,387.817 1980.32,390.817 1983,394.5C 2006.22,439.275 2031.22,482.942 2058,525.5C 2060.7,528.538 2063.7,531.205 2067,533.5C 2070.67,539.167 2074.33,544.833 2078,550.5C 2098.53,588.884 2118.53,627.551 2138,666.5C 2141.71,701.799 2145.21,737.133 2148.5,772.5 Z"/></g>
<g><path style="opacity:1" fill="#afa49d" d="M 631.5,380.5 C 631.047,381.458 630.381,382.292 629.5,383C 623.989,384.919 618.989,387.586 614.5,391C 610.822,391.418 607.155,391.918 603.5,392.5C 589.268,389.917 574.934,389.084 560.5,390C 552.463,392.52 544.796,395.853 537.5,400C 530.533,401.933 523.533,403.766 516.5,405.5C 514.058,404.964 511.725,404.131 509.5,403C 507.963,401.89 507.297,400.39 507.5,398.5C 508.837,399.315 509.837,400.482 510.5,402C 514.5,402.667 518.5,402.667 522.5,402C 527.833,400.333 533.167,398.667 538.5,397C 554.586,386.208 571.919,383.542 590.5,389C 594.167,389.167 597.833,389.333 601.5,389.5C 612.25,388.916 622.25,385.916 631.5,380.5 Z"/></g>
<g><path style="opacity:1" fill="#7d7a7e" d="M 1257.5,381.5 C 1259.79,383.118 1261.79,385.118 1263.5,387.5C 1263.83,388.167 1264.17,388.833 1264.5,389.5C 1264.98,390.416 1265.31,391.416 1265.5,392.5C 1263.08,400.328 1261.75,408.328 1261.5,416.5C 1269.78,418.079 1278.11,419.579 1286.5,421C 1287.42,421.278 1288.08,421.778 1288.5,422.5C 1280.54,421.51 1272.54,420.843 1264.5,420.5C 1264.5,420.167 1264.5,419.833 1264.5,419.5C 1263.38,418.053 1261.88,417.053 1260,416.5C 1259.08,407.672 1259.92,399.005 1262.5,390.5C 1261.99,387.323 1260.32,384.989 1257.5,383.5C 1257.5,382.833 1257.5,382.167 1257.5,381.5 Z"/></g>
<g><path style="opacity:1" fill="#a4a4a9" d="M 1949.5,386.5 C 1953.02,386.83 1956.02,388.33 1958.5,391C 1959.45,391.483 1960.45,391.649 1961.5,391.5C 1964.85,393.412 1966.35,396.412 1966,400.5C 1969,405.833 1972,411.167 1975,416.5C 1976.67,417.5 1978.33,418.5 1980,419.5C 1980.94,423.762 1982.44,427.762 1984.5,431.5C 1974.86,420.495 1967.19,408.162 1961.5,394.5C 1956.82,392.736 1952.82,390.069 1949.5,386.5 Z"/></g>
<g><path style="opacity:1" fill="#b1ae9f" d="M 1204.5,410.5 C 1151.88,402.005 1099.04,395.005 1046,389.5C 1043.83,389.667 1041.67,389.833 1039.5,390C 1006.5,401.662 973.5,413.162 940.5,424.5C 941.936,423.571 943.269,422.405 944.5,421C 973.925,410.142 1003.59,399.476 1033.5,389C 1057.23,389.154 1080.89,390.488 1104.5,393C 1129.45,396.808 1154.45,400.475 1179.5,404C 1187.93,406.245 1196.27,408.411 1204.5,410.5 Z"/></g>
<g><path style="opacity:1" fill="#b4b3a0" d="M 1205.5,410.5 C 1225.4,412.095 1245.07,415.095 1264.5,419.5C 1264.5,419.833 1264.5,420.167 1264.5,420.5C 1244.68,417.399 1225.01,414.065 1205.5,410.5 Z"/></g>
<g><path style="opacity:1" fill="#7d7c7f" d="M 1288.5,422.5 C 1297.21,422.299 1305.87,422.799 1314.5,424C 1317.53,424.133 1320.19,425.133 1322.5,427C 1343.85,430.257 1365.19,433.424 1386.5,436.5C 1388.59,437.518 1390.59,438.518 1392.5,439.5C 1357.65,433.811 1322.99,428.144 1288.5,422.5 Z"/></g>
<g><path style="opacity:1" fill="#b5b4a1" d="M 940.5,424.5 C 929.128,429.404 917.462,433.738 905.5,437.5C 911.98,433.745 918.98,430.912 926.5,429C 930.577,425.921 935.244,424.421 940.5,424.5 Z"/></g>
<g><path style="opacity:1" fill="#a4a995" d="M 1264.5,420.5 C 1272.54,420.843 1280.54,421.51 1288.5,422.5C 1322.99,428.144 1357.65,433.811 1392.5,439.5C 1402.95,441.597 1413.61,443.097 1424.5,444C 1425.72,445.74 1427.38,446.74 1429.5,447C 1435.8,448.012 1442.13,448.512 1448.5,448.5C 1452.08,450.36 1455.75,452.027 1459.5,453.5C 1394.4,442.393 1329.4,431.393 1264.5,420.5 Z"/></g>
<g><path style="opacity:1" fill="#b3b1a0" d="M 905.5,437.5 C 886.475,445.401 867.142,452.734 847.5,459.5C 848.914,457.946 850.581,456.612 852.5,455.5C 859.301,454.846 865.301,452.346 870.5,448C 881.734,443.447 893.4,439.947 905.5,437.5 Z"/></g>
<g><path style="opacity:1" fill="#818080" d="M 1448.5,448.5 C 1454.55,448.932 1460.55,449.765 1466.5,451C 1475.38,454.612 1484.05,458.445 1492.5,462.5C 1483.4,459.967 1474.4,457.133 1465.5,454C 1463.53,453.505 1461.53,453.338 1459.5,453.5C 1455.75,452.027 1452.08,450.36 1448.5,448.5 Z"/></g>
<g><path style="opacity:1" fill="#8a8991" d="M 1986.5,438.5 C 1989.34,441.518 1991.67,444.851 1993.5,448.5C 1995.24,454.967 1997.24,461.3 1999.5,467.5C 1997.29,463.429 1994.79,459.429 1992,455.5C 1991.22,449.353 1989.39,443.686 1986.5,438.5 Z"/></g>
<g><path style="opacity:1" fill="#caceca" d="M 1938.5,375.5 C 1939.87,375.343 1941.21,375.51 1942.5,376C 1948.83,381.28 1955.5,386.113 1962.5,390.5C 1966.34,389.334 1969.34,387.001 1971.5,383.5C 1972.17,383.5 1972.83,383.5 1973.5,383.5C 1977.09,385.58 1980.25,388.246 1983,391.5C 2004.99,432.815 2027.99,473.482 2052,513.5C 2056.88,521.383 2062.88,528.383 2070,534.5C 2094.88,577.581 2118.21,621.581 2140,666.5C 2143.38,699.813 2146.54,733.146 2149.5,766.5C 2149.5,768.696 2149.16,770.696 2148.5,772.5C 2145.21,737.133 2141.71,701.799 2138,666.5C 2118.53,627.551 2098.53,588.884 2078,550.5C 2074.33,544.833 2070.67,539.167 2067,533.5C 2063.7,531.205 2060.7,528.538 2058,525.5C 2031.22,482.942 2006.22,439.275 1983,394.5C 1980.32,390.817 1976.98,387.817 1973,385.5C 1970.54,386.958 1968.37,388.791 1966.5,391C 1964.87,391.494 1963.2,391.66 1961.5,391.5C 1960.45,391.649 1959.45,391.483 1958.5,391C 1956.02,388.33 1953.02,386.83 1949.5,386.5C 1946.14,382.473 1942.47,378.806 1938.5,375.5 Z"/></g>
<g><path style="opacity:1" fill="#b2af9f" d="M 847.5,459.5 C 821.702,470.223 795.702,480.723 769.5,491C 743.517,502.603 717.517,514.103 691.5,525.5C 694.053,524.113 696.386,522.28 698.5,520C 707.01,518.172 714.677,514.505 721.5,509C 733.144,504.908 744.477,499.908 755.5,494C 780.906,483.864 806.24,473.531 831.5,463C 836.911,462.124 842.244,460.957 847.5,459.5 Z"/></g>
<g><path style="opacity:1" fill="#a4a995" d="M 1459.5,453.5 C 1461.53,453.338 1463.53,453.505 1465.5,454C 1474.4,457.133 1483.4,459.967 1492.5,462.5C 1519.96,472.095 1546.96,482.428 1573.5,493.5C 1576.15,495.135 1578.81,496.802 1581.5,498.5C 1553.08,487.971 1524.75,477.138 1496.5,466C 1484.07,461.767 1471.74,457.601 1459.5,453.5 Z"/></g>
<g><path style="opacity:1" fill="#b2af9f" d="M 502.5,344.5 C 503.492,344.328 504.158,344.662 504.5,345.5C 460.553,359.237 417.719,375.57 376,394.5C 367.4,422.694 357.4,450.361 346,477.5C 341.132,497.786 334.132,517.119 325,535.5C 321.584,549.175 317.251,562.509 312,575.5C 311.059,577.772 309.726,579.772 308,581.5C 302.14,598.279 295.64,614.612 288.5,630.5C 317.822,551.704 346.655,472.704 375,393.5C 416.55,374.705 459.05,358.372 502.5,344.5 Z"/></g>
<g><path style="opacity:1" fill="#bbbdc2" d="M 1993.5,448.5 C 1994.72,449.028 1995.89,449.695 1997,450.5C 2000.48,459.771 2004.15,468.771 2008,477.5C 2010.5,487.888 2007.67,496.221 1999.5,502.5C 2001.85,499.124 2003.69,495.457 2005,491.5C 2006.91,486.155 2006.91,480.822 2005,475.5C 2004.62,474.058 2003.79,473.058 2002.5,472.5C 2001.89,470.566 2000.89,468.899 1999.5,467.5C 1997.24,461.3 1995.24,454.967 1993.5,448.5 Z"/></g>
<g><path style="opacity:1" fill="#8c8e87" d="M 1573.5,493.5 C 1576.55,494.036 1579.55,494.869 1582.5,496C 1585.29,497.501 1587.95,499.001 1590.5,500.5C 1588.24,499.781 1585.9,499.448 1583.5,499.5C 1582.51,499.672 1581.84,499.338 1581.5,498.5C 1578.81,496.802 1576.15,495.135 1573.5,493.5 Z"/></g>
<g><path style="opacity:1" fill="#7e7e7f" d="M 1615.5,510.5 C 1619.51,511.222 1623.51,512.055 1627.5,513C 1634.2,516.271 1641.04,519.105 1648,521.5C 1652.84,524.508 1657.68,527.508 1662.5,530.5C 1646.84,523.834 1631.17,517.167 1615.5,510.5 Z"/></g>
<g><path style="opacity:1" fill="#9f9fa6" d="M 2002.5,472.5 C 2003.79,473.058 2004.62,474.058 2005,475.5C 2006.91,480.822 2006.91,486.155 2005,491.5C 2003.69,495.457 2001.85,499.124 1999.5,502.5C 1998.56,505.803 1997.56,509.136 1996.5,512.5C 1995.21,513.058 1994.38,514.058 1994,515.5C 1993.43,518.168 1992.93,520.834 1992.5,523.5C 1990.02,539.257 1989.02,555.257 1989.5,571.5C 1988.83,566.845 1988.5,562.012 1988.5,557C 1989.08,544.159 1989.74,531.325 1990.5,518.5C 1991.71,514.049 1993.21,509.716 1995,505.5C 2003.8,495.934 2006.3,484.934 2002.5,472.5 Z"/></g>
<g><path style="opacity:1" fill="#838382" d="M 1662.5,530.5 C 1665.25,530.187 1667.91,530.52 1670.5,531.5C 1673.67,533.25 1676.67,535.25 1679.5,537.5C 1673.61,535.379 1667.94,533.046 1662.5,530.5 Z"/></g>
<g><path style="opacity:1" fill="#b1ae9f" d="M 691.5,525.5 C 677.915,532.718 664.415,540.385 651,548.5C 635.979,575.889 620.479,602.889 604.5,629.5C 612.933,610.634 622.433,592.3 633,574.5C 635.575,571.681 637.908,568.681 640,565.5C 642.192,558.783 645.192,552.449 649,546.5C 660.224,539.632 671.724,533.132 683.5,527C 686.168,526.433 688.834,525.933 691.5,525.5 Z"/></g>
<g><path style="opacity:1" fill="#7d7c7f" d="M 1730.5,566.5 C 1739.23,571.237 1745.57,578.237 1749.5,587.5C 1742.09,581.422 1735.75,574.422 1730.5,566.5 Z"/></g>
<g><path style="opacity:1" fill="#b3b5ba" d="M 1992.5,523.5 C 1991.94,556.489 1991.94,589.489 1992.5,622.5C 1991.83,607.167 1991.17,591.833 1990.5,576.5C 1990.78,574.585 1990.45,572.919 1989.5,571.5C 1989.02,555.257 1990.02,539.257 1992.5,523.5 Z"/></g>
<g><path style="opacity:1" fill="#a7ab96" d="M 1583.5,499.5 C 1585.9,499.448 1588.24,499.781 1590.5,500.5C 1597.56,503.573 1604.56,506.74 1611.5,510C 1612.79,510.49 1614.13,510.657 1615.5,510.5C 1631.17,517.167 1646.84,523.834 1662.5,530.5C 1667.94,533.046 1673.61,535.379 1679.5,537.5C 1693.4,543.638 1707.4,549.471 1721.5,555C 1723.92,559.256 1726.92,563.09 1730.5,566.5C 1735.75,574.422 1742.09,581.422 1749.5,587.5C 1758.42,598.758 1768.09,609.425 1778.5,619.5C 1786.16,628.493 1794.16,637.16 1802.5,645.5C 1811.1,655.442 1820.1,665.108 1829.5,674.5C 1844.2,690.865 1858.87,707.198 1873.5,723.5C 1879.48,731.116 1886.15,738.116 1893.5,744.5C 1900.12,751.963 1906.62,759.629 1913,767.5C 1917.38,770.217 1920.72,773.884 1923,778.5C 1931.68,787.008 1940.18,795.675 1948.5,804.5C 1951.8,810.462 1956.13,815.462 1961.5,819.5C 1968.46,827.629 1975.63,835.629 1983,843.5C 1983.58,847.956 1983.08,852.289 1981.5,856.5C 1980.62,856.369 1979.96,856.702 1979.5,857.5C 1975.63,865.693 1970.96,873.359 1965.5,880.5C 1971.82,869.677 1977.48,858.511 1982.5,847C 1903.77,758.602 1823.94,671.102 1743,584.5C 1737.24,577.314 1731.24,570.314 1725,563.5C 1724.16,561.649 1723.33,559.816 1722.5,558C 1676.08,538.448 1629.74,518.948 1583.5,499.5 Z"/></g>
<g><path style="opacity:1" fill="#9b9ba2" d="M 1990.5,576.5 C 1991.17,591.833 1991.83,607.167 1992.5,622.5C 1992.63,644.34 1992.29,666.173 1991.5,688C 1991.85,704.528 1992.68,721.028 1994,737.5C 1994.38,738.056 1994.88,738.389 1995.5,738.5C 2009.32,739.496 2023.32,739.829 2037.5,739.5C 2023.34,740.661 2009.01,740.827 1994.5,740C 1992.59,736.478 1991.42,732.645 1991,728.5C 1990.83,718.833 1990.67,709.167 1990.5,699.5C 1991.54,658.501 1991.54,617.501 1990.5,576.5 Z"/></g>
<g><path style="opacity:1" fill="#7d7c7f" d="M 1778.5,619.5 C 1788.87,625.872 1796.87,634.538 1802.5,645.5C 1794.16,637.16 1786.16,628.493 1778.5,619.5 Z"/></g>
<g><path style="opacity:1" fill="#7d7c7f" d="M 1802.5,645.5 C 1813.89,652.893 1822.89,662.56 1829.5,674.5C 1820.1,665.108 1811.1,655.442 1802.5,645.5 Z"/></g>
<g><path style="opacity:1" fill="#b4b2a0" d="M 604.5,629.5 C 597.668,642.502 590.335,655.168 582.5,667.5C 584.585,662.986 586.418,658.32 588,653.5C 590.69,651.807 592.69,649.473 594,646.5C 595.418,641.656 597.418,636.99 600,632.5C 601.271,631.117 602.771,630.117 604.5,629.5 Z"/></g>
<g><path style="opacity:1" fill="#b1ae9f" d="M 288.5,630.5 C 285.367,640.4 282.534,650.4 280,660.5C 268.404,686.136 257.904,712.136 248.5,738.5C 248.167,738.5 247.833,738.5 247.5,738.5C 260.637,702.239 274.304,666.239 288.5,630.5 Z"/></g>
<g><path style="opacity:1" fill="#b3b1a0" d="M 579.5,672.5 C 567.754,695.003 554.754,716.67 540.5,737.5C 540.5,736.833 540.167,736.5 539.5,736.5C 546.312,723.548 554.146,711.215 563,699.5C 565.607,691.619 569.274,684.286 574,677.5C 575.379,675.285 577.213,673.619 579.5,672.5 Z"/></g>
<g><path style="opacity:0.533" fill="#c8c2ba" d="M 536.5,739.5 C 505.165,791.849 472.165,843.182 437.5,893.5C 410.704,929.806 382.204,964.806 352,998.5C 347.635,1005.52 343.302,1012.52 339,1019.5C 330.059,1038.38 321.393,1057.38 313,1076.5C 310.237,1081.05 306.57,1084.72 302,1087.5C 299.027,1091.97 295.86,1096.31 292.5,1100.5C 285.054,1100.98 277.72,1101.98 270.5,1103.5C 259.212,1102.57 247.879,1101.91 236.5,1101.5C 221.51,1102.31 206.51,1102.64 191.5,1102.5C 202.243,1041.74 211.41,980.736 219,919.5C 223.986,879.358 226.653,839.025 227,798.5C 234.422,779.387 241.922,760.387 249.5,741.5C 263.087,743.449 276.754,743.949 290.5,743C 295.806,740.899 300.806,738.232 305.5,735C 310.473,733.731 315.473,732.565 320.5,731.5C 325.894,732.696 330.56,735.196 334.5,739C 355.132,746.494 376.465,749.161 398.5,747C 402.833,746.667 407.167,746.333 411.5,746C 415.517,744.074 419.684,742.574 424,741.5C 427.328,742.08 430.161,743.58 432.5,746C 438.136,746.949 443.469,748.449 448.5,750.5C 450.167,750.333 451.833,750.167 453.5,750C 459.32,746.006 463.987,740.84 467.5,734.5C 476.199,730.901 483.866,732.401 490.5,739C 497.585,743.204 505.252,744.538 513.5,743C 521.028,741.036 528.695,739.87 536.5,739.5 Z"/></g>
<g><path style="opacity:1" fill="#8d8f96" d="M 2078.5,736.5 C 2088.65,735.506 2098.99,735.172 2109.5,735.5C 2113.14,735.819 2116.47,736.985 2119.5,739C 2122.28,741.392 2124.94,743.892 2127.5,746.5C 2129.15,750.114 2130.48,753.781 2131.5,757.5C 2128.92,754.68 2127.09,751.346 2126,747.5C 2122.21,743.36 2117.71,740.36 2112.5,738.5C 2112.39,737.883 2112.06,737.383 2111.5,737C 2100.51,736.5 2089.51,736.333 2078.5,736.5 Z"/></g>
<g><path style="opacity:1" fill="#878884" d="M 1873.5,723.5 C 1876.41,725.066 1879.08,727.066 1881.5,729.5C 1885.9,734.225 1889.9,739.225 1893.5,744.5C 1886.15,738.116 1879.48,731.116 1873.5,723.5 Z"/></g>
<g><path style="opacity:1" fill="#bfc0c6" d="M 1996.5,512.5 C 1994.14,527.05 1992.8,541.717 1992.5,556.5C 1994.18,586.808 1995.18,617.141 1995.5,647.5C 1994.36,677.175 1994.36,706.842 1995.5,736.5C 2022.86,736.82 2050.2,736.154 2077.5,734.5C 2076.05,735.302 2074.38,735.802 2072.5,736C 2046.87,738.05 2021.21,738.883 1995.5,738.5C 1994.88,738.389 1994.38,738.056 1994,737.5C 1992.68,721.028 1991.85,704.528 1991.5,688C 1992.29,666.173 1992.63,644.34 1992.5,622.5C 1991.94,589.489 1991.94,556.489 1992.5,523.5C 1992.93,520.834 1993.43,518.168 1994,515.5C 1994.38,514.058 1995.21,513.058 1996.5,512.5 Z"/></g>
<g><path style="opacity:1" fill="#6d6e77" d="M 2112.5,738.5 C 2117.71,740.36 2122.21,743.36 2126,747.5C 2127.09,751.346 2128.92,754.68 2131.5,757.5C 2131.15,760.421 2132.15,762.754 2134.5,764.5C 2137.91,767.925 2141.58,770.925 2145.5,773.5C 2145.97,774.906 2146.97,775.573 2148.5,775.5C 2151.14,819.941 2154.97,864.274 2160,908.5C 2160.38,909.056 2160.88,909.389 2161.5,909.5C 2162.92,926.803 2164.26,944.136 2165.5,961.5C 2166.17,972.167 2166.83,982.833 2167.5,993.5C 2168.82,1015.5 2170.32,1037.5 2172,1059.5C 2172.24,1061.12 2173.07,1062.12 2174.5,1062.5C 2174.5,1062.83 2174.5,1063.17 2174.5,1063.5C 2174.27,1071.21 2174.6,1078.88 2175.5,1086.5C 2175.5,1092.5 2175.5,1098.5 2175.5,1104.5C 2153.33,1103.88 2131.17,1103.21 2109,1102.5C 2095.83,1103.33 2082.66,1104.33 2069.5,1105.5C 2057.11,1104.91 2044.78,1103.74 2032.5,1102C 2028.57,1097.38 2025.4,1092.22 2023,1086.5C 2014.56,1077.07 2006.56,1067.4 1999,1057.5C 1995.08,1051.33 1991.41,1045 1988,1038.5C 1974.4,1021.77 1969.73,1002.77 1974,981.5C 1977.71,975.044 1981.04,968.377 1984,961.5C 1985.11,948.842 1986.11,936.175 1987,923.5C 1987.72,917.677 1989.05,912.011 1991,906.5C 1993.74,877.883 1994.08,849.216 1992,820.5C 1991.78,810.208 1990.61,800.041 1988.5,790C 1989.65,780.12 1989.65,770.12 1988.5,760C 1988.1,753.137 1989.76,746.97 1993.5,741.5C 2030.22,742.266 2066.89,740.933 2103.5,737.5C 2106.47,738.162 2109.47,738.495 2112.5,738.5 Z"/></g>
<g><path style="opacity:1" fill="#adaeb4" d="M 2077.5,734.5 C 2088.35,734.172 2099.01,734.506 2109.5,735.5C 2098.99,735.172 2088.65,735.506 2078.5,736.5C 2064.95,738.434 2051.29,739.434 2037.5,739.5C 2023.32,739.829 2009.32,739.496 1995.5,738.5C 2021.21,738.883 2046.87,738.05 2072.5,736C 2074.38,735.802 2076.05,735.302 2077.5,734.5 Z"/></g>
<g><path style="opacity:1" fill="#b6adaa" d="M 327.5,730.5 C 325.608,729.149 323.442,728.482 321,728.5C 317.118,729.096 313.284,729.929 309.5,731C 302.715,734.786 295.715,738.119 288.5,741C 275.231,742.021 262.231,741.188 249.5,738.5C 263.49,739.43 277.49,739.596 291.5,739C 295.627,737.401 299.294,735.067 302.5,732C 309.861,728.765 317.527,727.432 325.5,728C 326.381,728.708 327.047,729.542 327.5,730.5 Z"/></g>
<g><path style="opacity:1" fill="#7f7f87" d="M 1990.5,518.5 C 1989.74,531.325 1989.08,544.159 1988.5,557C 1988.5,562.012 1988.83,566.845 1989.5,571.5C 1990.45,572.919 1990.78,574.585 1990.5,576.5C 1991.54,617.501 1991.54,658.501 1990.5,699.5C 1990.67,709.167 1990.83,718.833 1991,728.5C 1991.42,732.645 1992.59,736.478 1994.5,740C 2009.01,740.827 2023.34,740.661 2037.5,739.5C 2051.29,739.434 2064.95,738.434 2078.5,736.5C 2089.51,736.333 2100.51,736.5 2111.5,737C 2112.06,737.383 2112.39,737.883 2112.5,738.5C 2109.47,738.495 2106.47,738.162 2103.5,737.5C 2066.89,740.933 2030.22,742.266 1993.5,741.5C 1992.54,741.047 1991.71,740.381 1991,739.5C 1990.67,736.833 1990.33,734.167 1990,731.5C 1989.67,681.167 1989.33,630.833 1989,580.5C 1987.47,565.199 1987.14,549.866 1988,534.5C 1988.15,528.919 1988.98,523.586 1990.5,518.5 Z"/></g>
<g><path style="opacity:1" fill="#c1b8b6" d="M 327.5,730.5 C 337.714,735.74 348.38,739.906 359.5,743C 381.083,745.702 402.25,744.202 423,738.5C 424.833,738.667 426.667,738.833 428.5,739C 436.796,743.99 445.796,745.99 455.5,745C 459.712,740.566 463.379,735.733 466.5,730.5C 472.819,727.827 479.152,727.994 485.5,731C 492.411,737.902 500.744,740.902 510.5,740C 519.911,736.92 529.578,735.753 539.5,736.5C 540.167,736.5 540.5,736.833 540.5,737.5C 539.395,738.6 538.062,739.267 536.5,739.5C 528.695,739.87 521.028,741.036 513.5,743C 505.252,744.538 497.585,743.204 490.5,739C 483.866,732.401 476.199,730.901 467.5,734.5C 463.987,740.84 459.32,746.006 453.5,750C 451.833,750.167 450.167,750.333 448.5,750.5C 443.469,748.449 438.136,746.949 432.5,746C 430.161,743.58 427.328,742.08 424,741.5C 419.684,742.574 415.517,744.074 411.5,746C 407.167,746.333 402.833,746.667 398.5,747C 376.465,749.161 355.132,746.494 334.5,739C 330.56,735.196 325.894,732.696 320.5,731.5C 315.473,732.565 310.473,733.731 305.5,735C 300.806,738.232 295.806,740.899 290.5,743C 276.754,743.949 263.087,743.449 249.5,741.5C 248.599,740.71 247.932,739.71 247.5,738.5C 247.833,738.5 248.167,738.5 248.5,738.5C 248.833,738.5 249.167,738.5 249.5,738.5C 262.231,741.188 275.231,742.021 288.5,741C 295.715,738.119 302.715,734.786 309.5,731C 313.284,729.929 317.118,729.096 321,728.5C 323.442,728.482 325.608,729.149 327.5,730.5 Z"/></g>
<g><path style="opacity:1" fill="#b5b7bc" d="M 2127.5,746.5 C 2128.38,746.369 2129.04,746.702 2129.5,747.5C 2131.23,752.975 2134.39,757.309 2139,760.5C 2140.84,765.527 2143.68,769.86 2147.5,773.5C 2147.83,774.167 2148.17,774.833 2148.5,775.5C 2146.97,775.573 2145.97,774.906 2145.5,773.5C 2141.92,767.251 2137.25,761.917 2131.5,757.5C 2130.48,753.781 2129.15,750.114 2127.5,746.5 Z"/></g>
<g><path style="opacity:1" fill="#8e8f96" d="M 2131.5,757.5 C 2137.25,761.917 2141.92,767.251 2145.5,773.5C 2141.58,770.925 2137.91,767.925 2134.5,764.5C 2132.15,762.754 2131.15,760.421 2131.5,757.5 Z"/></g>
<g><path style="opacity:1" fill="#acb39a" d="M 2147.5,773.5 C 2147.83,773.5 2148.17,773.5 2148.5,773.5C 2150.61,774.453 2151.78,776.119 2152,778.5C 2153.09,790.488 2153.92,802.488 2154.5,814.5C 2152.75,801.827 2151.08,789.161 2149.5,776.5C 2149.5,775.833 2149.17,775.5 2148.5,775.5C 2148.17,774.833 2147.83,774.167 2147.5,773.5 Z"/></g>
<g><path style="opacity:1" fill="#8f9388" d="M 2149.5,776.5 C 2151.08,789.161 2152.75,801.827 2154.5,814.5C 2154.5,815.167 2154.5,815.833 2154.5,816.5C 2154.9,822.829 2155.23,829.162 2155.5,835.5C 2154.78,835.082 2154.28,834.416 2154,833.5C 2152.41,814.499 2150.91,795.499 2149.5,776.5 Z"/></g>
<g><path style="opacity:1" fill="#828281" d="M 1948.5,804.5 C 1950.04,804.703 1951.38,805.37 1952.5,806.5C 1955.77,810.638 1958.77,814.972 1961.5,819.5C 1956.13,815.462 1951.8,810.462 1948.5,804.5 Z"/></g>
<g><path style="opacity:1" fill="#868683" d="M 1981.5,856.5 C 1979.33,861.509 1977.16,866.509 1975,871.5C 1971.01,877.644 1966.51,883.311 1961.5,888.5C 1963.24,886.079 1964.57,883.412 1965.5,880.5C 1970.96,873.359 1975.63,865.693 1979.5,857.5C 1979.96,856.702 1980.62,856.369 1981.5,856.5 Z"/></g>
<g><path style="opacity:1" fill="#77797c" d="M 2148.5,775.5 C 2149.17,775.5 2149.5,775.833 2149.5,776.5C 2150.91,795.499 2152.41,814.499 2154,833.5C 2154.28,834.416 2154.78,835.082 2155.5,835.5C 2157.37,860.182 2159.37,884.849 2161.5,909.5C 2160.88,909.389 2160.38,909.056 2160,908.5C 2154.97,864.274 2151.14,819.941 2148.5,775.5 Z"/></g>
<g><path style="opacity:1" fill="#8d8e87" d="M 1961.5,888.5 C 1959.66,893.665 1956.66,897.999 1952.5,901.5C 1955.12,896.886 1958.12,892.553 1961.5,888.5 Z"/></g>
<g><path style="opacity:1" fill="#9ea491" d="M 2154.5,816.5 C 2160.43,871.938 2165.43,927.605 2169.5,983.5C 2167.8,976.232 2166.47,968.899 2165.5,961.5C 2164.26,944.136 2162.92,926.803 2161.5,909.5C 2159.37,884.849 2157.37,860.182 2155.5,835.5C 2155.23,829.162 2154.9,822.829 2154.5,816.5 Z"/></g>
<g><path style="opacity:1" fill="#8c8d86" d="M 1948.5,906.5 C 1934.67,925.743 1919.17,943.743 1902,960.5C 1901.52,961.448 1901.35,962.448 1901.5,963.5C 1900.4,962.399 1900.24,961.066 1901,959.5C 1917.79,942.515 1933.62,924.848 1948.5,906.5 Z"/></g>
<g><path style="opacity:1" fill="#878b84" d="M 2165.5,961.5 C 2166.47,968.899 2167.8,976.232 2169.5,983.5C 2169.5,989.833 2169.5,996.167 2169.5,1002.5C 2168.83,999.5 2168.17,996.5 2167.5,993.5C 2166.83,982.833 2166.17,972.167 2165.5,961.5 Z"/></g>
<g><path style="opacity:1" fill="#7e7d7f" d="M 1922.5,994.5 C 1924.46,995.871 1926.63,996.871 1929,997.5C 1933.81,1003.13 1937.98,1009.13 1941.5,1015.5C 1942.68,1015.28 1943.68,1015.61 1944.5,1016.5C 1947.29,1021.1 1950.29,1025.44 1953.5,1029.5C 1952.11,1028.39 1950.61,1027.39 1949,1026.5C 1939.9,1015.92 1931.07,1005.25 1922.5,994.5 Z"/></g>
<g><path style="opacity:1" fill="#a5aa95" d="M 1965.5,880.5 C 1964.57,883.412 1963.24,886.079 1961.5,888.5C 1958.12,892.553 1955.12,896.886 1952.5,901.5C 1950.41,902.585 1949.08,904.251 1948.5,906.5C 1933.62,924.848 1917.79,942.515 1901,959.5C 1900.24,961.066 1900.4,962.399 1901.5,963.5C 1903.74,966.059 1905.24,969.059 1906,972.5C 1911.36,980.012 1916.86,987.345 1922.5,994.5C 1931.07,1005.25 1939.9,1015.92 1949,1026.5C 1950.61,1027.39 1952.11,1028.39 1953.5,1029.5C 1955.79,1033.76 1958.79,1037.42 1962.5,1040.5C 1968.49,1047.82 1974.83,1054.82 1981.5,1061.5C 1992.53,1073.53 2003.53,1085.53 2014.5,1097.5C 2018.28,1102.06 2022.28,1106.4 2026.5,1110.5C 2026.83,1111.5 2027.5,1112.17 2028.5,1112.5C 2029.17,1113.5 2029.83,1114.5 2030.5,1115.5C 2024.93,1111.43 2019.76,1106.77 2015,1101.5C 1986.96,1071.13 1959.3,1040.47 1932,1009.5C 1924,999.5 1916,989.5 1908,979.5C 1904.19,974.05 1901.02,968.217 1898.5,962C 1898.86,960.775 1899.36,959.609 1900,958.5C 1924.33,934.358 1946.16,908.358 1965.5,880.5 Z"/></g>
<g><path style="opacity:1" fill="#8fb4cd" d="M 798.5,1006.5 C 844.394,1004.91 890.06,1006.91 935.5,1012.5C 963.3,1017.26 990.967,1022.43 1018.5,1028C 1052.66,1037.03 1087.33,1044.37 1122.5,1050C 1146.87,1052.2 1171.2,1051.86 1195.5,1049C 1237.5,1040.5 1279.5,1031.66 1321.5,1022.5C 1385.85,1010.66 1450.85,1005.83 1516.5,1008C 1535.09,1009.92 1553.76,1011.58 1572.5,1013C 1625.23,1019.08 1677.9,1025.75 1730.5,1033C 1736.79,1034.14 1743.12,1035.47 1749.5,1037C 1750.87,1040.8 1752.03,1044.63 1753,1048.5C 1753.83,1071.17 1753.67,1093.84 1752.5,1116.5C 1751.63,1118.58 1750.13,1119.92 1748,1120.5C 1743.37,1120.99 1738.87,1121.99 1734.5,1123.5C 1728.53,1127.97 1723.86,1133.47 1720.5,1140C 1719.38,1144.02 1717.88,1147.86 1716,1151.5C 1708.49,1197.84 1698.83,1243.84 1687,1289.5C 1664.82,1363.77 1614.99,1405.61 1537.5,1415C 1530.53,1416 1523.53,1416.66 1516.5,1417C 1488.15,1417.88 1459.81,1417.55 1431.5,1416C 1396.07,1412.85 1363.07,1402.52 1332.5,1385C 1318.14,1375.65 1304.98,1364.81 1293,1352.5C 1280.67,1338.96 1269.5,1324.3 1259.5,1308.5C 1235.42,1264.41 1215.92,1218.41 1201,1170.5C 1190.36,1143.67 1170.69,1133 1142,1138.5C 1131.1,1142.77 1122.1,1149.43 1115,1158.5C 1103.28,1177.94 1094.28,1198.61 1088,1220.5C 1076.3,1249.24 1062.96,1277.24 1048,1304.5C 1012.47,1360.52 962.307,1395.68 897.5,1410C 852.536,1418.21 807.536,1418.54 762.5,1411C 727.581,1403.27 696.248,1388.6 668.5,1367C 661.9,1361.07 656.066,1354.57 651,1347.5C 641.41,1337.19 633.91,1325.36 628.5,1312C 624.877,1301.63 621.544,1291.13 618.5,1280.5C 607.061,1235.19 597.561,1189.52 590,1143.5C 584.356,1128.69 573.856,1119.35 558.5,1115.5C 557.333,1113.83 556.167,1112.17 555,1110.5C 553.854,1085.76 554.52,1061.09 557,1036.5C 558.627,1031.94 561.794,1029.1 566.5,1028C 583.16,1026.67 599.827,1025.33 616.5,1024C 649.308,1019.51 682.308,1015.85 715.5,1013C 743.414,1011.28 771.081,1009.11 798.5,1006.5 Z M 789.5,1032.5 C 823.852,1032.11 858.186,1032.61 892.5,1034C 932.812,1037.65 971.479,1047.65 1008.5,1064C 1020.23,1069.9 1031.23,1076.9 1041.5,1085C 1064,1105.55 1072.83,1131.05 1068,1161.5C 1061.73,1208.97 1046.73,1253.3 1023,1294.5C 980.91,1355.8 922.743,1388.96 848.5,1394C 812.775,1396.94 777.775,1393.61 743.5,1384C 698.024,1366.86 667.024,1335.53 650.5,1290C 637.484,1248.84 632.984,1206.68 637,1163.5C 638.298,1137.48 644.465,1112.81 655.5,1089.5C 667.398,1070.44 683.732,1056.6 704.5,1048C 715.554,1044.02 726.887,1040.85 738.5,1038.5C 755.67,1036.61 772.67,1034.61 789.5,1032.5 Z M 1420.5,1035.5 C 1450.17,1035.33 1479.84,1035.5 1509.5,1036C 1543.43,1036.89 1576.43,1042.89 1608.5,1054C 1635.99,1065.49 1654.49,1085.32 1664,1113.5C 1666.57,1121.65 1668.23,1129.98 1669,1138.5C 1671.44,1182.54 1669.1,1226.21 1662,1269.5C 1659.45,1281.38 1656.11,1293.04 1652,1304.5C 1636.68,1343.95 1608.85,1370.45 1568.5,1384C 1513.39,1397.82 1458.22,1397.99 1403,1384.5C 1345.74,1367.48 1303.57,1332.48 1276.5,1279.5C 1258.67,1241.84 1247.5,1202.18 1243,1160.5C 1236.87,1119.26 1251.71,1088.42 1287.5,1068C 1302.14,1059.9 1317.47,1053.57 1333.5,1049C 1362.32,1042.28 1391.32,1037.78 1420.5,1035.5 Z"/></g>
<g><path style="opacity:1" fill="#a2a894" d="M 2169.5,983.5 C 2171.48,998.631 2172.82,1013.96 2173.5,1029.5C 2171.3,1020.76 2169.97,1011.76 2169.5,1002.5C 2169.5,996.167 2169.5,989.833 2169.5,983.5 Z"/></g>
<g><path style="opacity:1" fill="#7e7d7f" d="M 1962.5,1040.5 C 1964.99,1040.83 1967.16,1041.83 1969,1043.5C 1973.92,1049.03 1978.09,1055.03 1981.5,1061.5C 1974.83,1054.82 1968.49,1047.82 1962.5,1040.5 Z"/></g>
<g><path style="opacity:1" fill="#797b7d" d="M 2167.5,993.5 C 2168.17,996.5 2168.83,999.5 2169.5,1002.5C 2169.97,1011.76 2171.3,1020.76 2173.5,1029.5C 2173.5,1029.83 2173.5,1030.17 2173.5,1030.5C 2173.39,1041.19 2173.72,1051.85 2174.5,1062.5C 2173.07,1062.12 2172.24,1061.12 2172,1059.5C 2170.32,1037.5 2168.82,1015.5 2167.5,993.5 Z"/></g>
<g><path style="opacity:1" fill="#a5aa97" d="M 2173.5,1030.5 C 2177.35,1063.59 2180.02,1096.93 2181.5,1130.5C 2180.27,1122.36 2178.94,1114.36 2177.5,1106.5C 2177.74,1091.93 2176.74,1077.6 2174.5,1063.5C 2174.5,1063.17 2174.5,1062.83 2174.5,1062.5C 2173.72,1051.85 2173.39,1041.19 2173.5,1030.5 Z"/></g>
<g><path style="opacity:1" fill="#d3cbc7" d="M 292.5,1104.5 C 258.176,1105.4 223.843,1105.73 189.5,1105.5C 204.671,1104.73 220.004,1104.07 235.5,1103.5C 254.665,1104.3 273.665,1104.63 292.5,1104.5 Z"/></g>
<g><path style="opacity:1" fill="#868689" d="M 2174.5,1063.5 C 2176.74,1077.6 2177.74,1091.93 2177.5,1106.5C 2177.5,1107.17 2177.5,1107.83 2177.5,1108.5C 2157.36,1107.19 2137.36,1106.19 2117.5,1105.5C 2137.17,1105.5 2156.83,1105.5 2176.5,1105.5C 2176.82,1098.98 2176.49,1092.64 2175.5,1086.5C 2174.6,1078.88 2174.27,1071.21 2174.5,1063.5 Z"/></g>
<g><path style="opacity:1" fill="#e9e4da" d="M 292.5,1104.5 C 292.027,1105.91 291.027,1106.57 289.5,1106.5C 255.342,1107.77 221.342,1107.77 187.5,1106.5C 187.842,1105.66 188.508,1105.33 189.5,1105.5C 223.843,1105.73 258.176,1105.4 292.5,1104.5 Z"/></g>
<g><path style="opacity:1" fill="#848388" d="M 2014.5,1097.5 C 2015.87,1097.34 2017.21,1097.51 2018.5,1098C 2020,1100.48 2021.5,1102.98 2023,1105.5C 2026.63,1109.54 2029.8,1109.04 2032.5,1104C 2034.17,1103.83 2035.83,1103.67 2037.5,1103.5C 2047.54,1105.34 2057.71,1106.34 2068,1106.5C 2080.66,1105.79 2093.33,1105.13 2106,1104.5C 2110.02,1104.5 2113.85,1104.83 2117.5,1105.5C 2101.14,1105.92 2084.8,1106.92 2068.5,1108.5C 2058.19,1107.47 2047.86,1106.14 2037.5,1104.5C 2033.84,1104.48 2031.17,1106.15 2029.5,1109.5C 2028.68,1110.39 2027.68,1110.72 2026.5,1110.5C 2022.28,1106.4 2018.28,1102.06 2014.5,1097.5 Z"/></g>
<g><path style="opacity:1" fill="#a4a0a3" d="M 2117.5,1105.5 C 2137.36,1106.19 2157.36,1107.19 2177.5,1108.5C 2179.54,1133.47 2181.37,1158.47 2183,1183.5C 2184.85,1201.67 2187.01,1219.67 2189.5,1237.5C 2190.36,1251.69 2192.52,1265.69 2196,1279.5C 2196.71,1280.97 2197.88,1281.64 2199.5,1281.5C 2200.37,1284.91 2201.53,1288.24 2203,1291.5C 2204.05,1293.38 2205.55,1294.72 2207.5,1295.5C 2207.5,1296.83 2207.5,1298.17 2207.5,1299.5C 2196.54,1301.76 2185.54,1303.93 2174.5,1306C 2171.69,1306.98 2169.02,1308.15 2166.5,1309.5C 2148.77,1311.4 2131.1,1314.4 2113.5,1318.5C 2112.76,1319.18 2112.09,1319.85 2111.5,1320.5C 2103.05,1322.8 2094.38,1324.47 2085.5,1325.5C 2084.45,1325.32 2083.45,1324.99 2082.5,1324.5C 2079.5,1314.34 2077.33,1304 2076,1293.5C 2075.29,1292.62 2074.46,1291.95 2073.5,1291.5C 2073.5,1291.17 2073.5,1290.83 2073.5,1290.5C 2073.67,1287.15 2073.5,1283.82 2073,1280.5C 2067.19,1255.52 2061.52,1230.52 2056,1205.5C 2055.26,1189.67 2051.76,1174.67 2045.5,1160.5C 2043.47,1148.25 2041.97,1135.92 2041,1123.5C 2038.16,1120.99 2035.66,1118.16 2033.5,1115C 2031.92,1113.91 2030.26,1113.07 2028.5,1112.5C 2027.5,1112.17 2026.83,1111.5 2026.5,1110.5C 2027.68,1110.72 2028.68,1110.39 2029.5,1109.5C 2031.17,1106.15 2033.84,1104.48 2037.5,1104.5C 2047.86,1106.14 2058.19,1107.47 2068.5,1108.5C 2084.8,1106.92 2101.14,1105.92 2117.5,1105.5 Z"/></g>
<g><path style="opacity:1" fill="#fdfaed" d="M 187.5,1106.5 C 221.342,1107.77 255.342,1107.77 289.5,1106.5C 289.269,1109.9 287.436,1111.9 284,1112.5C 280.536,1116.94 277.536,1121.61 275,1126.5C 272.403,1130.83 270.737,1135.49 270,1140.5C 263.595,1148.64 258.762,1157.64 255.5,1167.5C 253.549,1168.72 252.049,1170.38 251,1172.5C 251.615,1170.24 251.948,1167.91 252,1165.5C 251.163,1167.84 249.829,1169.84 248,1171.5C 241.947,1183.94 235.613,1196.27 229,1208.5C 228.51,1209.79 228.343,1211.13 228.5,1212.5C 225.566,1213.29 223.732,1215.29 223,1218.5C 222.667,1220.83 222.333,1223.17 222,1225.5C 217.462,1231.57 214.296,1238.24 212.5,1245.5C 210.175,1246.65 209.008,1248.65 209,1251.5C 207.327,1254 205.493,1256.33 203.5,1258.5C 202.704,1262.76 200.871,1266.42 198,1269.5C 194.237,1272.87 191.07,1276.71 188.5,1281C 184.697,1282.21 181.697,1281.21 179.5,1278C 173.719,1269.02 169.052,1259.52 165.5,1249.5C 162.757,1249.92 161.424,1248.76 161.5,1246C 162.401,1241.19 163.068,1236.36 163.5,1231.5C 166.169,1224.42 168.336,1217.09 170,1209.5C 175.794,1179.83 181.127,1150.16 186,1120.5C 186.499,1116.51 186.666,1112.51 186.5,1108.5C 186.328,1107.51 186.662,1106.84 187.5,1106.5 Z"/></g>
<g><path style="opacity:1" fill="#afafa6" d="M 2028.5,1112.5 C 2030.26,1113.07 2031.92,1113.91 2033.5,1115C 2035.66,1118.16 2038.16,1120.99 2041,1123.5C 2041.97,1135.92 2043.47,1148.25 2045.5,1160.5C 2042.69,1148.7 2040.19,1136.7 2038,1124.5C 2034.89,1121.9 2032.39,1118.9 2030.5,1115.5C 2029.83,1114.5 2029.17,1113.5 2028.5,1112.5 Z"/></g>
<g><path style="opacity:1" fill="#f1f1de" d="M 292.5,1104.5 C 293.043,1104.56 293.376,1104.89 293.5,1105.5C 280.808,1126.23 268.141,1146.9 255.5,1167.5C 258.762,1157.64 263.595,1148.64 270,1140.5C 270.737,1135.49 272.403,1130.83 275,1126.5C 277.536,1121.61 280.536,1116.94 284,1112.5C 287.436,1111.9 289.269,1109.9 289.5,1106.5C 291.027,1106.57 292.027,1105.91 292.5,1104.5 Z"/></g>
<g><path style="opacity:1" fill="#b4b5a7" d="M 2181.5,1131.5 C 2183.47,1145.96 2184.81,1160.63 2185.5,1175.5C 2184.71,1174.39 2184.21,1173.06 2184,1171.5C 2182.57,1158.2 2181.74,1144.87 2181.5,1131.5 Z"/></g>
<g><path style="opacity:1" fill="#ededd9" d="M 186.5,1108.5 C 186.666,1112.51 186.499,1116.51 186,1120.5C 181.127,1150.16 175.794,1179.83 170,1209.5C 168.336,1217.09 166.169,1224.42 163.5,1231.5C 170.861,1190.32 178.527,1149.32 186.5,1108.5 Z"/></g>
<g><path style="opacity:1" fill="#f0f0dd" d="M 255.5,1167.5 C 240.627,1193.25 226.294,1219.25 212.5,1245.5C 214.296,1238.24 217.462,1231.57 222,1225.5C 222.333,1223.17 222.667,1220.83 223,1218.5C 223.732,1215.29 225.566,1213.29 228.5,1212.5C 228.343,1211.13 228.51,1209.79 229,1208.5C 235.613,1196.27 241.947,1183.94 248,1171.5C 249.829,1169.84 251.163,1167.84 252,1165.5C 251.948,1167.91 251.615,1170.24 251,1172.5C 252.049,1170.38 253.549,1168.72 255.5,1167.5 Z"/></g>
<g><path style="opacity:1" fill="#a9a6a4" d="M 2177.5,1106.5 C 2178.94,1114.36 2180.27,1122.36 2181.5,1130.5C 2181.5,1130.83 2181.5,1131.17 2181.5,1131.5C 2181.74,1144.87 2182.57,1158.2 2184,1171.5C 2184.21,1173.06 2184.71,1174.39 2185.5,1175.5C 2185.5,1175.83 2185.5,1176.17 2185.5,1176.5C 2185.33,1184.51 2185.5,1192.51 2186,1200.5C 2187.56,1212.8 2188.73,1225.13 2189.5,1237.5C 2187.01,1219.67 2184.85,1201.67 2183,1183.5C 2181.37,1158.47 2179.54,1133.47 2177.5,1108.5C 2177.5,1107.83 2177.5,1107.17 2177.5,1106.5 Z"/></g>
<g><path style="opacity:1" fill="#b2b3a7" d="M 2045.5,1160.5 C 2051.76,1174.67 2055.26,1189.67 2056,1205.5C 2061.52,1230.52 2067.19,1255.52 2073,1280.5C 2073.5,1283.82 2073.67,1287.15 2073.5,1290.5C 2063.54,1247.42 2054.2,1204.09 2045.5,1160.5 Z"/></g>
<g><path style="opacity:1" fill="#aeaea6" d="M 2185.5,1176.5 C 2188.16,1205.79 2191.66,1235.12 2196,1264.5C 2197.98,1275.61 2201.81,1285.94 2207.5,1295.5C 2205.55,1294.72 2204.05,1293.38 2203,1291.5C 2201.53,1288.24 2200.37,1284.91 2199.5,1281.5C 2197.88,1281.64 2196.71,1280.97 2196,1279.5C 2192.52,1265.69 2190.36,1251.69 2189.5,1237.5C 2188.73,1225.13 2187.56,1212.8 2186,1200.5C 2185.5,1192.51 2185.33,1184.51 2185.5,1176.5 Z"/></g>
<g><path style="opacity:1" fill="#e9ebd4" d="M 163.5,1231.5 C 163.068,1236.36 162.401,1241.19 161.5,1246C 161.424,1248.76 162.757,1249.92 165.5,1249.5C 169.052,1259.52 173.719,1269.02 179.5,1278C 181.697,1281.21 184.697,1282.21 188.5,1281C 191.07,1276.71 194.237,1272.87 198,1269.5C 200.871,1266.42 202.704,1262.76 203.5,1258.5C 205.493,1256.33 207.327,1254 209,1251.5C 209.008,1248.65 210.175,1246.65 212.5,1245.5C 207.379,1258.45 200.379,1270.29 191.5,1281C 183.526,1284.94 177.693,1282.77 174,1274.5C 170.365,1265.23 165.699,1256.56 160,1248.5C 160.53,1242.64 161.696,1236.98 163.5,1231.5 Z"/></g>
<g><path style="opacity:1" fill="#b3b4a7" d="M 2207.5,1295.5 C 2209.21,1296.64 2209.88,1298.3 2209.5,1300.5C 2195.21,1303.66 2180.87,1306.66 2166.5,1309.5C 2169.02,1308.15 2171.69,1306.98 2174.5,1306C 2185.54,1303.93 2196.54,1301.76 2207.5,1299.5C 2207.5,1298.17 2207.5,1296.83 2207.5,1295.5 Z"/></g>
<g><path style="opacity:1" fill="#adaca5" d="M 2166.5,1309.5 C 2153.05,1312.94 2139.38,1315.94 2125.5,1318.5C 2120.59,1318.12 2115.92,1318.79 2111.5,1320.5C 2112.09,1319.85 2112.76,1319.18 2113.5,1318.5C 2131.1,1314.4 2148.77,1311.4 2166.5,1309.5 Z"/></g>
<g><path style="opacity:1" fill="#b3b4a7" d="M 2073.5,1291.5 C 2074.46,1291.95 2075.29,1292.62 2076,1293.5C 2077.33,1304 2079.5,1314.34 2082.5,1324.5C 2083.45,1324.99 2084.45,1325.32 2085.5,1325.5C 2094.38,1324.47 2103.05,1322.8 2111.5,1320.5C 2115.92,1318.79 2120.59,1318.12 2125.5,1318.5C 2111.16,1322.67 2096.5,1325.5 2081.5,1327C 2078.13,1315.34 2075.47,1303.51 2073.5,1291.5 Z"/></g>
<g><path style="opacity:0.975" fill="#094066" d="M 257.5,1463.5 C 270.965,1463.12 283.298,1466.62 294.5,1474C 302.532,1482.03 304.699,1491.53 301,1502.5C 298.394,1508.88 294.894,1514.71 290.5,1520C 302.064,1524.56 309.898,1532.73 314,1544.5C 319.886,1559.48 318.219,1573.48 309,1586.5C 302.663,1594.18 295.163,1600.34 286.5,1605C 268.234,1614.98 248.901,1621.98 228.5,1626C 215.882,1628.04 207.049,1623.21 202,1611.5C 200.687,1607.58 199.687,1603.58 199,1599.5C 198.333,1589.83 198.333,1580.17 199,1570.5C 202,1553.5 205,1536.5 208,1519.5C 208.387,1509.48 209.054,1499.48 210,1489.5C 212.244,1480.26 217.744,1473.76 226.5,1470C 236.66,1466.31 246.993,1464.15 257.5,1463.5 Z M 251.5,1489.5 C 257.072,1488.99 262.405,1489.82 267.5,1492C 272.472,1495.53 273.638,1500.03 271,1505.5C 266.116,1512.19 259.949,1517.36 252.5,1521C 246.531,1524.27 240.197,1526.43 233.5,1527.5C 233.404,1518 234.571,1508.67 237,1499.5C 240.64,1494.35 245.474,1491.01 251.5,1489.5 Z M 270.5,1541.5 C 278.157,1540.65 282.99,1543.98 285,1551.5C 286.896,1559.03 285.563,1566.03 281,1572.5C 270.025,1585.96 255.859,1593.62 238.5,1595.5C 230.451,1595.45 225.784,1591.45 224.5,1583.5C 225.528,1565.3 234.528,1552.8 251.5,1546C 257.832,1543.91 264.165,1542.41 270.5,1541.5 Z"/></g>
<g><path style="opacity:0.969" fill="#094066" d="M 650.5,1463.5 C 669.616,1463.55 688.616,1465.05 707.5,1468C 712.488,1472.62 713.988,1478.12 712,1484.5C 710.363,1486.81 708.196,1488.31 705.5,1489C 699.222,1490.19 692.888,1490.69 686.5,1490.5C 685.883,1519.5 685.05,1548.5 684,1577.5C 683.963,1591.69 680.629,1605.03 674,1617.5C 665.202,1627.41 654.369,1630.58 641.5,1627C 628.587,1622.09 618.754,1613.59 612,1601.5C 601.461,1583.56 596.461,1564.22 597,1543.5C 596.947,1540.39 598.114,1537.89 600.5,1536C 608.58,1532.22 614.08,1534.39 617,1542.5C 619.821,1552.79 622.488,1563.12 625,1573.5C 627.034,1583.75 632.201,1591.92 640.5,1598C 645.398,1601.18 649.565,1600.68 653,1596.5C 654.811,1592.01 655.811,1587.35 656,1582.5C 659.454,1551.21 660.12,1519.87 658,1488.5C 651.744,1487.93 645.577,1486.76 639.5,1485C 632.827,1480.49 630.494,1474.32 632.5,1466.5C 633.5,1466 634.5,1465.5 635.5,1465C 640.684,1464.83 645.684,1464.33 650.5,1463.5 Z"/></g>
<g><path style="opacity:0.97" fill="#093f66" d="M 397.5,1464.5 C 409.562,1464.09 421.562,1464.59 433.5,1466C 442.095,1470.79 443.428,1477.12 437.5,1485C 435.913,1485.86 434.246,1486.53 432.5,1487C 422.167,1487.33 411.833,1487.67 401.5,1488C 383.661,1491 374.661,1501.5 374.5,1519.5C 392.354,1517.03 410.187,1514.36 428,1511.5C 440.551,1511.7 444.885,1517.7 441,1529.5C 439.062,1532.11 436.562,1533.94 433.5,1535C 418.25,1537.73 402.917,1540.06 387.5,1542C 372.568,1548 365.235,1559.17 365.5,1575.5C 366.011,1582.26 367.011,1588.92 368.5,1595.5C 371.833,1596.01 375.166,1595.51 378.5,1594C 388.779,1589.53 398.779,1584.53 408.5,1579C 415.232,1575.87 422.232,1573.53 429.5,1572C 437.938,1569.74 444.771,1571.9 450,1578.5C 449.283,1583.27 446.783,1587.1 442.5,1590C 419.893,1605.14 395.56,1616.8 369.5,1625C 364.167,1625.67 358.833,1625.67 353.5,1625C 349.725,1623.56 346.892,1621.06 345,1617.5C 339.495,1601.95 337.495,1585.95 339,1569.5C 342.692,1539.71 348.692,1510.37 357,1481.5C 359.552,1477.28 363.052,1474.11 367.5,1472C 377.311,1468.21 387.311,1465.71 397.5,1464.5 Z"/></g>
<g><path style="opacity:0.971" fill="#094066" d="M 785.5,1464.5 C 796.12,1462.9 804.287,1466.56 810,1475.5C 815.558,1486.51 818.891,1498.18 820,1510.5C 821.82,1530.19 823.82,1549.85 826,1569.5C 829.051,1580.54 831.551,1591.71 833.5,1603C 833.491,1612.02 829.825,1619.02 822.5,1624C 814.959,1626.14 809.126,1623.97 805,1617.5C 803.688,1607.55 802.854,1597.55 802.5,1587.5C 788.204,1587.02 773.87,1587.52 759.5,1589C 755.629,1597.93 752.129,1607.09 749,1616.5C 743.484,1627.33 736.484,1628.33 728,1619.5C 725.94,1607.14 726.274,1594.8 729,1582.5C 736.482,1550.05 747.149,1518.72 761,1488.5C 766.435,1477.56 774.602,1469.56 785.5,1464.5 Z M 789.5,1493.5 C 794.352,1499.53 797.185,1506.53 798,1514.5C 800.008,1530.79 801.508,1547.13 802.5,1563.5C 789.496,1563.67 776.496,1563.5 763.5,1563C 766.649,1542.24 772.816,1522.4 782,1503.5C 784.717,1500.29 787.217,1496.96 789.5,1493.5 Z"/></g>
<g><path style="opacity:0.967" fill="#094066" d="M 1043.5,1463.5 C 1048.08,1463.57 1051.58,1465.57 1054,1469.5C 1055.54,1474.04 1056.37,1478.7 1056.5,1483.5C 1054.37,1505.84 1052.2,1528.17 1050,1550.5C 1049.69,1567.18 1049.02,1583.85 1048,1600.5C 1047.23,1609.44 1044.39,1617.61 1039.5,1625C 1033.27,1630.31 1028.1,1629.48 1024,1622.5C 1021.52,1606.94 1020.85,1591.27 1022,1575.5C 1024.82,1543.78 1028.15,1512.11 1032,1480.5C 1032.9,1472.65 1036.74,1466.99 1043.5,1463.5 Z"/></g>
<g><path style="opacity:0.97" fill="#093f66" d="M 1489.5,1464.5 C 1501.56,1464.09 1513.56,1464.59 1525.5,1466C 1534.1,1470.79 1535.43,1477.12 1529.5,1485C 1527.91,1485.86 1526.25,1486.53 1524.5,1487C 1514.17,1487.33 1503.83,1487.67 1493.5,1488C 1475.66,1491 1466.66,1501.5 1466.5,1519.5C 1484.35,1517.03 1502.19,1514.36 1520,1511.5C 1532.55,1511.7 1536.88,1517.7 1533,1529.5C 1531.06,1532.11 1528.56,1533.94 1525.5,1535C 1510.25,1537.73 1494.92,1540.06 1479.5,1542C 1464.57,1548 1457.23,1559.17 1457.5,1575.5C 1458.01,1582.26 1459.01,1588.92 1460.5,1595.5C 1463.83,1596.01 1467.17,1595.51 1470.5,1594C 1480.78,1589.53 1490.78,1584.53 1500.5,1579C 1507.23,1575.87 1514.23,1573.53 1521.5,1572C 1529.94,1569.74 1536.77,1571.9 1542,1578.5C 1541.28,1583.27 1538.78,1587.1 1534.5,1590C 1511.89,1605.14 1487.56,1616.8 1461.5,1625C 1456.17,1625.67 1450.83,1625.67 1445.5,1625C 1441.73,1623.56 1438.89,1621.06 1437,1617.5C 1431.49,1601.95 1429.49,1585.95 1431,1569.5C 1434.69,1539.71 1440.69,1510.37 1449,1481.5C 1451.55,1477.28 1455.05,1474.11 1459.5,1472C 1469.31,1468.21 1479.31,1465.71 1489.5,1464.5 Z"/></g>
<g><path style="opacity:0.975" fill="#093f66" d="M 1611.5,1464.5 C 1623.88,1464.13 1636.21,1464.63 1648.5,1466C 1667.7,1471.89 1675.2,1484.72 1671,1504.5C 1668.3,1513.57 1663.8,1521.57 1657.5,1528.5C 1668.53,1535.88 1675.03,1546.21 1677,1559.5C 1679.65,1573.57 1676.65,1586.24 1668,1597.5C 1653.06,1613.72 1634.56,1623.22 1612.5,1626C 1601.83,1628 1591.17,1628 1580.5,1626C 1572.61,1623.74 1567.78,1618.58 1566,1610.5C 1564.45,1605.79 1563.61,1600.95 1563.5,1596C 1566.26,1579.55 1568.76,1563.05 1571,1546.5C 1571.9,1525.16 1572.9,1503.83 1574,1482.5C 1584.43,1472.03 1596.93,1466.03 1611.5,1464.5 Z M 1617.5,1489.5 C 1624.51,1489.33 1631.51,1489.5 1638.5,1490C 1644.25,1495.02 1645.08,1500.85 1641,1507.5C 1634.39,1516.73 1625.56,1522.9 1614.5,1526C 1608.19,1527.99 1601.86,1529.83 1595.5,1531.5C 1594.96,1520.84 1596.46,1510.5 1600,1500.5C 1604.58,1494.64 1610.41,1490.97 1617.5,1489.5 Z M 1629.5,1547.5 C 1645.55,1548.42 1651.39,1556.75 1647,1572.5C 1640.27,1587.97 1628.44,1596.8 1611.5,1599C 1604.54,1600.09 1597.54,1600.59 1590.5,1600.5C 1589.45,1589.79 1589.95,1579.13 1592,1568.5C 1602.5,1557.81 1615,1550.81 1629.5,1547.5 Z"/></g>
<g><path style="opacity:0.972" fill="#094066" d="M 557.5,1465.5 C 561.13,1465.76 564.297,1467.1 567,1469.5C 569.742,1474.13 571.409,1479.13 572,1484.5C 570.09,1523.12 569.09,1561.79 569,1600.5C 569.146,1609.74 565.979,1617.57 559.5,1624C 551.81,1626.59 545.644,1624.42 541,1617.5C 533.653,1606.81 527.319,1595.48 522,1583.5C 515.528,1567.75 508.862,1552.08 502,1536.5C 500.401,1556.48 499.068,1576.48 498,1596.5C 497.399,1606.42 494.565,1615.59 489.5,1624C 482.778,1626.2 477.278,1624.37 473,1618.5C 471.245,1615.4 470.411,1612.07 470.5,1608.5C 471.9,1596.77 473.734,1585.1 476,1573.5C 476.205,1551.79 477.205,1530.13 479,1508.5C 480.356,1498.36 482.356,1488.36 485,1478.5C 490.58,1466.46 497.58,1465.46 506,1475.5C 513.803,1497.24 521.803,1518.91 530,1540.5C 533.989,1549.82 538.989,1558.49 545,1566.5C 546.047,1538.52 547.047,1510.52 548,1482.5C 548.612,1475.26 551.778,1469.6 557.5,1465.5 Z"/></g>
<g><path style="opacity:0.972" fill="#094066" d="M 894.5,1465.5 C 900.944,1466.44 905.111,1470.1 907,1476.5C 914.231,1503.49 919.731,1530.82 923.5,1558.5C 933.284,1536.66 942.784,1514.66 952,1492.5C 955.241,1485.01 959.241,1478.01 964,1471.5C 965.841,1468.82 968.341,1467.16 971.5,1466.5C 983.798,1470.72 990.631,1479.39 992,1492.5C 994.237,1511.59 993.57,1530.59 990,1549.5C 989.667,1566.17 989.333,1582.83 989,1599.5C 988.692,1608.09 986.192,1615.92 981.5,1623C 972.076,1626.37 965.909,1623.2 963,1613.5C 964.036,1594.7 964.869,1575.86 965.5,1557C 965.803,1546.07 964.97,1535.23 963,1524.5C 954.656,1548.53 945.322,1572.2 935,1595.5C 932.252,1600.67 929.252,1605.67 926,1610.5C 921.836,1615.57 917.503,1615.57 913,1610.5C 911.392,1607.62 910.059,1604.62 909,1601.5C 904.303,1577.68 898.97,1554.02 893,1530.5C 890.405,1540 888.738,1549.67 888,1559.5C 887.386,1579.52 886.72,1599.52 886,1619.5C 884.604,1622.78 882.104,1624.45 878.5,1624.5C 874.521,1624.3 871.021,1622.97 868,1620.5C 863.344,1608.63 861.178,1596.3 861.5,1583.5C 862.044,1548.57 867.877,1514.57 879,1481.5C 881.746,1473.59 886.913,1468.26 894.5,1465.5 Z"/></g>
<g><path style="opacity:0.972" fill="#094066" d="M 1165.5,1465.5 C 1169.13,1465.76 1172.3,1467.1 1175,1469.5C 1177.74,1474.13 1179.41,1479.13 1180,1484.5C 1178.09,1523.12 1177.09,1561.79 1177,1600.5C 1177.15,1609.74 1173.98,1617.57 1167.5,1624C 1159.81,1626.59 1153.64,1624.42 1149,1617.5C 1141.65,1606.81 1135.32,1595.48 1130,1583.5C 1123.53,1567.75 1116.86,1552.08 1110,1536.5C 1108.4,1556.48 1107.07,1576.48 1106,1596.5C 1105.4,1606.42 1102.57,1615.59 1097.5,1624C 1090.78,1626.2 1085.28,1624.37 1081,1618.5C 1079.24,1615.4 1078.41,1612.07 1078.5,1608.5C 1079.9,1596.77 1081.73,1585.1 1084,1573.5C 1084.2,1551.79 1085.2,1530.13 1087,1508.5C 1088.36,1498.36 1090.36,1488.36 1093,1478.5C 1098.58,1466.46 1105.58,1465.46 1114,1475.5C 1121.8,1497.24 1129.8,1518.91 1138,1540.5C 1141.99,1549.82 1146.99,1558.49 1153,1566.5C 1154.05,1538.52 1155.05,1510.52 1156,1482.5C 1156.61,1475.26 1159.78,1469.6 1165.5,1465.5 Z"/></g>
<g><path style="opacity:0.968" fill="#094066" d="M 1329.5,1466.5 C 1338.48,1466.16 1342.15,1470.49 1340.5,1479.5C 1338.41,1503.87 1335.91,1528.21 1333,1552.5C 1332.33,1563.17 1332.33,1573.83 1333,1584.5C 1333.66,1589.82 1335.5,1594.66 1338.5,1599C 1340.17,1599.17 1341.83,1599.33 1343.5,1599.5C 1357.99,1597.46 1372.32,1594.63 1386.5,1591C 1395.89,1588.43 1403.39,1590.93 1409,1598.5C 1411.16,1601.86 1410.99,1605.03 1408.5,1608C 1383.77,1621.1 1357.43,1627.43 1329.5,1627C 1320.99,1625.16 1314.83,1620.33 1311,1612.5C 1307.26,1603.87 1304.92,1594.87 1304,1585.5C 1303.3,1547.71 1309.3,1511.05 1322,1475.5C 1324.33,1472.33 1326.83,1469.33 1329.5,1466.5 Z"/></g>
<g><path style="opacity:0.971" fill="#094066" d="M 1748.5,1466.5 C 1758.84,1466.33 1769.17,1466.5 1779.5,1467C 1799.6,1469.61 1809.6,1481.11 1809.5,1501.5C 1809.2,1510.43 1806.37,1518.43 1801,1525.5C 1790.22,1539.64 1776.38,1549.47 1759.5,1555C 1768.74,1566.15 1777.74,1577.48 1786.5,1589C 1795.92,1594.46 1805.09,1600.29 1814,1606.5C 1817.79,1613.14 1816.29,1618.31 1809.5,1622C 1792.98,1625.83 1779.48,1621 1769,1607.5C 1759.92,1595.08 1750.09,1583.25 1739.5,1572C 1737,1570.25 1734.33,1568.75 1731.5,1567.5C 1730.81,1568.03 1730.31,1568.69 1730,1569.5C 1729.07,1575.65 1728.23,1581.82 1727.5,1588C 1728.79,1598.84 1728.63,1609.68 1727,1620.5C 1726.4,1624.27 1724.23,1625.94 1720.5,1625.5C 1710.87,1623.02 1705.71,1616.69 1705,1606.5C 1704.33,1597.83 1704.33,1589.17 1705,1580.5C 1709.25,1552.66 1711.91,1524.66 1713,1496.5C 1713.74,1491.45 1714.74,1486.45 1716,1481.5C 1718.25,1476.29 1722.08,1472.79 1727.5,1471C 1734.54,1469.05 1741.54,1467.55 1748.5,1466.5 Z M 1754.5,1489.5 C 1761.51,1489.33 1768.51,1489.5 1775.5,1490C 1780.15,1491.31 1782.49,1494.31 1782.5,1499C 1780.9,1510.94 1774.9,1519.94 1764.5,1526C 1754.81,1531.17 1744.47,1533.67 1733.5,1533.5C 1732.08,1521.02 1732.91,1508.69 1736,1496.5C 1736.78,1494.71 1737.95,1493.21 1739.5,1492C 1744.64,1491.16 1749.64,1490.33 1754.5,1489.5 Z"/></g>
<g><path style="opacity:0.97" fill="#094066" d="M 1909.5,1465.5 C 1926.03,1466.01 1938.53,1473.35 1947,1487.5C 1968.24,1529.78 1964.24,1569.44 1935,1606.5C 1921.5,1622.77 1904.33,1629.61 1883.5,1627C 1872.01,1623.18 1863.17,1616.01 1857,1605.5C 1837.99,1566.09 1840.99,1528.42 1866,1492.5C 1876.89,1477.4 1891.39,1468.4 1909.5,1465.5 Z M 1906.5,1492.5 C 1921.72,1493.88 1930.22,1502.22 1932,1517.5C 1933.66,1536.57 1931.66,1555.24 1926,1573.5C 1921.87,1586.62 1913.37,1595.46 1900.5,1600C 1885.78,1601.95 1876.28,1595.78 1872,1581.5C 1866.92,1556.3 1870.25,1532.3 1882,1509.5C 1887.97,1500.45 1896.14,1494.78 1906.5,1492.5 Z"/></g>
<g><path style="opacity:0.972" fill="#094066" d="M 2070.5,1465.5 C 2074.13,1465.76 2077.3,1467.1 2080,1469.5C 2082.74,1474.13 2084.41,1479.13 2085,1484.5C 2083.09,1523.12 2082.09,1561.79 2082,1600.5C 2082.15,1609.74 2078.98,1617.57 2072.5,1624C 2064.81,1626.59 2058.64,1624.42 2054,1617.5C 2046.65,1606.81 2040.32,1595.48 2035,1583.5C 2028.53,1567.75 2021.86,1552.08 2015,1536.5C 2013.4,1556.48 2012.07,1576.48 2011,1596.5C 2010.4,1606.42 2007.57,1615.59 2002.5,1624C 1995.78,1626.2 1990.28,1624.37 1986,1618.5C 1984.24,1615.4 1983.41,1612.07 1983.5,1608.5C 1984.9,1596.77 1986.73,1585.1 1989,1573.5C 1989.2,1551.79 1990.2,1530.13 1992,1508.5C 1993.36,1498.36 1995.36,1488.36 1998,1478.5C 2003.58,1466.46 2010.58,1465.46 2019,1475.5C 2026.8,1497.24 2034.8,1518.91 2043,1540.5C 2046.99,1549.82 2051.99,1558.49 2058,1566.5C 2059.05,1538.52 2060.05,1510.52 2061,1482.5C 2061.61,1475.26 2064.78,1469.6 2070.5,1465.5 Z"/></g>
</svg>
