<?xml version="1.0" encoding="UTF-8"?>
<!DOCTYPE svg PUBLIC "-//W3C//DTD SVG 1.1//EN" "http://www.w3.org/Graphics/SVG/1.1/DTD/svg11.dtd">
<svg xmlns="http://www.w3.org/2000/svg" version="1.1" width="2429px" height="1630px" style="shape-rendering:geometricPrecision; text-rendering:geometricPrecision; image-rendering:optimizeQuality; fill-rule:evenodd; clip-rule:evenodd" xmlns:xlink="http://www.w3.org/1999/xlink">
<g><path style="opacity:0.996" fill="#3c3b41" d="M 1322.5,58.5 C 1321.5,58.8333 1320.83,59.5 1320.5,60.5C 1319.07,60.8807 1318.24,61.8807 1318,63.5C 1316.67,75.4956 1315.33,87.4956 1314,99.5C 1311.63,105.819 1310.13,112.319 1309.5,119C 1313.79,134.023 1316.12,149.356 1316.5,165C 1316.72,245.835 1316.22,326.669 1315,407.5C 1314.08,410.101 1313.41,412.768 1313,415.5C 1308.97,416.755 1304.8,417.422 1300.5,417.5C 1286.68,416.517 1272.85,415.851 1259,415.5C 1224.17,416.148 1189.34,416.148 1154.5,415.5C 1109.1,413.392 1063.77,414.725 1018.5,419.5C 1014.5,419.167 1010.5,418.833 1006.5,418.5C 1002.91,417.07 999.242,415.903 995.5,415C 983.713,415.063 972.046,414.063 960.5,412C 957.986,411.119 955.986,409.619 954.5,407.5C 953.877,371.443 953.21,335.277 952.5,299C 953.738,283.55 955.071,268.05 956.5,252.5C 955.609,239.148 954.609,225.815 953.5,212.5C 954.954,196.891 955.787,181.224 956,165.5C 958.043,161.192 960.543,157.192 963.5,153.5C 965.478,150.988 968.145,149.488 971.5,149C 974.333,145.5 977.5,142.333 981,139.5C 985.171,127.995 992.338,118.829 1002.5,112C 1010.23,108.397 1018.23,105.397 1026.5,103C 1033.64,99.2608 1040.64,95.2608 1047.5,91C 1052.97,86.3819 1055.3,80.5486 1054.5,73.5C 1055.17,72.8333 1055.83,72.1667 1056.5,71.5C 1113.16,66.4304 1169.82,60.7637 1226.5,54.5C 1228,55.3058 1229.66,55.9724 1231.5,56.5C 1233.17,55.1514 1234.84,53.9848 1236.5,53C 1235.55,52.5172 1234.55,52.3505 1233.5,52.5C 1251.31,50.514 1269.31,48.8474 1287.5,47.5C 1293.94,48.527 1300.27,50.027 1306.5,52C 1311.59,55.0765 1316.92,57.2432 1322.5,58.5 Z"/></g>
<g><path style="opacity:0.086" fill="#2e205d" d="M 1233.5,52.5 C 1234.55,52.3505 1235.55,52.5172 1236.5,53C 1234.84,53.9848 1233.17,55.1514 1231.5,56.5C 1229.66,55.9724 1228,55.3058 1226.5,54.5C 1229.21,54.8151 1231.54,54.1484 1233.5,52.5 Z"/></g>
<g><path style="opacity:0.994" fill="#5f6268" d="M 1322.5,58.5 C 1357.45,70.6496 1392.45,82.4829 1427.5,94C 1446.78,99.5883 1466.11,104.922 1485.5,110C 1486.17,110.667 1486.83,111.333 1487.5,112C 1498.79,113.788 1509.79,116.455 1520.5,120C 1536.13,124.259 1552.13,127.259 1568.5,129C 1570.97,129.113 1572.97,130.113 1574.5,132C 1596.78,134.154 1619.12,135.487 1641.5,136C 1656.59,137.264 1670.59,141.598 1683.5,149C 1689.9,153.19 1696.23,157.357 1702.5,161.5C 1702.5,161.833 1702.5,162.167 1702.5,162.5C 1696.24,168.698 1692.91,176.365 1692.5,185.5C 1693.52,195.685 1695.85,205.519 1699.5,215C 1695.69,222.137 1692.52,229.637 1690,237.5C 1688.66,251.53 1687,265.53 1685,279.5C 1684.31,310.866 1684.65,342.199 1686,373.5C 1684.82,384.458 1684.15,395.458 1684,406.5C 1681.83,411.333 1678.33,414.833 1673.5,417C 1646.47,417.098 1619.47,417.931 1592.5,419.5C 1578.36,417.95 1564.19,416.95 1550,416.5C 1535.27,416.651 1520.61,417.651 1506,419.5C 1480.24,416.701 1454.41,415.868 1428.5,417C 1422.47,417.427 1416.47,418.093 1410.5,419C 1399.13,423.854 1387.46,427.854 1375.5,431C 1358.49,432.759 1341.49,432.759 1324.5,431C 1322.58,428.91 1320.58,427.077 1318.5,425.5C 1318.14,423.629 1317.14,422.129 1315.5,421C 1250.64,420.21 1185.81,418.71 1121,416.5C 1086.81,417.402 1052.64,419.069 1018.5,421.5C 1010.21,421.476 1002.21,419.976 994.5,417C 985.167,416.667 975.833,416.333 966.5,416C 961.566,414.023 956.732,411.857 952,409.5C 951.5,378.835 951.333,348.168 951.5,317.5C 951.836,347.681 952.836,377.681 954.5,407.5C 955.986,409.619 957.986,411.119 960.5,412C 972.046,414.063 983.713,415.063 995.5,415C 999.242,415.903 1002.91,417.07 1006.5,418.5C 1010.5,418.833 1014.5,419.167 1018.5,419.5C 1063.77,414.725 1109.1,413.392 1154.5,415.5C 1156.63,416.314 1158.96,416.814 1161.5,417C 1194.33,417.897 1227.16,418.397 1260,418.5C 1278.55,418.493 1296.88,417.827 1315,416.5C 1315.82,414.212 1316.49,411.878 1317,409.5C 1317.69,384.828 1317.52,360.161 1316.5,335.5C 1317.57,322.022 1318.24,308.522 1318.5,295C 1317.19,251.834 1317.19,208.667 1318.5,165.5C 1318.17,158.5 1317.83,151.5 1317.5,144.5C 1316.91,144.291 1316.41,143.957 1316,143.5C 1312.88,132.693 1311.55,121.693 1312,110.5C 1312.91,105.832 1314.58,101.499 1317,97.5C 1317.23,85.0467 1318.4,72.7134 1320.5,60.5C 1320.83,59.5 1321.5,58.8333 1322.5,58.5 Z"/></g>
<g><path style="opacity:0.998" fill="#c5b7a8" d="M 1056.5,71.5 C 1055.83,72.1667 1055.17,72.8333 1054.5,73.5C 1052.74,80.1271 1049.41,85.9604 1044.5,91C 1038.25,94.623 1031.92,97.9563 1025.5,101C 1020.65,102.732 1015.65,103.732 1010.5,104C 1004.27,107.636 998.266,111.636 992.5,116C 986.575,122.574 982.409,130.074 980,138.5C 976.566,143.227 972.066,146.394 966.5,148C 960.921,152.246 956.088,157.079 952,162.5C 950.95,180.81 949.783,199.144 948.5,217.5C 953.646,241.444 953.813,265.444 949,289.5C 948.177,298.01 948.343,306.344 949.5,314.5C 949.5,345.5 949.5,376.5 949.5,407.5C 938.196,408.844 926.862,410.011 915.5,411C 912.312,411.449 909.645,412.782 907.5,415C 891.5,415.667 875.5,415.667 859.5,415C 854.275,413.721 849.609,411.388 845.5,408C 839.41,400.24 832.41,393.574 824.5,388C 808.665,382.293 792.332,379.96 775.5,381C 762.198,383.94 749.198,387.607 736.5,392C 729.153,397.353 722.486,403.353 716.5,410C 710.639,412.178 704.973,414.845 699.5,418C 683.618,432.778 665.285,437.111 644.5,431C 628.06,428.195 613.06,431.528 599.5,441C 592.444,443.963 585.111,445.797 577.5,446.5C 575.5,446.333 573.5,446.167 571.5,446C 567.23,441.63 565.73,436.463 567,430.5C 576.258,420.386 577.924,409.053 572,396.5C 569.21,392.566 566.71,388.566 564.5,384.5C 564.953,383.542 565.619,382.708 566.5,382C 588.409,374.809 610.409,367.809 632.5,361C 636.749,358.806 641.082,356.806 645.5,355C 641.678,352.168 637.345,350.501 632.5,350C 620.337,347.744 608.337,348.411 596.5,352C 586.639,355.046 576.972,358.546 567.5,362.5C 566.833,362.5 566.5,362.167 566.5,361.5C 567.289,361.217 567.956,360.717 568.5,360C 567.04,350.486 567.373,340.986 569.5,331.5C 574.732,320.696 579.899,309.696 585,298.5C 583.782,272.423 584.782,246.423 588,220.5C 590.26,214.572 594.427,210.739 600.5,209C 614.433,208.449 625.933,202.949 635,192.5C 635.494,190.866 635.66,189.199 635.5,187.5C 639.304,183.271 641.47,178.271 642,172.5C 642.667,166.167 642.667,159.833 642,153.5C 641.855,149.477 641.021,145.644 639.5,142C 640.056,141.617 640.389,141.117 640.5,140.5C 654.589,136.699 668.922,133.865 683.5,132C 685.001,130.748 686.668,129.748 688.5,129C 698.436,127.761 708.103,125.761 717.5,123C 731.018,120.484 744.351,117.484 757.5,114C 763.853,113.513 770.186,112.847 776.5,112C 777.167,111.333 777.833,110.667 778.5,110C 797.665,107.064 816.665,103.398 835.5,99C 843.802,96.4531 851.802,93.1198 859.5,89C 867.341,83.9131 875.008,78.5798 882.5,73C 888.917,69.7916 895.25,66.625 901.5,63.5C 902.5,63.8333 903.5,64.1667 904.5,64.5C 905.095,66.4404 905.428,68.4404 905.5,70.5C 904.011,77.1055 903.511,83.7721 904,90.5C 905.833,88 908,85.8333 910.5,84C 925.81,82.7153 941.143,81.7153 956.5,81C 982.974,77.7256 1009.64,75.3923 1036.5,74C 1037.67,73.5814 1038.67,72.9147 1039.5,72C 1045.16,71.5006 1050.82,71.3339 1056.5,71.5 Z"/></g>
<g><path style="opacity:0.997" fill="#e8e7ad" d="M 638.5,141.5 C 637.323,143.103 637.489,144.436 639,145.5C 645.248,165.977 640.415,183.144 624.5,197C 622.5,198 620.5,199 618.5,200C 610.117,201.423 601.784,203.089 593.5,205C 588.558,208.943 584.725,213.777 582,219.5C 578.89,242.137 578.39,264.804 580.5,287.5C 579.683,299.142 575.516,309.475 568,318.5C 567.517,322.467 566.184,326.134 564,329.5C 563.667,337.5 563.333,345.5 563,353.5C 560.867,355.138 558.367,355.971 555.5,356C 557.604,358.238 559.938,359.238 562.5,359C 560.502,360.593 558.502,362.093 556.5,363.5C 551.882,364.051 549.049,362.051 548,357.5C 546.977,342.616 548.31,327.95 552,313.5C 555.298,299.977 558.965,286.644 563,273.5C 563.291,264.31 564.625,255.31 567,246.5C 567.543,230.162 568.21,213.828 569,197.5C 571.957,188.47 575.79,179.804 580.5,171.5C 586.009,164.827 591.676,158.327 597.5,152C 599.275,150.561 601.275,149.561 603.5,149C 615.316,146.922 626.982,144.422 638.5,141.5 Z"/></g>
<g><path style="opacity:0.944" fill="#e6eae1" d="M 1702.5,161.5 C 1793,229.695 1881.33,300.528 1967.5,374C 1990.99,390.664 2014.32,407.498 2037.5,424.5C 2035.98,424.489 2034.82,423.823 2034,422.5C 2033.38,423.449 2033.55,424.282 2034.5,425C 2032.2,428.297 2029.54,431.297 2026.5,434C 2023.78,434.602 2021.11,434.435 2018.5,433.5C 2016.22,431.572 2013.55,430.572 2010.5,430.5C 2003.41,422.463 1995.08,416.13 1985.5,411.5C 1978.57,404.374 1970.9,398.207 1962.5,393C 1959.46,390.297 1956.8,387.297 1954.5,384C 1945.98,378.826 1938.32,372.493 1931.5,365C 1929.83,364.667 1928.17,364.333 1926.5,364C 1919.49,355.809 1911.49,348.976 1902.5,343.5C 1898.24,339.359 1893.24,336.192 1887.5,334C 1874.89,328.267 1861.89,323.267 1848.5,319C 1847,316.753 1845,315.086 1842.5,314C 1832.58,311.267 1822.58,308.934 1812.5,307C 1810.97,305.113 1808.97,304.113 1806.5,304C 1801.78,298.789 1796.78,293.789 1791.5,289C 1787.89,287.185 1784.56,284.852 1781.5,282C 1779.07,280.409 1776.41,279.575 1773.5,279.5C 1770.11,278.471 1767.44,276.471 1765.5,273.5C 1760.54,268.035 1755.37,262.702 1750,257.5C 1747.1,253.37 1744.43,249.037 1742,244.5C 1741.18,243.177 1740.02,242.511 1738.5,242.5C 1738.66,241.127 1738.49,239.793 1738,238.5C 1731.1,230.928 1723.6,224.095 1715.5,218C 1710.16,216.784 1705.33,214.617 1701,211.5C 1697.5,203.526 1695.34,195.193 1694.5,186.5C 1694.78,182.804 1695.28,179.137 1696,175.5C 1698.7,171.428 1700.87,167.094 1702.5,162.5C 1702.5,162.167 1702.5,161.833 1702.5,161.5 Z"/></g>
<g><path style="opacity:0.974" fill="#e1ddac" d="M 640.5,140.5 C 640.389,141.117 640.056,141.617 639.5,142C 641.021,145.644 641.855,149.477 642,153.5C 642.667,159.833 642.667,166.167 642,172.5C 641.47,178.271 639.304,183.271 635.5,187.5C 630.979,193.186 625.646,198.019 619.5,202C 612.145,203.574 604.812,205.241 597.5,207C 590.308,210.22 586.142,215.72 585,223.5C 582.519,247.793 581.852,272.126 583,296.5C 581.547,304.248 578.213,310.915 573,316.5C 567.103,330.914 564.936,345.914 566.5,361.5C 566.5,362.167 566.833,362.5 567.5,362.5C 563.906,364.27 560.24,364.603 556.5,363.5C 558.502,362.093 560.502,360.593 562.5,359C 559.938,359.238 557.604,358.238 555.5,356C 558.367,355.971 560.867,355.138 563,353.5C 563.333,345.5 563.667,337.5 564,329.5C 566.184,326.134 567.517,322.467 568,318.5C 575.516,309.475 579.683,299.142 580.5,287.5C 578.39,264.804 578.89,242.137 582,219.5C 584.725,213.777 588.558,208.943 593.5,205C 601.784,203.089 610.117,201.423 618.5,200C 620.5,199 622.5,198 624.5,197C 640.415,183.144 645.248,165.977 639,145.5C 637.489,144.436 637.323,143.103 638.5,141.5C 638.842,140.662 639.508,140.328 640.5,140.5 Z"/></g>
<g><path style="opacity:0.989" fill="#716e78" d="M 1702.5,162.5 C 1700.87,167.094 1698.7,171.428 1696,175.5C 1695.28,179.137 1694.78,182.804 1694.5,186.5C 1695.34,195.193 1697.5,203.526 1701,211.5C 1705.33,214.617 1710.16,216.784 1715.5,218C 1723.6,224.095 1731.1,230.928 1738,238.5C 1738.49,239.793 1738.66,241.127 1738.5,242.5C 1739.32,244.812 1740.15,247.146 1741,249.5C 1748.08,257.584 1755.58,265.417 1763.5,273C 1764.09,273.464 1764.76,273.631 1765.5,273.5C 1767.44,276.471 1770.11,278.471 1773.5,279.5C 1776.72,282.555 1779.38,286.055 1781.5,290C 1786.03,292.544 1790.53,295.044 1795,297.5C 1795.49,299.134 1795.66,300.801 1795.5,302.5C 1799.21,304.313 1803.21,305.48 1807.5,306C 1808.83,307 1810.17,308 1811.5,309C 1818.11,310.57 1824.44,312.903 1830.5,316C 1843.1,317.952 1854.76,322.285 1865.5,329C 1868.83,329.667 1872.17,330.333 1875.5,331C 1877.83,333.167 1880.5,334.834 1883.5,336C 1889.39,336.447 1894.39,338.78 1898.5,343C 1899.79,343.49 1901.13,343.657 1902.5,343.5C 1913.64,352.97 1924.31,363.304 1934.5,374.5C 1942.84,379.323 1950.17,385.49 1956.5,393C 1958.09,393.862 1959.75,394.529 1961.5,395C 1963.66,398.532 1966.33,401.532 1969.5,404C 1983.23,412.742 1996.89,421.575 2010.5,430.5C 2013.82,434.069 2017.82,436.736 2022.5,438.5C 2028.19,452.162 2035.86,464.495 2045.5,475.5C 2046.86,480.714 2049.36,485.381 2053,489.5C 2055.99,498.79 2059.49,507.79 2063.5,516.5C 2066.45,525.012 2065.95,533.346 2062,541.5C 2055.45,549.25 2051.95,558.25 2051.5,568.5C 2050.14,571.577 2049.31,574.91 2049,578.5C 2048.14,593.866 2048.47,609.199 2050,624.5C 2050.33,674.833 2050.67,725.167 2051,775.5C 2051.33,778.167 2051.67,780.833 2052,783.5C 2052.71,784.381 2053.54,785.047 2054.5,785.5C 2050.76,790.97 2049.1,797.137 2049.5,804C 2050.65,814.12 2050.65,824.12 2049.5,834C 2051.61,844.041 2052.78,854.208 2053,864.5C 2055.08,893.216 2054.74,921.883 2052,950.5C 2050.05,956.011 2048.72,961.677 2048,967.5C 2047.11,980.175 2046.11,992.842 2045,1005.5C 2042.04,1012.38 2038.71,1019.04 2035,1025.5C 2030.73,1046.77 2035.4,1065.77 2049,1082.5C 2052.41,1089 2056.08,1095.33 2060,1101.5C 2067.56,1111.4 2075.56,1121.07 2084,1130.5C 2086.4,1136.22 2089.57,1141.38 2093.5,1146C 2105.78,1147.74 2118.11,1148.91 2130.5,1149.5C 2143.66,1148.33 2156.83,1147.33 2170,1146.5C 2190.17,1147.1 2210.34,1147.77 2230.5,1148.5C 2234.55,1148.47 2238.55,1148.14 2242.5,1147.5C 2243.18,1148.24 2243.85,1148.91 2244.5,1149.5C 2244.5,1150.83 2244.5,1152.17 2244.5,1153.5C 2240.08,1152.23 2235.42,1151.56 2230.5,1151.5C 2196.81,1149.91 2163.14,1150.25 2129.5,1152.5C 2119.19,1151.47 2108.86,1150.14 2098.5,1148.5C 2097.17,1148.67 2095.83,1148.83 2094.5,1149C 2091.22,1152.44 2088.56,1156.27 2086.5,1160.5C 2045.72,1118.23 2006.56,1074.56 1969,1029.5C 1964.57,1023.41 1960.57,1017.08 1957,1010.5C 1956.33,1007.83 1956.33,1005.17 1957,1002.5C 1984.4,974.455 2008.73,944.122 2030,911.5C 2033.27,904.612 2036.43,897.778 2039.5,891C 1960.9,803.745 1881.73,717.245 1802,631.5C 1795.78,624.767 1789.78,617.767 1784,610.5C 1782.46,608.532 1781.29,606.365 1780.5,604C 1720.13,578.838 1659.79,553.838 1599.5,529C 1582.09,523.658 1565.09,517.324 1548.5,510C 1536.8,505.741 1524.8,502.407 1512.5,500C 1511.83,499.333 1511.17,498.667 1510.5,498C 1497.24,497.376 1484.24,495.376 1471.5,492C 1420.86,484.226 1370.53,476.06 1320.5,467.5C 1319.91,466.849 1319.24,466.182 1318.5,465.5C 1319.91,455.217 1321.58,444.884 1323.5,434.5C 1322.99,431.323 1321.32,428.989 1318.5,427.5C 1318.5,426.833 1318.5,426.167 1318.5,425.5C 1320.58,427.077 1322.58,428.91 1324.5,431C 1341.49,432.759 1358.49,432.759 1375.5,431C 1387.46,427.854 1399.13,423.854 1410.5,419C 1416.47,418.093 1422.47,417.427 1428.5,417C 1454.41,415.868 1480.24,416.701 1506,419.5C 1520.61,417.651 1535.27,416.651 1550,416.5C 1564.19,416.95 1578.36,417.95 1592.5,419.5C 1619.47,417.931 1646.47,417.098 1673.5,417C 1678.33,414.833 1681.83,411.333 1684,406.5C 1684.15,395.458 1684.82,384.458 1686,373.5C 1684.65,342.199 1684.31,310.866 1685,279.5C 1687,265.53 1688.66,251.53 1690,237.5C 1692.52,229.637 1695.69,222.137 1699.5,215C 1695.85,205.519 1693.52,195.685 1692.5,185.5C 1692.91,176.365 1696.24,168.698 1702.5,162.5 Z"/></g>
<g><path style="opacity:1" fill="#cdc2a9" d="M 635.5,187.5 C 635.66,189.199 635.494,190.866 635,192.5C 625.933,202.949 614.433,208.449 600.5,209C 594.427,210.739 590.26,214.572 588,220.5C 584.782,246.423 583.782,272.423 585,298.5C 579.899,309.696 574.732,320.696 569.5,331.5C 567.373,340.986 567.04,350.486 568.5,360C 567.956,360.717 567.289,361.217 566.5,361.5C 564.936,345.914 567.103,330.914 573,316.5C 578.213,310.915 581.547,304.248 583,296.5C 581.852,272.126 582.519,247.793 585,223.5C 586.142,215.72 590.308,210.22 597.5,207C 604.812,205.241 612.145,203.574 619.5,202C 625.646,198.019 630.979,193.186 635.5,187.5 Z"/></g>
<g><path style="opacity:1" fill="#48484e" d="M 1320.5,60.5 C 1318.4,72.7134 1317.23,85.0467 1317,97.5C 1314.58,101.499 1312.91,105.832 1312,110.5C 1311.55,121.693 1312.88,132.693 1316,143.5C 1316.41,143.957 1316.91,144.291 1317.5,144.5C 1317.83,151.5 1318.17,158.5 1318.5,165.5C 1317.19,208.667 1317.19,251.834 1318.5,295C 1318.24,308.522 1317.57,322.022 1316.5,335.5C 1317.52,360.161 1317.69,384.828 1317,409.5C 1316.49,411.878 1315.82,414.212 1315,416.5C 1296.88,417.827 1278.55,418.493 1260,418.5C 1227.16,418.397 1194.33,417.897 1161.5,417C 1158.96,416.814 1156.63,416.314 1154.5,415.5C 1189.34,416.148 1224.17,416.148 1259,415.5C 1272.85,415.851 1286.68,416.517 1300.5,417.5C 1304.8,417.422 1308.97,416.755 1313,415.5C 1313.41,412.768 1314.08,410.101 1315,407.5C 1316.22,326.669 1316.72,245.835 1316.5,165C 1316.12,149.356 1313.79,134.023 1309.5,119C 1310.13,112.319 1311.63,105.819 1314,99.5C 1315.33,87.4956 1316.67,75.4956 1318,63.5C 1318.24,61.8807 1319.07,60.8807 1320.5,60.5 Z"/></g>
<g><path style="opacity:1" fill="#a6a7a7" d="M 1738.5,242.5 C 1740.02,242.511 1741.18,243.177 1742,244.5C 1744.43,249.037 1747.1,253.37 1750,257.5C 1755.37,262.702 1760.54,268.035 1765.5,273.5C 1764.76,273.631 1764.09,273.464 1763.5,273C 1755.58,265.417 1748.08,257.584 1741,249.5C 1740.15,247.146 1739.32,244.812 1738.5,242.5 Z"/></g>
<g><path style="opacity:1" fill="#bfc1be" d="M 1773.5,279.5 C 1776.41,279.575 1779.07,280.409 1781.5,282C 1784.56,284.852 1787.89,287.185 1791.5,289C 1796.78,293.789 1801.78,298.789 1806.5,304C 1808.97,304.113 1810.97,305.113 1812.5,307C 1822.58,308.934 1832.58,311.267 1842.5,314C 1845,315.086 1847,316.753 1848.5,319C 1861.89,323.267 1874.89,328.267 1887.5,334C 1893.24,336.192 1898.24,339.359 1902.5,343.5C 1901.13,343.657 1899.79,343.49 1898.5,343C 1894.39,338.78 1889.39,336.447 1883.5,336C 1880.5,334.834 1877.83,333.167 1875.5,331C 1872.17,330.333 1868.83,329.667 1865.5,329C 1854.76,322.285 1843.1,317.952 1830.5,316C 1824.44,312.903 1818.11,310.57 1811.5,309C 1810.17,308 1808.83,307 1807.5,306C 1803.21,305.48 1799.21,304.313 1795.5,302.5C 1795.66,300.801 1795.49,299.134 1795,297.5C 1790.53,295.044 1786.03,292.544 1781.5,290C 1779.38,286.055 1776.72,282.555 1773.5,279.5 Z"/></g>
<g><path style="opacity:1" fill="#534f50" d="M 963.5,153.5 C 960.543,157.192 958.043,161.192 956,165.5C 955.787,181.224 954.954,196.891 953.5,212.5C 954.609,225.815 955.609,239.148 956.5,252.5C 955.071,268.05 953.738,283.55 952.5,299C 953.21,335.277 953.877,371.443 954.5,407.5C 952.836,377.681 951.836,347.681 951.5,317.5C 951.067,311.845 950.734,306.179 950.5,300.5C 951.505,284.292 952.838,268.126 954.5,252C 953.497,239.971 952.164,227.971 950.5,216C 952.836,199.36 954.003,182.526 954,165.5C 955.158,159.849 958.324,155.849 963.5,153.5 Z"/></g>
<g><path style="opacity:1" fill="#c0c2be" d="M 1902.5,343.5 C 1911.49,348.976 1919.49,355.809 1926.5,364C 1928.17,364.333 1929.83,364.667 1931.5,365C 1938.32,372.493 1945.98,378.826 1954.5,384C 1956.8,387.297 1959.46,390.297 1962.5,393C 1970.9,398.207 1978.57,404.374 1985.5,411.5C 1995.08,416.13 2003.41,422.463 2010.5,430.5C 1996.89,421.575 1983.23,412.742 1969.5,404C 1966.33,401.532 1963.66,398.532 1961.5,395C 1959.75,394.529 1958.09,393.862 1956.5,393C 1950.17,385.49 1942.84,379.323 1934.5,374.5C 1924.31,363.304 1913.64,352.97 1902.5,343.5 Z"/></g>
<g><path style="opacity:0.997" fill="#a69d99" d="M 949.5,314.5 C 950.829,346.039 950.829,377.706 949.5,409.5C 953.947,412.076 958.281,414.909 962.5,418C 975.192,418.239 987.859,418.906 1000.5,420C 1005.66,423.193 1011.33,424.693 1017.5,424.5C 1050.91,421.203 1084.41,419.203 1118,418.5C 1176.14,420.636 1234.31,421.803 1292.5,422C 1299.83,422.333 1307.17,422.667 1314.5,423C 1315.33,424.992 1316.66,426.492 1318.5,427.5C 1321.32,428.989 1322.99,431.323 1323.5,434.5C 1321.58,444.884 1319.91,455.217 1318.5,465.5C 1319.24,466.182 1319.91,466.849 1320.5,467.5C 1289.34,463.145 1258.34,457.978 1227.5,452C 1219.16,451.384 1210.83,450.718 1202.5,450C 1201.33,449.581 1200.33,448.915 1199.5,448C 1184.09,446.656 1168.75,444.989 1153.5,443C 1152.17,442.333 1150.83,441.667 1149.5,441C 1133.16,439.644 1116.83,438.644 1100.5,438C 1018.22,466.76 936.551,497.093 855.5,529C 834.192,538.209 812.858,547.209 791.5,556C 787.52,559.501 782.854,561.501 777.5,562C 776.016,563.574 774.349,564.907 772.5,566C 752.94,574.179 734.106,583.679 716,594.5C 682.579,652.554 649.245,710.554 616,768.5C 613.333,772.659 610.5,776.659 607.5,780.5C 592.12,781.274 576.786,782.441 561.5,784C 559.028,782.54 556.361,781.54 553.5,781C 546.313,772.556 537.646,770.389 527.5,774.5C 524.99,776.187 523.49,778.52 523,781.5C 520.489,784.343 517.656,786.843 514.5,789C 505.498,789.667 497.164,787.667 489.5,783C 487.667,782.833 485.833,782.667 484,782.5C 461.863,788.758 439.363,789.925 416.5,786C 404.758,781.869 393.258,777.369 382,772.5C 373.597,773.186 366.097,776.02 359.5,781C 356.141,782.383 352.807,783.716 349.5,785C 334.166,786.076 319.166,784.909 304.5,781.5C 307.053,772.731 309.886,764.064 313,755.5C 316.44,749.186 319.107,742.519 321,735.5C 359.475,638.589 395.475,540.589 429,441.5C 434.17,432.486 442.003,427.319 452.5,426C 460.36,422.568 468.027,418.902 475.5,415C 479.631,414.725 483.298,413.392 486.5,411C 490.995,409.282 495.662,407.949 500.5,407C 502.116,406.385 503.449,405.385 504.5,404C 515.197,400.645 525.864,397.312 536.5,394C 539.833,392.333 543.167,390.667 546.5,389C 552.569,387.358 558.569,385.858 564.5,384.5C 566.71,388.566 569.21,392.566 572,396.5C 577.924,409.053 576.258,420.386 567,430.5C 565.73,436.463 567.23,441.63 571.5,446C 573.5,446.167 575.5,446.333 577.5,446.5C 585.111,445.797 592.444,443.963 599.5,441C 613.06,431.528 628.06,428.195 644.5,431C 665.285,437.111 683.618,432.778 699.5,418C 704.973,414.845 710.639,412.178 716.5,410C 722.486,403.353 729.153,397.353 736.5,392C 749.198,387.607 762.198,383.94 775.5,381C 792.332,379.96 808.665,382.293 824.5,388C 832.41,393.574 839.41,400.24 845.5,408C 849.609,411.388 854.275,413.721 859.5,415C 875.5,415.667 891.5,415.667 907.5,415C 909.645,412.782 912.312,411.449 915.5,411C 926.862,410.011 938.196,408.844 949.5,407.5C 949.5,376.5 949.5,345.5 949.5,314.5 Z"/></g>
<g><path style="opacity:1" fill="#938a86" d="M 1054.5,73.5 C 1055.3,80.5486 1052.97,86.3819 1047.5,91C 1040.64,95.2608 1033.64,99.2608 1026.5,103C 1018.23,105.397 1010.23,108.397 1002.5,112C 992.338,118.829 985.171,127.995 981,139.5C 977.5,142.333 974.333,145.5 971.5,149C 968.145,149.488 965.478,150.988 963.5,153.5C 958.324,155.849 955.158,159.849 954,165.5C 954.003,182.526 952.836,199.36 950.5,216C 952.164,227.971 953.497,239.971 954.5,252C 952.838,268.126 951.505,284.292 950.5,300.5C 950.734,306.179 951.067,311.845 951.5,317.5C 951.333,348.168 951.5,378.835 952,409.5C 956.732,411.857 961.566,414.023 966.5,416C 975.833,416.333 985.167,416.667 994.5,417C 1002.21,419.976 1010.21,421.476 1018.5,421.5C 1052.64,419.069 1086.81,417.402 1121,416.5C 1185.81,418.71 1250.64,420.21 1315.5,421C 1317.14,422.129 1318.14,423.629 1318.5,425.5C 1318.5,426.167 1318.5,426.833 1318.5,427.5C 1316.66,426.492 1315.33,424.992 1314.5,423C 1307.17,422.667 1299.83,422.333 1292.5,422C 1234.31,421.803 1176.14,420.636 1118,418.5C 1084.41,419.203 1050.91,421.203 1017.5,424.5C 1011.33,424.693 1005.66,423.193 1000.5,420C 987.859,418.906 975.192,418.239 962.5,418C 958.281,414.909 953.947,412.076 949.5,409.5C 950.829,377.706 950.829,346.039 949.5,314.5C 948.343,306.344 948.177,298.01 949,289.5C 953.813,265.444 953.646,241.444 948.5,217.5C 949.783,199.144 950.95,180.81 952,162.5C 956.088,157.079 960.921,152.246 966.5,148C 972.066,146.394 976.566,143.227 980,138.5C 982.409,130.074 986.575,122.574 992.5,116C 998.266,111.636 1004.27,107.636 1010.5,104C 1015.65,103.732 1020.65,102.732 1025.5,101C 1031.92,97.9563 1038.25,94.623 1044.5,91C 1049.41,85.9604 1052.74,80.1271 1054.5,73.5 Z"/></g>
<g><path style="opacity:0.973" fill="#c9cbd0" d="M 2037.5,424.5 C 2041.6,426.308 2045.1,428.975 2048,432.5C 2071.6,477.781 2096.93,522.114 2124,565.5C 2126.7,568.538 2129.7,571.205 2133,573.5C 2136.49,578.971 2140.15,584.304 2144,589.5C 2163.35,626.875 2182.69,664.208 2202,701.5C 2203.28,706.393 2204.94,711.06 2207,715.5C 2209.73,737.71 2211.4,760.043 2212,782.5C 2213.25,795.5 2214.75,808.5 2216.5,821.5C 2213.13,820.183 2209.79,818.683 2206.5,817C 2202.7,811.038 2198.04,805.872 2192.5,801.5C 2189.93,791.436 2183.93,784.269 2174.5,780C 2162.83,779.333 2151.17,779.333 2139.5,780C 2126.04,782.427 2112.37,783.594 2098.5,783.5C 2084.5,783.667 2070.5,783.5 2056.5,783C 2056,782.5 2055.5,782 2055,781.5C 2053.68,765.028 2052.85,748.528 2052.5,732C 2053.56,681.499 2053.73,630.999 2053,580.5C 2051.95,569.589 2054.29,559.589 2060,550.5C 2060.33,548.5 2060.67,546.5 2061,544.5C 2065.89,538.406 2067.89,531.406 2067,523.5C 2066.86,520.555 2065.69,518.221 2063.5,516.5C 2059.49,507.79 2055.99,498.79 2053,489.5C 2049.36,485.381 2046.86,480.714 2045.5,475.5C 2043.44,471.762 2041.94,467.762 2041,463.5C 2039.33,462.5 2037.67,461.5 2036,460.5C 2034.52,456.868 2032.52,453.534 2030,450.5C 2027.68,446.838 2026.34,442.838 2026,438.5C 2023.46,436.733 2020.96,435.066 2018.5,433.5C 2021.11,434.435 2023.78,434.602 2026.5,434C 2029.54,431.297 2032.2,428.297 2034.5,425C 2033.55,424.282 2033.38,423.449 2034,422.5C 2034.82,423.823 2035.98,424.489 2037.5,424.5 Z"/></g>
<g><path style="opacity:1" fill="#a4a4a9" d="M 2010.5,430.5 C 2013.55,430.572 2016.22,431.572 2018.5,433.5C 2020.96,435.066 2023.46,436.733 2026,438.5C 2026.34,442.838 2027.68,446.838 2030,450.5C 2032.52,453.534 2034.52,456.868 2036,460.5C 2037.67,461.5 2039.33,462.5 2041,463.5C 2041.94,467.762 2043.44,471.762 2045.5,475.5C 2035.86,464.495 2028.19,452.162 2022.5,438.5C 2017.82,436.736 2013.82,434.069 2010.5,430.5 Z"/></g>
<g><path style="opacity:1" fill="#a1a1a8" d="M 2063.5,516.5 C 2065.69,518.221 2066.86,520.555 2067,523.5C 2067.89,531.406 2065.89,538.406 2061,544.5C 2060.67,546.5 2060.33,548.5 2060,550.5C 2054.29,559.589 2051.95,569.589 2053,580.5C 2053.73,630.999 2053.56,681.499 2052.5,732C 2052.85,748.528 2053.68,765.028 2055,781.5C 2055.5,782 2056,782.5 2056.5,783C 2070.5,783.5 2084.5,783.667 2098.5,783.5C 2084.34,784.661 2070.01,784.827 2055.5,784C 2053.59,780.478 2052.42,776.645 2052,772.5C 2051.43,745.664 2051.59,718.83 2052.5,692C 2052.26,661.639 2051.26,631.306 2049.5,601C 2049.72,590.134 2050.38,579.3 2051.5,568.5C 2051.95,558.25 2055.45,549.25 2062,541.5C 2065.95,533.346 2066.45,525.012 2063.5,516.5 Z"/></g>
<g><path style="opacity:0.997" fill="#c8bebc" d="M 607.5,780.5 C 577.26,832.653 544.76,883.32 510,932.5C 487.292,966.546 461.958,998.546 434,1028.5C 427.667,1036.5 421.333,1044.5 415,1052.5C 402.842,1074.99 391.842,1097.99 382,1121.5C 378.766,1128.07 374.099,1133.4 368,1137.5C 365.147,1141.24 362.313,1144.9 359.5,1148.5C 358.434,1147.31 357.601,1147.64 357,1149.5C 354.086,1148.86 351.086,1148.52 348,1148.5C 313.602,1149.11 279.268,1149.78 245,1150.5C 244.517,1149.55 244.351,1148.55 244.5,1147.5C 248.206,1129.73 251.04,1111.73 253,1093.5C 253.419,1092.33 254.085,1091.33 255,1090.5C 254.967,1081.27 256.3,1072.27 259,1063.5C 260.812,1049.86 262.479,1036.19 264,1022.5C 264.419,1021.33 265.085,1020.33 266,1019.5C 267.377,1008.56 268.71,997.563 270,986.5C 272.802,958.564 275.802,930.564 279,902.5C 279.333,882.5 279.667,862.5 280,842.5C 288.067,822.133 296.234,801.8 304.5,781.5C 319.166,784.909 334.166,786.076 349.5,785C 352.807,783.716 356.141,782.383 359.5,781C 366.097,776.02 373.597,773.186 382,772.5C 393.258,777.369 404.758,781.869 416.5,786C 439.363,789.925 461.863,788.758 484,782.5C 485.833,782.667 487.667,782.833 489.5,783C 497.164,787.667 505.498,789.667 514.5,789C 517.656,786.843 520.489,784.343 523,781.5C 523.49,778.52 524.99,776.187 527.5,774.5C 537.646,770.389 546.313,772.556 553.5,781C 556.361,781.54 559.028,782.54 561.5,784C 576.786,782.441 592.12,781.274 607.5,780.5 Z"/></g>
<g><path style="opacity:0.998" fill="#6c6d76" d="M 2192.5,801.5 C 2198.04,805.872 2202.7,811.038 2206.5,817C 2209.79,818.683 2213.13,820.183 2216.5,821.5C 2216.97,832.831 2217.47,844.165 2218,855.5C 2218.97,857.392 2219.64,859.392 2220,861.5C 2221.73,884.195 2223.39,906.862 2225,929.5C 2226.64,938.856 2227.98,948.189 2229,957.5C 2230.26,982.548 2231.93,1007.55 2234,1032.5C 2235.82,1049.59 2237.82,1066.59 2240,1083.5C 2241.25,1105.53 2242.75,1127.53 2244.5,1149.5C 2243.85,1148.91 2243.18,1148.24 2242.5,1147.5C 2238.55,1148.14 2234.55,1148.47 2230.5,1148.5C 2210.34,1147.77 2190.17,1147.1 2170,1146.5C 2156.83,1147.33 2143.66,1148.33 2130.5,1149.5C 2118.11,1148.91 2105.78,1147.74 2093.5,1146C 2089.57,1141.38 2086.4,1136.22 2084,1130.5C 2075.56,1121.07 2067.56,1111.4 2060,1101.5C 2056.08,1095.33 2052.41,1089 2049,1082.5C 2035.4,1065.77 2030.73,1046.77 2035,1025.5C 2038.71,1019.04 2042.04,1012.38 2045,1005.5C 2046.11,992.842 2047.11,980.175 2048,967.5C 2048.72,961.677 2050.05,956.011 2052,950.5C 2054.74,921.883 2055.08,893.216 2053,864.5C 2052.78,854.208 2051.61,844.041 2049.5,834C 2050.65,824.12 2050.65,814.12 2049.5,804C 2049.1,797.137 2050.76,790.97 2054.5,785.5C 2091.22,786.266 2127.89,784.933 2164.5,781.5C 2173.77,780.947 2181.27,784.281 2187,791.5C 2188.09,795.346 2189.92,798.68 2192.5,801.5 Z"/></g>
<g><path style="opacity:1" fill="#808088" d="M 2051.5,568.5 C 2050.38,579.3 2049.72,590.134 2049.5,601C 2051.26,631.306 2052.26,661.639 2052.5,692C 2051.59,718.83 2051.43,745.664 2052,772.5C 2052.42,776.645 2053.59,780.478 2055.5,784C 2070.01,784.827 2084.34,784.661 2098.5,783.5C 2112.37,783.594 2126.04,782.427 2139.5,780C 2151.17,779.333 2162.83,779.333 2174.5,780C 2183.93,784.269 2189.93,791.436 2192.5,801.5C 2189.92,798.68 2188.09,795.346 2187,791.5C 2181.27,784.281 2173.77,780.947 2164.5,781.5C 2127.89,784.933 2091.22,786.266 2054.5,785.5C 2053.54,785.047 2052.71,784.381 2052,783.5C 2051.67,780.833 2051.33,778.167 2051,775.5C 2050.67,725.167 2050.33,674.833 2050,624.5C 2048.47,609.199 2048.14,593.866 2049,578.5C 2049.31,574.91 2050.14,571.577 2051.5,568.5 Z"/></g>
<g><path style="opacity:1" fill="#161921" d="M 883.5,1110.5 C 929.394,1108.91 975.06,1110.91 1020.5,1116.5C 1048.3,1121.26 1075.97,1126.43 1103.5,1132C 1137.66,1141.03 1172.33,1148.37 1207.5,1154C 1231.87,1156.2 1256.2,1155.86 1280.5,1153C 1322.5,1144.5 1364.5,1135.66 1406.5,1126.5C 1470.85,1114.66 1535.85,1109.83 1601.5,1112C 1620.09,1113.92 1638.76,1115.58 1657.5,1117C 1710.23,1123.08 1762.9,1129.75 1815.5,1137C 1821.79,1138.14 1828.12,1139.47 1834.5,1141C 1835.87,1144.8 1837.03,1148.63 1838,1152.5C 1838.83,1175.17 1838.67,1197.84 1837.5,1220.5C 1836.63,1222.58 1835.13,1223.92 1833,1224.5C 1828.37,1224.99 1823.87,1225.99 1819.5,1227.5C 1813.53,1231.97 1808.86,1237.47 1805.5,1244C 1804.38,1248.02 1802.88,1251.86 1801,1255.5C 1793.49,1301.84 1783.83,1347.84 1772,1393.5C 1749.82,1467.77 1699.99,1509.61 1622.5,1519C 1615.53,1520 1608.53,1520.66 1601.5,1521C 1573.15,1521.88 1544.81,1521.55 1516.5,1520C 1481.07,1516.85 1448.07,1506.52 1417.5,1489C 1403.14,1479.65 1389.98,1468.81 1378,1456.5C 1365.67,1442.96 1354.5,1428.3 1344.5,1412.5C 1320.42,1368.41 1300.92,1322.41 1286,1274.5C 1275.36,1247.67 1255.69,1237 1227,1242.5C 1216.1,1246.77 1207.1,1253.43 1200,1262.5C 1188.28,1281.94 1179.28,1302.61 1173,1324.5C 1161.3,1353.24 1147.96,1381.24 1133,1408.5C 1097.47,1464.52 1047.31,1499.68 982.5,1514C 937.536,1522.21 892.536,1522.54 847.5,1515C 812.581,1507.27 781.248,1492.6 753.5,1471C 746.9,1465.07 741.066,1458.57 736,1451.5C 726.41,1441.19 718.91,1429.36 713.5,1416C 709.877,1405.63 706.544,1395.13 703.5,1384.5C 692.061,1339.19 682.561,1293.52 675,1247.5C 669.356,1232.69 658.856,1223.35 643.5,1219.5C 642.333,1217.83 641.167,1216.17 640,1214.5C 638.854,1189.76 639.52,1165.09 642,1140.5C 643.627,1135.94 646.794,1133.1 651.5,1132C 668.16,1130.67 684.827,1129.33 701.5,1128C 734.308,1123.51 767.308,1119.85 800.5,1117C 828.414,1115.28 856.081,1113.11 883.5,1110.5 Z M 874.5,1136.5 C 908.852,1136.11 943.186,1136.61 977.5,1138C 1017.81,1141.65 1056.48,1151.65 1093.5,1168C 1105.23,1173.9 1116.23,1180.9 1126.5,1189C 1149,1209.55 1157.83,1235.05 1153,1265.5C 1146.73,1312.97 1131.73,1357.3 1108,1398.5C 1065.91,1459.8 1007.74,1492.96 933.5,1498C 897.775,1500.94 862.775,1497.61 828.5,1488C 783.024,1470.86 752.024,1439.53 735.5,1394C 722.484,1352.84 717.984,1310.68 722,1267.5C 723.298,1241.48 729.465,1216.81 740.5,1193.5C 752.398,1174.44 768.732,1160.6 789.5,1152C 800.554,1148.02 811.887,1144.85 823.5,1142.5C 840.67,1140.61 857.67,1138.61 874.5,1136.5 Z M 1505.5,1139.5 C 1535.17,1139.33 1564.84,1139.5 1594.5,1140C 1628.43,1140.89 1661.43,1146.89 1693.5,1158C 1720.99,1169.49 1739.49,1189.32 1749,1217.5C 1751.57,1225.65 1753.23,1233.98 1754,1242.5C 1756.44,1286.54 1754.1,1330.21 1747,1373.5C 1744.45,1385.38 1741.11,1397.04 1737,1408.5C 1721.68,1447.95 1693.85,1474.45 1653.5,1488C 1598.39,1501.82 1543.22,1501.99 1488,1488.5C 1430.74,1471.48 1388.57,1436.48 1361.5,1383.5C 1343.67,1345.84 1332.5,1306.18 1328,1264.5C 1321.87,1223.26 1336.71,1192.42 1372.5,1172C 1387.14,1163.9 1402.47,1157.57 1418.5,1153C 1447.32,1146.28 1476.32,1141.78 1505.5,1139.5 Z"/></g>
<g><path style="opacity:0.97" fill="#a5a1a4" d="M 2244.5,1153.5 C 2249.23,1198.75 2253.73,1244.08 2258,1289.5C 2259.38,1302.96 2262.38,1315.96 2267,1328.5C 2269.33,1332.17 2271.67,1335.83 2274,1339.5C 2274.67,1341.83 2274.67,1344.17 2274,1346.5C 2266.48,1350 2258.65,1352.5 2250.5,1354C 2241.71,1354.78 2233.05,1356.11 2224.5,1358C 2204.82,1363.57 2184.82,1368.07 2164.5,1371.5C 2164.29,1372.09 2163.96,1372.59 2163.5,1373C 2155.53,1374.26 2147.53,1374.6 2139.5,1374C 2138.11,1372.83 2137.27,1371.33 2137,1369.5C 2130.03,1335.84 2122.69,1302.17 2115,1268.5C 2114.19,1263.19 2113.52,1257.85 2113,1252.5C 2112.09,1251.67 2111.42,1250.67 2111,1249.5C 2110.51,1241.56 2108.84,1233.89 2106,1226.5C 2102.64,1207.07 2098.64,1187.74 2094,1168.5C 2090.82,1166.46 2088.32,1163.79 2086.5,1160.5C 2088.56,1156.27 2091.22,1152.44 2094.5,1149C 2095.83,1148.83 2097.17,1148.67 2098.5,1148.5C 2108.86,1150.14 2119.19,1151.47 2129.5,1152.5C 2163.14,1150.25 2196.81,1149.91 2230.5,1151.5C 2235.42,1151.56 2240.08,1152.23 2244.5,1153.5 Z"/></g>
<g><path style="opacity:1" fill="#fefaed" d="M 244.5,1147.5 C 244.351,1148.55 244.517,1149.55 245,1150.5C 279.268,1149.78 313.602,1149.11 348,1148.5C 351.086,1148.52 354.086,1148.86 357,1149.5C 357.601,1147.64 358.434,1147.31 359.5,1148.5C 326.116,1200.44 295.616,1254.11 268,1309.5C 263.61,1315.79 259.11,1321.96 254.5,1328C 251.732,1329.72 248.732,1330.88 245.5,1331.5C 242.58,1330.43 239.746,1329.1 237,1327.5C 231.641,1320.12 227.308,1312.12 224,1303.5C 222.263,1307.65 221.263,1311.98 221,1316.5C 220,1317.83 219,1319.17 218,1320.5C 216.86,1316.17 216.36,1311.67 216.5,1307C 216.646,1295.69 217.813,1284.52 220,1273.5C 220.667,1272.83 221.333,1272.17 222,1271.5C 224.18,1257.12 226.513,1242.79 229,1228.5C 231.12,1220.34 232.787,1212 234,1203.5C 234.414,1203.04 234.914,1202.71 235.5,1202.5C 237.785,1183.88 240.785,1165.54 244.5,1147.5 Z"/></g>
</svg>
