<svg xmlns="http://www.w3.org/2000/svg" version="1.1" xmlns:xlink="http://www.w3.org/1999/xlink" xmlns:svgjs="http://svgjs.com/svgjs" width="1440" height="560" preserveAspectRatio="none" viewBox="0 0 1440 560"><g clip-path="url(&quot;#SvgjsClipPath1088&quot;)" fill="none"><circle r="93.335" cx="-33.57" cy="22.19" stroke="#094067" stroke-opacity="1" stroke-width="2"></circle><circle r="93.335" cx="288.2" cy="299.58" stroke="#094067" stroke-opacity="1" stroke-width="2"></circle><circle r="93.335" cx="747.54" cy="743.55" stroke="#094067" stroke-opacity="1" stroke-width="2"></circle><circle r="125.045" cx="162.05" cy="152.64" stroke="#094067" stroke-opacity="1" stroke-width="2"></circle><circle r="59.18" cx="166.62" cy="43.86" stroke="#094067" stroke-opacity="1" stroke-width="2"></circle><circle r="141.595" cx="67.65" cy="530.45" stroke="#094067" stroke-opacity="1" stroke-width="2"></circle><circle r="179.82" cx="139.05" cy="320.11" stroke="#094067" stroke-opacity="1" stroke-width="2"></circle><circle r="116.935" cx="268" cy="446.37" stroke="#094067" stroke-opacity="1" stroke-width="2"></circle><circle r="52.98" cx="598.01" cy="209.9" stroke="#094067" stroke-opacity="1" stroke-width="2"></circle><circle r="91.89" cx="144.61" cy="272.08" stroke="#094067" stroke-opacity="1" stroke-width="2"></circle><circle r="60.6" cx="1367.05" cy="1.97" stroke="#094067" stroke-opacity="1" stroke-width="2"></circle><circle r="162" cx="725.85" cy="213.08" stroke="#094067" stroke-opacity="1" stroke-width="2"></circle><circle r="145.22" cx="533.27" cy="293.94" stroke="#094067" stroke-opacity="1" stroke-width="2"></circle><circle r="158.14" cx="661.44" cy="18.11" stroke="#094067" stroke-opacity="1" stroke-width="2"></circle><circle r="185.625" cx="201.38" cy="75.08" stroke="#094067" stroke-opacity="1" stroke-width="2"></circle><circle r="64.85" cx="863.33" cy="226.99" stroke="#094067" stroke-opacity="1" stroke-width="2"></circle><circle r="71.675" cx="1255.89" cy="415.93" stroke="#094067" stroke-opacity="1" stroke-width="2"></circle><circle r="93.02" cx="324.09" cy="484.4" stroke="#094067" stroke-opacity="1" stroke-width="2"></circle><circle r="166.53" cx="1319.06" cy="364.11" stroke="#094067" stroke-opacity="1" stroke-width="2"></circle><circle r="159.57" cx="1201.53" cy="462.08" stroke="#094067" stroke-opacity="1" stroke-width="2"></circle><circle r="82.88" cx="951.59" cy="176.73" stroke="#094067" stroke-opacity="1" stroke-width="2"></circle><circle r="163.775" cx="764.89" cy="509.68" stroke="#094067" stroke-opacity="1" stroke-width="2"></circle><circle r="78.94" cx="304.2" cy="310.27" stroke="#094067" stroke-opacity="1" stroke-width="2"></circle><circle r="83.87" cx="1262.12" cy="304.77" stroke="#094067" stroke-opacity="1" stroke-width="2"></circle><circle r="101.765" cx="1345.17" cy="399.06" stroke="#094067" stroke-opacity="1" stroke-width="2"></circle><circle r="104.95" cx="598.11" cy="335.37" stroke="#094067" stroke-opacity="1" stroke-width="2"></circle><circle r="164.375" cx="1124.06" cy="457.11" stroke="#094067" stroke-opacity="1" stroke-width="2"></circle><circle r="81" cx="1150.65" cy="64.55" stroke="#094067" stroke-opacity="1" stroke-width="2"></circle><circle r="91.685" cx="1034.16" cy="92.26" stroke="#094067" stroke-opacity="1" stroke-width="2"></circle><circle r="109.855" cx="66.96" cy="456.96" stroke="#094067" stroke-opacity="1" stroke-width="2"></circle><circle r="127.655" cx="817.47" cy="329.58" stroke="#094067" stroke-opacity="1" stroke-width="2"></circle><circle r="100.97" cx="203.05" cy="334.02" stroke="#094067" stroke-opacity="1" stroke-width="2"></circle><circle r="55.705" cx="175.38" cy="98.84" stroke="#094067" stroke-opacity="1" stroke-width="2"></circle><circle r="131.815" cx="944.92" cy="387.91" stroke="#094067" stroke-opacity="1" stroke-width="2"></circle><circle r="167.87" cx="147.87" cy="110.63" stroke="#094067" stroke-opacity="1" stroke-width="2"></circle><circle r="84.86" cx="1215.81" cy="141.1" stroke="#094067" stroke-opacity="1" stroke-width="2"></circle><circle r="129.03" cx="910.67" cy="546.77" stroke="#094067" stroke-opacity="1" stroke-width="2"></circle></g><defs><clipPath id="SvgjsClipPath1088"><rect width="1440" height="560" x="0" y="0"></rect></clipPath></defs></svg>