<?xml version="1.0" encoding="iso-8859-1"?>
<!-- Generator: Adobe Illustrator 19.0.0, SVG Export Plug-In . SVG Version: 6.00 Build 0)  -->
<svg version="1.1" id="Layer_1" xmlns="http://www.w3.org/2000/svg" xmlns:xlink="http://www.w3.org/1999/xlink" x="0px" y="0px"
	 viewBox="0 0 511.997 511.997" style="enable-background:new 0 0 511.997 511.997;" xml:space="preserve">
<path style="fill:#CCCCCC;" d="M386.139,307.202c-1.443,12.234-5.863,25.37-14.14,39.521c-2.187,3.744-4.77,7.262-7.701,10.531
	c-18.154,20.296-49.545,31.279-83.09,31.279c-18.368,0-37.379-3.304-55.217-10.159c-13.734,5.198-30.095,8.197-48.711,6.078
	c-11.546-1.308-16.699-15.154-8.908-23.78c3.45-3.822,7.126-8.085,10.701-12.629h-0.011c-3.89-3.946-7.555-8.209-10.926-12.775
	c-7.352-9.923-18.887-15.854-31.233-16.147c-12.527-0.293-28.505-1.849-41.517-6.968c-12.933-5.074-13.147-23.386-0.451-29.057
	c6.371-2.83,13.869-5.503,21.965-7.092c12.663-2.481,17.759-18.244,8.536-27.276c-0.271-0.259-0.541-0.519-0.834-0.778
	c-4.86-4.307-2.605-12.324,3.721-13.813c8.569-2.018,18.661-2.3,27.186,3.214c19.169,12.403,33.827,60.888,76.674,40.592
	s-3.383-80.057-6.765-94.715c-2.357-10.227-4.724-31.989,22.033-50.706c9.674-6.788,23.171-13.159,41.844-18.458
	c7.171-2.03,14.873-0.327,20.601,4.443l0.214,0.18c6.461,5.378,9.359,13.88,7.69,22.111c-3.665,17.962-5.886,50.887,19.247,72.874
	C364.58,237.767,390.807,267.771,386.139,307.202z"/>
<g>
	<path style="fill:#B3B3B3;" d="M177.281,384.451c-11.546-1.308-16.699-15.154-8.908-23.78c3.45-3.822,7.126-8.085,10.701-12.629
		h-0.011c-3.89-3.946-7.555-8.209-10.926-12.775c-7.352-9.923-18.887-15.854-31.233-16.147c-12.527-0.293-28.505-1.849-41.517-6.968
		c-12.933-5.074-13.147-23.386-0.451-29.057c6.371-2.83,13.869-5.503,21.965-7.092c12.663-2.481,17.759-18.244,8.536-27.276
		c-0.271-0.259-0.541-0.519-0.834-0.778c-4.86-4.307-2.605-12.324,3.721-13.813c8.569-2.018,18.661-2.3,27.186,3.214
		c19.169,12.403,33.827,60.888,76.674,40.592s-3.383-80.057-6.765-94.715c-2.357-10.227-4.724-31.989,22.033-50.706
		c-0.034,0.868-1.793,48.316,21.672,85.187C292.799,254.906,237.65,355.011,177.281,384.451z"/>
	<path style="fill:#B3B3B3;" d="M386.139,307.202c0,0,44.494,31.628,39.983,47.414c-4.51,15.786-61.824,2.638-61.824,2.638
		c2.932-3.27,5.514-6.788,7.701-10.531C380.276,332.572,384.696,319.436,386.139,307.202z"/>
</g>
<polygon style="fill:#F7B239;" points="365.516,388.533 399.298,503.544 351.861,503.544 329.547,388.533 "/>
<polygon style="fill:#2BA5F7;" points="329.547,388.533 351.861,503.544 289.653,503.544 282.369,388.533 "/>
<path style="fill:#F95428;" d="M308.856,8.454c28.02,0,50.74,22.72,50.74,50.74c0,28.031-22.72,50.74-50.74,50.74
	c-28.031,0-50.74-22.709-50.74-50.74C258.116,31.175,280.825,8.454,308.856,8.454z"/>
<path style="fill:#E54728;" d="M291.94,59.195c0-22.089,14.118-40.875,33.826-47.841c-5.29-1.871-10.979-2.899-16.91-2.899
	c-28.031,0-50.74,22.72-50.74,50.74c0,28.031,22.709,50.74,50.74,50.74c5.931,0,11.62-1.027,16.91-2.897
	C306.058,100.073,291.94,81.293,291.94,59.195z"/>
<polygon style="fill:#F7B239;" points="282.369,388.533 289.653,503.544 229.318,503.544 236.602,388.533 281.208,388.533 "/>
<polygon style="fill:#2197D8;" points="236.602,388.533 229.318,503.544 167.11,503.544 189.424,388.533 "/>
<polygon style="fill:#E09B2D;" points="189.424,388.533 167.11,503.544 119.662,503.544 153.444,388.533 "/>
<g>
	<path style="fill:#333333;" d="M413.596,318.818c-7.105-6.648-14.357-12.364-18.663-15.623c0.757-12.473-1.205-24.717-5.906-36.663
		c-9.9-25.156-30.006-44.863-46.417-59.223c-21.967-19.217-19.785-48.86-16.528-64.829c1.824-9.001-0.361-18.159-5.726-25.217
		c27.153-5.371,47.692-29.361,47.692-58.066C368.048,26.555,341.493,0,308.851,0s-59.197,26.555-59.197,59.197
		c0,20.904,10.901,39.299,27.307,49.834c-26.939,9.072-45.251,21.7-54.494,37.619c-6.732,11.594-8.513,24.54-5.296,38.48
		c0.987,4.278,3.844,9.758,7.797,17.343c8.301,15.927,20.846,39.996,15.653,55.464c-1.786,5.321-5.733,9.364-12.064,12.364
		c-22.87,10.831-34.269-0.772-50.328-21.168c-5.902-7.496-11.477-14.576-18.133-18.883c-9.11-5.893-20.767-7.393-33.715-4.346
		c-6.091,1.434-10.828,6.099-12.36,12.175c-1.5,5.946,0.404,12.153,4.977,16.206c0.2,0.177,0.383,0.354,0.518,0.484
		c2.82,2.76,2.221,6.075,1.833,7.372c-0.869,2.908-3.143,4.987-6.082,5.563c-7.754,1.523-15.751,4.101-23.785,7.67
		c-8.969,4.006-14.617,12.964-14.388,22.818c0.229,9.877,6.053,18.244,15.198,21.832c11.676,4.584,26.618,7.123,44.412,7.548
		c9.846,0.235,18.822,4.871,24.629,12.719c2.054,2.776,4.249,5.474,6.535,8.09c-1.836,2.178-3.754,4.384-5.774,6.619
		c-5.757,6.372-7.449,15.316-4.414,23.344c0.223,0.591,0.476,1.164,0.743,1.726h-4.976c-3.753,0-7.056,2.473-8.114,6.073
		l-33.782,115.011c-0.751,2.557-0.254,5.318,1.343,7.451c1.597,2.133,4.105,3.389,6.77,3.389h47.414
		c0.011,0,0.024,0.001,0.035,0.001c0.012,0,0.025-0.001,0.037-0.001h62.152c0.006,0,0.011,0,0.017,0c0.003,0,0.008,0,0.011,0h60.301
		c0.003,0,0.008,0,0.011,0c0.006,0,0.011,0,0.017,0h62.154c0.012,0,0.025,0.001,0.037,0.001c0.011,0,0.023-0.001,0.035-0.001h47.414
		c2.664,0,5.173-1.256,6.77-3.389c1.597-2.133,2.094-4.894,1.343-7.451l-33.782-115.011c-1.058-3.6-4.361-6.073-8.114-6.073h-16.205
		c6.711-3.932,12.696-8.479,17.857-13.578c5.599,1.117,15.414,2.88,25.604,3.781c3.782,0.334,7.888,0.596,12.009,0.596
		c13.062,0,26.24-2.633,29.467-13.931C437.141,346.821,430.578,334.708,413.596,318.818z M266.569,59.198
		c0-23.316,18.968-42.284,42.284-42.284s42.284,18.968,42.284,42.284s-18.969,42.284-42.284,42.284S266.569,82.514,266.569,59.198z
		 M297.592,495.085l-6.217-98.098h31.195l19.038,98.098H297.592z M177.361,495.085l19.038-98.098h31.194l-6.217,98.098H177.361z
		 M244.54,396.988h29.886l6.217,98.098h-42.322L244.54,396.988z M159.779,396.988h19.391l-19.038,98.098h-29.168L159.779,396.988z
		 M388.003,495.085h-29.168l-19.038-98.098h19.392L388.003,495.085z M285.335,380.074h-7.556
		c-9.468-0.233-19.114-1.374-28.672-3.521c20.341-12.305,31.776-26.949,32.638-28.077c2.835-3.712,2.123-9.019-1.589-11.854
		c-3.712-2.834-9.019-2.123-11.854,1.589c-0.338,0.442-34.408,44.146-90.074,37.836c-3.147-0.357-4.355-2.694-4.729-3.681
		c-0.381-1.009-1.034-3.615,1.142-6.022c14.959-16.554,25.198-31.581,30.432-44.666c1.735-4.337-0.374-9.258-4.711-10.993
		c-4.339-1.736-9.258,0.374-10.993,4.711c-2.315,5.787-6.012,12.301-10.923,19.317c-1.209-1.469-2.393-2.959-3.519-4.48
		c-8.935-12.075-22.72-19.207-37.822-19.568c-15.586-0.372-28.946-2.579-38.637-6.384c-3.933-1.544-4.435-5.045-4.469-6.479
		c-0.027-1.168,0.21-5.123,4.363-6.977c6.862-3.049,13.646-5.243,20.157-6.522c9.075-1.778,16.367-8.41,19.03-17.311
		c2.602-8.697,0.226-18.011-6.203-24.306c-0.024-0.023-0.064-0.062-0.088-0.085c-0.13-0.124-0.26-0.249-0.392-0.373
		c8.203-1.821,14.944-1.075,20.04,2.222c4.294,2.778,9.024,8.786,14.031,15.145c13.6,17.272,34.153,43.375,70.856,25.989
		c10.558-5.002,17.576-12.492,20.858-22.265c7.485-22.29-7.062-50.198-16.688-68.665c-2.725-5.227-5.813-11.153-6.315-13.329
		c-2.252-9.753-1.125-18.318,3.442-26.185c8.069-13.896,26.405-24.98,54.497-32.941c4.449-1.259,9.265-0.211,12.855,2.779
		l0.246,0.206c4.031,3.356,5.875,8.694,4.815,13.922c-3.99,19.558-6.442,56.077,21.964,80.929
		c14.97,13.098,33.251,30.923,41.816,52.688c8.714,22.14,5.903,44.949-8.592,69.73C351.152,365.61,320.004,379.112,285.335,380.074z
		 M391.144,353.124c-4.29-0.46-8.461-1.063-12.129-1.668c0.092-0.154,0.189-0.306,0.28-0.461
		c5.669-9.693,9.805-19.304,12.425-28.807c3.016,2.463,6.385,5.332,9.718,8.42c14.57,13.498,16.319,19.804,16.523,21.319
		C416.575,352.736,410.574,355.206,391.144,353.124z"/>
	<circle style="fill:#333333;" cx="270.512" cy="149.403" r="8.457"/>
</g>
<g>
</g>
<g>
</g>
<g>
</g>
<g>
</g>
<g>
</g>
<g>
</g>
<g>
</g>
<g>
</g>
<g>
</g>
<g>
</g>
<g>
</g>
<g>
</g>
<g>
</g>
<g>
</g>
<g>
</g>
</svg>
