<?xml version="1.0" encoding="UTF-8"?>
<!DOCTYPE svg PUBLIC "-//W3C//DTD SVG 1.1//EN" "http://www.w3.org/Graphics/SVG/1.1/DTD/svg11.dtd">
<svg xmlns="http://www.w3.org/2000/svg" version="1.1" width="64px" height="64px" style="shape-rendering:geometricPrecision; text-rendering:geometricPrecision; image-rendering:optimizeQuality; fill-rule:evenodd; clip-rule:evenodd" xmlns:xlink="http://www.w3.org/1999/xlink">
<g><path style="opacity:0.975" fill="#394a4a" d="M 23.5,-0.5 C 26.1667,-0.5 28.8333,-0.5 31.5,-0.5C 30.9634,5.13483 31.6301,10.4682 33.5,15.5C 32.8333,15.5 32.1667,15.5 31.5,15.5C 28.4816,15.6646 25.4816,15.498 22.5,15C 20.3496,13.5886 18.0163,12.7553 15.5,12.5C 15.665,15.8499 15.4983,19.1832 15,22.5C 10.1477,34.2944 13.9811,41.7944 26.5,45C 25.3204,46.8961 23.8204,48.3961 22,49.5C 18.9847,46.9881 15.8181,44.6548 12.5,42.5C 11.3861,43.723 11.2195,45.0563 12,46.5C 14.6877,48.364 17.1877,50.364 19.5,52.5C 20.5676,53.4345 21.901,53.7678 23.5,53.5C 23.5,56.5 23.5,59.5 23.5,62.5C 11.5717,58.9045 3.57171,51.2379 -0.5,39.5C -0.5,34.1667 -0.5,28.8333 -0.5,23.5C 3.83333,11.8333 11.8333,3.83333 23.5,-0.5 Z"/></g>
<g><path style="opacity:1" fill="#2a3a3a" d="M 31.5,-0.5 C 34.1667,-0.5 36.8333,-0.5 39.5,-0.5C 51.1667,3.83333 59.1667,11.8333 63.5,23.5C 63.5,28.8333 63.5,34.1667 63.5,39.5C 59.6652,51.4945 51.6652,59.1612 39.5,62.5C 39.6659,57.4889 39.4993,52.4889 39,47.5C 38.3076,46.9747 37.8076,46.3081 37.5,45.5C 49.8315,41.334 53.3315,33.334 48,21.5C 47.502,18.5184 47.3354,15.5184 47.5,12.5C 43.1157,14.6846 38.449,15.6846 33.5,15.5C 31.6301,10.4682 30.9634,5.13483 31.5,-0.5 Z"/></g>
<g><path style="opacity:0.996" fill="#e8e8ed" d="M 31.5,15.5 C 31.5,31.5 31.5,47.5 31.5,63.5C 28.8333,63.5 26.1667,63.5 23.5,63.5C 23.5,63.1667 23.5,62.8333 23.5,62.5C 24.4794,59.3752 24.8128,56.0419 24.5,52.5C 22.8333,52.5 21.1667,52.5 19.5,52.5C 17.1877,50.364 14.6877,48.364 12,46.5C 11.2195,45.0563 11.3861,43.723 12.5,42.5C 15.8181,44.6548 18.9847,46.9881 22,49.5C 23.8204,48.3961 25.3204,46.8961 26.5,45C 13.9811,41.7944 10.1477,34.2944 15,22.5C 15.4983,19.1832 15.665,15.8499 15.5,12.5C 18.0163,12.7553 20.3496,13.5886 22.5,15C 25.4816,15.498 28.4816,15.6646 31.5,15.5 Z"/></g>
<g><path style="opacity:1" fill="#dfdfe4" d="M 39.5,62.5 C 39.5,62.8333 39.5,63.1667 39.5,63.5C 36.8333,63.5 34.1667,63.5 31.5,63.5C 31.5,47.5 31.5,31.5 31.5,15.5C 32.1667,15.5 32.8333,15.5 33.5,15.5C 38.449,15.6846 43.1157,14.6846 47.5,12.5C 47.3354,15.5184 47.502,18.5184 48,21.5C 53.3315,33.334 49.8315,41.334 37.5,45.5C 37.8076,46.3081 38.3076,46.9747 39,47.5C 39.4993,52.4889 39.6659,57.4889 39.5,62.5 Z"/></g>
<g><path style="opacity:1" fill="#868f91" d="M 19.5,52.5 C 21.1667,52.5 22.8333,52.5 24.5,52.5C 24.8128,56.0419 24.4794,59.3752 23.5,62.5C 23.5,59.5 23.5,56.5 23.5,53.5C 21.901,53.7678 20.5676,53.4345 19.5,52.5 Z"/></g>
</svg>
