<?xml version="1.0" encoding="UTF-8"?>
<!DOCTYPE svg PUBLIC "-//W3C//DTD SVG 1.1//EN" "http://www.w3.org/Graphics/SVG/1.1/DTD/svg11.dtd">
<svg xmlns="http://www.w3.org/2000/svg" version="1.1" width="64px" height="64px" style="shape-rendering:geometricPrecision; text-rendering:geometricPrecision; image-rendering:optimizeQuality; fill-rule:evenodd; clip-rule:evenodd" xmlns:xlink="http://www.w3.org/1999/xlink">
<g><path style="opacity:0.638" fill="#040301" d="M 18.5,-0.5 C 20.1667,-0.5 21.8333,-0.5 23.5,-0.5C 26.3651,2.92232 25.6985,5.58898 21.5,7.5C 16.2136,4.39747 10.5469,3.7308 4.5,5.5C 8.7343,9.29567 8.2343,12.2957 3,14.5C 1.88732,13.695 0.72065,13.0283 -0.5,12.5C -0.5,10.8333 -0.5,9.16667 -0.5,7.5C 1.01079,6.04249 2.01079,4.20916 2.5,2C 7.5,1.66667 12.5,1.33333 17.5,1C 18.056,0.617425 18.3893,0.117425 18.5,-0.5 Z"/></g>
<g><path style="opacity:0.735" fill="#070d0e" d="M 43.5,-0.5 C 44.8333,-0.5 46.1667,-0.5 47.5,-0.5C 50.0858,2.00603 50.0858,4.50603 47.5,7C 43.25,5.04067 38.5833,4.20733 33.5,4.5C 33.5,5.5 33.5,6.5 33.5,7.5C 42.8038,7.97592 49.6371,12.3093 54,20.5C 54.734,24.0397 55.9006,27.373 57.5,30.5C 57.8333,28.3333 58.1667,26.1667 58.5,24C 57.7117,19.8063 57.2117,15.6396 57,11.5C 59.1632,10.232 61.3298,10.232 63.5,11.5C 63.5,13.5 63.5,15.5 63.5,17.5C 61.5583,22.0557 60.8917,27.0557 61.5,32.5C 59.8333,32.5 58.1667,32.5 56.5,32.5C 55.5119,36.7889 54.6786,41.1222 54,45.5C 48.383,51.3921 41.5497,54.7254 33.5,55.5C 33.7394,57.4672 33.4061,59.3005 32.5,61C 29.1667,61.3333 25.8333,61.6667 22.5,62C 21.944,62.3826 21.6107,62.8826 21.5,63.5C 19.8333,63.5 18.1667,63.5 16.5,63.5C 14.9521,60.7415 15.2854,58.2415 17.5,56C 20.5125,56.4499 23.5125,57.2832 26.5,58.5C 27.8333,58.1667 29.1667,57.8333 30.5,57.5C 19.1754,55.1836 11.5088,48.5169 7.5,37.5C 5.60395,36.5344 3.60395,36.2011 1.5,36.5C 1.66568,32.1539 1.49902,27.8206 1,23.5C 0.617425,22.944 0.117425,22.6107 -0.5,22.5C -0.5,20.5 -0.5,18.5 -0.5,16.5C 3.16025,14.6048 5.49358,15.6048 6.5,19.5C 4.78626,23.9373 4.1196,28.604 4.5,33.5C 5.5,33.5 6.5,33.5 7.5,33.5C 6.67147,27.7684 8.0048,22.7684 11.5,18.5C 12.0967,18.7352 12.4301,19.2352 12.5,20C 10.4698,23.2211 9.46984,26.7211 9.5,30.5C 12.8333,30.5 16.1667,30.5 19.5,30.5C 19.6751,26.4594 19.8418,22.4594 20,18.5C 17.7124,16.3438 15.2124,16.0104 12.5,17.5C 16.1425,10.999 21.8092,7.49905 29.5,7C 30.1667,5.33333 30.8333,3.66667 31.5,2C 35.1667,1.66667 38.8333,1.33333 42.5,1C 43.056,0.617425 43.3893,0.117425 43.5,-0.5 Z"/></g>
<g><path style="opacity:0.669" fill="#030200" d="M 57.5,-0.5 C 59.1667,-0.5 60.8333,-0.5 62.5,-0.5C 62.5,0.166667 62.8333,0.5 63.5,0.5C 63.5,2.5 63.5,4.5 63.5,6.5C 59.5352,8.34407 56.8686,7.1774 55.5,3C 56.305,1.88732 56.9717,0.72065 57.5,-0.5 Z"/></g>
<g><path style="opacity:1" fill="#d3b539" d="M 20.5,1.5 C 22.0481,1.82124 22.7148,2.82124 22.5,4.5C 19.7524,4.59829 19.0857,3.59829 20.5,1.5 Z"/></g>
<g><path style="opacity:1" fill="#c7ab36" d="M 44.5,1.5 C 46.0481,1.82124 46.7148,2.82124 46.5,4.5C 43.7524,4.59829 43.0857,3.59829 44.5,1.5 Z"/></g>
<g><path style="opacity:1" fill="#d2b539" d="M 58.5,1.5 C 59.5,1.5 60.5,1.5 61.5,1.5C 61.5,2.5 61.5,3.5 61.5,4.5C 60.5,4.5 59.5,4.5 58.5,4.5C 58.5,3.5 58.5,2.5 58.5,1.5 Z"/></g>
<g><path style="opacity:1" fill="#e3c33d" d="M 2.5,8.5 C 4.46455,8.94835 4.79789,9.94835 3.5,11.5C 1.4807,10.8671 1.14737,9.86709 2.5,8.5 Z"/></g>
<g><path style="opacity:1" fill="#3fb8e1" d="M 29.5,9.5 C 35.3227,9.65292 38.656,12.6529 39.5,18.5C 34.4848,19.7148 29.4848,19.7148 24.5,18.5C 23.5923,17.21 23.759,15.8767 25,14.5C 26.0591,12.3408 27.5591,10.6741 29.5,9.5 Z"/></g>
<g><path style="opacity:1" fill="#1f93b2" d="M 23.5,10.5 C 25.6456,10.6964 25.8122,11.6964 24,13.5C 23.0943,15.612 21.5943,16.4453 19.5,16C 18.5494,15.2825 18.3828,14.4491 19,13.5C 20.6516,12.6006 22.1516,11.6006 23.5,10.5 Z"/></g>
<g><path style="opacity:1" fill="#3dabd2" d="M 37.5,11.5 C 40.5545,10.6633 43.2212,11.6633 45.5,14.5C 44.2402,15.3816 43.0736,16.3816 42,17.5C 41.2082,14.8936 39.7082,12.8936 37.5,11.5 Z"/></g>
<g><path style="opacity:1" fill="#ebc93f" d="M 58.5,13.5 C 59.675,13.281 60.675,13.6143 61.5,14.5C 59.9483,15.7979 58.9483,15.4646 58.5,13.5 Z"/></g>
<g><path style="opacity:1" fill="#229dbf" d="M 11.5,18.5 C 11.5,17.8333 11.8333,17.5 12.5,17.5C 15.2124,16.0104 17.7124,16.3438 20,18.5C 19.8418,22.4594 19.6751,26.4594 19.5,30.5C 16.1667,30.5 12.8333,30.5 9.5,30.5C 9.46984,26.7211 10.4698,23.2211 12.5,20C 12.4301,19.2352 12.0967,18.7352 11.5,18.5 Z"/></g>
<g><path style="opacity:1" fill="#42b9e4" d="M 45.5,16.5 C 47.3904,16.2965 48.8904,16.9632 50,18.5C 52.6306,22.0888 53.7972,26.0888 53.5,30.5C 50.1667,30.5 46.8333,30.5 43.5,30.5C 43.7155,26.9408 43.3822,23.4408 42.5,20C 43.5442,18.8261 44.5442,17.6594 45.5,16.5 Z"/></g>
<g><path style="opacity:1" fill="#e7c73e" d="M 1.5,18.5 C 4.5476,18.494 5.0476,19.494 3,21.5C 1.96141,20.7562 1.46141,19.7562 1.5,18.5 Z"/></g>
<g><path style="opacity:1" fill="#43bde8" d="M 22.5,20.5 C 28.4997,21.6031 34.4997,21.7697 40.5,21C 41.4505,24.0567 41.7839,27.2234 41.5,30.5C 34.8333,30.5 28.1667,30.5 21.5,30.5C 21.3424,27.0977 21.6758,23.7644 22.5,20.5 Z"/></g>
<g><path style="opacity:1" fill="#40b4dd" d="M 43.5,32.5 C 46.8333,32.5 50.1667,32.5 53.5,32.5C 53.7022,34.9892 53.2022,37.3225 52,39.5C 51.5065,37.8659 51.3398,36.1992 51.5,34.5C 48.3019,35.0356 45.6353,34.369 43.5,32.5 Z"/></g>
<g><path style="opacity:1" fill="#2191af" d="M 9.5,32.5 C 12.8984,32.1796 16.2317,32.513 19.5,33.5C 17.8333,33.8333 16.1667,34.1667 14.5,34.5C 12.3603,34.4439 10.6936,33.7773 9.5,32.5 Z"/></g>
<g><path style="opacity:1" fill="#3ba8ce" d="M 21.5,32.5 C 28.5316,32.1697 35.5316,32.503 42.5,33.5C 39,33.8333 35.5,34.1667 32,34.5C 28.0982,34.4877 24.5982,33.821 21.5,32.5 Z"/></g>
<g><path style="opacity:1" fill="#229bbc" d="M 10.5,36.5 C 13.8333,36.5 17.1667,36.5 20.5,36.5C 20.6641,39.1873 20.4974,41.854 20,44.5C 17.1447,47.4638 14.8113,47.1304 13,43.5C 11.8638,41.257 11.0305,38.9237 10.5,36.5 Z"/></g>
<g><path style="opacity:1" fill="#43bbe6" d="M 21.5,36.5 C 28.1667,36.5 34.8333,36.5 41.5,36.5C 41.9746,39.3227 40.9746,41.3227 38.5,42.5C 33.1615,41.2282 27.8281,41.2282 22.5,42.5C 22.4828,40.4352 22.1495,38.4352 21.5,36.5 Z"/></g>
<g><path style="opacity:1" fill="#40b3dc" d="M 43.5,36.5 C 45.5,36.5 47.5,36.5 49.5,36.5C 49.6038,39.0895 48.9371,41.4229 47.5,43.5C 47.6082,44.4419 47.9415,45.2753 48.5,46C 46.5355,46.624 44.8689,46.124 43.5,44.5C 42.3855,41.8438 42.3855,39.1771 43.5,36.5 Z"/></g>
<g><path style="opacity:1" fill="#e5c53e" d="M 49.5,41.5 C 51.4646,41.9483 51.7979,42.9483 50.5,44.5C 49.6143,43.675 49.281,42.675 49.5,41.5 Z"/></g>
<g><path style="opacity:1" fill="#3fb8e1" d="M 25.5,43.5 C 30.2142,43.3531 34.8809,43.6864 39.5,44.5C 38.3163,51.8892 34.3163,54.3892 27.5,52C 25.9684,49.9656 24.6351,47.7989 23.5,45.5C 24.2427,44.8182 24.9094,44.1515 25.5,43.5 Z"/></g>
<g><path style="opacity:0.693" fill="#0a0702" d="M 11.5,63.5 C 10.1667,63.5 8.83333,63.5 7.5,63.5C 6.36465,61.7868 4.69798,61.1201 2.5,61.5C 2.82036,58.1016 2.48702,54.7683 1.5,51.5C 0.816537,51.1373 0.14987,50.8039 -0.5,50.5C -0.5,48.8333 -0.5,47.1667 -0.5,45.5C 3.1186,43.6516 5.78527,44.4849 7.5,48C 6.05053,50.124 5.05053,52.4574 4.5,55C 4.66667,56.1667 4.83333,57.3333 5,58.5C 8.62196,54.1901 11.4553,54.5234 13.5,59.5C 13.2483,61.0729 12.5817,62.4062 11.5,63.5 Z"/></g>
<g><path style="opacity:0.675" fill="#000000" d="M 63.5,45.5 C 63.5,47.1667 63.5,48.8333 63.5,50.5C 62.8826,50.6107 62.3826,50.944 62,51.5C 61.6667,54.5 61.3333,57.5 61,60.5C 58.7997,61.9901 56.9664,61.6568 55.5,59.5C 56.325,58.6143 57.325,58.281 58.5,58.5C 58.3985,53.9815 57.8985,49.6481 57,45.5C 59.1632,44.232 61.3298,44.232 63.5,45.5 Z"/></g>
<g><path style="opacity:1" fill="#2096b6" d="M 19.5,46.5 C 20.675,46.281 21.675,46.6143 22.5,47.5C 26.7201,53.0767 25.7201,53.91 19.5,50C 18.3157,48.8545 18.3157,47.6879 19.5,46.5 Z"/></g>
<g><path style="opacity:1" fill="#3eadd5" d="M 41.5,45.5 C 42.8149,46.4756 44.1482,47.4756 45.5,48.5C 38.3869,54.3817 37.0536,53.3817 41.5,45.5 Z"/></g>
<g><path style="opacity:1" fill="#efce41" d="M 2.5,46.5 C 4.46455,46.9483 4.79789,47.9483 3.5,49.5C 2.61432,48.675 2.28099,47.675 2.5,46.5 Z"/></g>
<g><path style="opacity:1" fill="#d7b93a" d="M 58.5,46.5 C 59.5,46.5 60.5,46.5 61.5,46.5C 61.5,47.5 61.5,48.5 61.5,49.5C 60.5,49.5 59.5,49.5 58.5,49.5C 58.5,48.5 58.5,47.5 58.5,46.5 Z"/></g>
<g><path style="opacity:0.63" fill="#060501" d="M 49.5,63.5 C 47.8333,63.5 46.1667,63.5 44.5,63.5C 41.9537,59.9628 42.787,57.2961 47,55.5C 48.4341,55.9304 49.6008,56.7638 50.5,58C 51.7932,58.49 53.1266,58.6567 54.5,58.5C 54.5,59.5 54.5,60.5 54.5,61.5C 52.302,61.1201 50.6354,61.7868 49.5,63.5 Z"/></g>
<g><path style="opacity:1" fill="#cbae37" d="M 7.5,58.5 C 8.5,58.5 9.5,58.5 10.5,58.5C 9.75419,62.31 8.75419,62.31 7.5,58.5 Z"/></g>
<g><path style="opacity:1" fill="#d3b539" d="M 17.5,58.5 C 18.5,58.5 19.5,58.5 20.5,58.5C 19.7542,62.31 18.7542,62.31 17.5,58.5 Z"/></g>
<g><path style="opacity:1" fill="#e6c63e" d="M 45.5,58.5 C 48.5476,58.494 49.0476,59.494 47,61.5C 45.9614,60.7562 45.4614,59.7562 45.5,58.5 Z"/></g>
</svg>
