<?xml version="1.0" encoding="UTF-8"?>
<!DOCTYPE svg PUBLIC "-//W3C//DTD SVG 1.1//EN" "http://www.w3.org/Graphics/SVG/1.1/DTD/svg11.dtd">
<svg xmlns="http://www.w3.org/2000/svg" version="1.1" width="64px" height="64px" style="shape-rendering:geometricPrecision; text-rendering:geometricPrecision; image-rendering:optimizeQuality; fill-rule:evenodd; clip-rule:evenodd" xmlns:xlink="http://www.w3.org/1999/xlink">
<g><path style="opacity:0.675" fill="#150503" d="M 12.5,8.5 C 11.0512,10.1644 9.05119,10.9977 6.5,11C 4.66667,12.1667 3.16667,13.6667 2,15.5C 1.33333,26.1667 1.33333,36.8333 2,47.5C 3.16667,49.3333 4.66667,50.8333 6.5,52C 24.198,52.7925 41.8647,52.6258 59.5,51.5C 58.6398,53.6138 56.9732,54.7805 54.5,55C 39.5,55.6667 24.5,55.6667 9.5,55C 4.9448,54.5648 1.61147,52.3982 -0.5,48.5C -0.5,37.1667 -0.5,25.8333 -0.5,14.5C 2.60982,9.43947 6.94315,7.43947 12.5,8.5 Z"/></g>
<g><path style="opacity:0.682" fill="#150503" d="M 63.5,14.5 C 63.5,25.8333 63.5,37.1667 63.5,48.5C 62.7777,49.5511 61.7777,50.2178 60.5,50.5C 61.6028,38.8666 61.7695,27.1999 61,15.5C 59.8333,13.6667 58.3333,12.1667 56.5,11C 42.1308,11.1529 28.1308,10.3195 14.5,8.5C 27.3268,7.33979 40.3268,7.17312 53.5,8C 58.0552,8.43518 61.3885,10.6018 63.5,14.5 Z"/></g>
<g><path style="opacity:0.999" fill="#f14235" d="M 12.5,8.5 C 13.1667,8.5 13.8333,8.5 14.5,8.5C 28.1308,10.3195 42.1308,11.1529 56.5,11C 58.3333,12.1667 59.8333,13.6667 61,15.5C 61.7695,27.1999 61.6028,38.8666 60.5,50.5C 60.5,51.1667 60.1667,51.5 59.5,51.5C 41.8647,52.6258 24.198,52.7925 6.5,52C 4.66667,50.8333 3.16667,49.3333 2,47.5C 1.33333,36.8333 1.33333,26.1667 2,15.5C 3.16667,13.6667 4.66667,12.1667 6.5,11C 9.05119,10.9977 11.0512,10.1644 12.5,8.5 Z"/></g>
<g><path style="opacity:1" fill="#ebebeb" d="M 24.5,38.5 C 24.5,37.5 24.5,36.5 24.5,35.5C 24.1744,31.1161 24.5078,26.7828 25.5,22.5C 30.7621,25.1023 35.7621,28.1023 40.5,31.5C 35.7891,34.7137 30.9557,37.7137 26,40.5C 24.9701,40.1639 24.4701,39.4972 24.5,38.5 Z"/></g>
<g><path style="opacity:1" fill="#1a1210" d="M 24.5,38.5 C 24.4701,39.4972 24.9701,40.1639 26,40.5C 30.9557,37.7137 35.7891,34.7137 40.5,31.5C 35.7621,28.1023 30.7621,25.1023 25.5,22.5C 24.5078,26.7828 24.1744,31.1161 24.5,35.5C 23.3516,31.0189 23.1849,26.3522 24,21.5C 24.5613,20.9781 25.228,20.6448 26,20.5C 31.9502,23.5537 37.4502,27.2203 42.5,31.5C 37.8873,35.4799 32.8873,38.9799 27.5,42C 23.9827,42.6614 22.9827,41.4947 24.5,38.5 Z"/></g>
</svg>
